{
.appVersion = "3032";
DisplayStrings = (
"/parenleftsuperior/parenleftsuperior/parenleftsuperior/parenrightsuperior/parenrightsuperior/parenrightsuperior/minussuperior/minussuperior/minussuperior/plussuperior/plussuperior/plussuperior/plusbelowcomb/plusbelowcomb/plusbelowcomb/plusbelowcomb/plusbelowcomb/plusbelowcomb/minusbelowcomb/minusbelowcomb/minusbelowcomb/minusbelowcomb/minusbelowcomb/minusbelowcomb/circumflexacute/circumflexacute/circumflexacute/circumflexgrave/circumflexgrave/circumflexgrave/circumflexhookabove/circumflexhookabove/circumflexhookabove/circumflexacute.case/circumflexacute.case/circumflexacute.case/circumflexgrave.case/circumflexgrave.case/circumflexgrave.case/circumflexhookabove.case/circumflexhookabove.case/circumflexhookabove.case/uni1D6E"
);
classes = (
{
automatic = 1;
code = "A Aacute Abreve Acircumflex Adieresis Agrave Amacron Aogonek Aring Atilde AE B C Cacute Cacute.loclPLK Ccaron Ccedilla Cdotaccent D Eth Dcaron Dcroat E Eacute Ecaron Ecircumflex Edieresis Edotaccent Egrave Emacron Eogonek F G Gbreve Gcommaaccent Gdotaccent H Hbar I Iacute Icircumflex Idieresis Idotaccent Igrave Imacron Iogonek J K Kcommaaccent L Lacute Lcaron Lcommaaccent Ldot Lslash M N Nacute Nacute.loclPLK Ncaron Ncommaaccent Eng Ntilde O Oacute Oacute.loclPLK Ocircumflex Odieresis Ograve Ohungarumlaut Omacron Oslash Otilde OE P Thorn Q R Racute Rcaron Rcommaaccent S Sacute Sacute.loclPLK Scaron Scedilla Scommaaccent T Tbar Tcaron Tcedilla Tcommaaccent U Uacute Ucircumflex Udieresis Ugrave Uhungarumlaut Umacron Uogonek Uring V W Wacute Wcircumflex Wdieresis Wgrave X Y Yacute Ycircumflex Ydieresis Ygrave Z Zacute Zacute.loclPLK Zcaron Zdotaccent";
name = Uppercase;
}
);
copyright = "Firava derives from Fira Sans, copyright © 2012-2015, The Mozilla Foundation and Telefonica S.A.";
customParameters = (
{
name = openTypeNameLicenseURL;
value = "http://scripts.sil.org/OFL";
},
{
name = openTypeNameLicense;

glyphs = (
{
color = 4;
glyphname = A;
lastChange = "2015-11-23 14:08:40 +0000";
layers = (
{
anchors = (
{
name = bottom;
position = "{301, 0}";
},
{
name = ogonek;
position = "{526, 0}";
},
{
name = top;
position = "{301, 696}";
},
{
name = topleft;
position = "{150, 696}";
}
);
layerId = UUID0;
paths = (
{
closed = 1;
nodes = (
"178 696 LINE",
"-25 0 LINE",
"190 0 LINE",
"298 552 LINE",
"408 0 LINE",
"626 0 LINE",
"424 696 LINE"
);
},
{
closed = 1;
nodes = (
"229 279 LINE",
"200 135 LINE",
"397 135 LINE",
"368 279 LINE"
);
}
);
width = 601;
},
{
anchors = (
{
name = bottom;
position = "{279, 0}";
},
{
name = ogonek;
position = "{543, 0}";
},
{
name = top;
position = "{279, 682}";
},
{
name = topleft;
position = "{170, 682}";
}
);
layerId = "BCC09A48-EAE1-493E-95CB-92D2C26BC05D";
paths = (
{
closed = 1;
nodes = (
"260 682 LINE",
"25 0 LINE",
"56 0 LINE",
"279 657 LINE",
"500 0 LINE",
"533 0 LINE",
"298 682 LINE"
);
},
{
closed = 1;
nodes = (
"123 228 LINE",
"112 199 LINE",
"444 199 LINE",
"434 228 LINE"
);
}
);
width = 558;
},
{
anchors = (
{
name = bottom;
position = "{287, 0}";
},
{
name = ogonek;
position = "{537, 0}";
},
{
name = top;
position = "{287, 689}";
},
{
name = topleft;
position = "{170, 689}";
}
);
layerId = "A11F629A-ECF3-413E-B2EC-6C6F8C33A243";
paths = (
{
closed = 1;
nodes = (
"227 689 LINE",
"6 0 LINE",
"102 0 LINE",
"285 610 LINE",
"467 0 LINE",
"567 0 LINE",
"347 689 LINE"
);
},
{
closed = 1;
nodes = (
"162 250 LINE",
"139 173 LINE",
"430 173 LINE",
"407 250 LINE"
);
}
);
width = 573;
}
);
leftKerningGroup = A;
rightKerningGroup = A;
unicode = 0041;
},
{
color = 7;
glyphname = Aogonek;
lastChange = "2015-11-25 13:02:19 +0000";
layers = (
{
background = {
paths = (
{
closed = 1;
nodes = (
"412 0 LINE",
"525 0 LINE",
"453 -34 OFFCURVE",
"413 -83 OFFCURVE",
"413 -140 CURVE SMOOTH",
"413 -220 OFFCURVE",
"476 -267 OFFCURVE",
"567 -267 CURVE SMOOTH",
"611 -267 OFFCURVE",
"656 -255 OFFCURVE",
"689 -238 CURVE",
"653 -148 LINE",
"638 -155 OFFCURVE",
"611 -162 OFFCURVE",
"586 -162 CURVE SMOOTH",
"556 -162 OFFCURVE",
"540 -141 OFFCURVE",
"540 -114 CURVE SMOOTH",
"540 -81 OFFCURVE",
"557 -42 OFFCURVE",
"634 0 CURVE",
"428 696 LINE",
"182 696 LINE",
"-25 0 LINE",
"194 0 LINE",
"220 135 LINE",
"385 135 LINE"
);
},
{
closed = 1;
nodes = (
"300 539 LINE",
"305 539 LINE",
"356 279 LINE",
"249 279 LINE"
);
}
);
};
components = (
{
name = A;
},
{
name = ogonekcomb;
transform = "{1, 0, 0, 1, 237, 0}";
}
);
layerId = UUID0;
width = 601;
},
{
components = (
{
name = A;
},
{
name = ogonekcomb;
transform = "{1, 0, 0, 1, 349, 0}";
}
);
layerId = "BCC09A48-EAE1-493E-95CB-92D2C26BC05D";
width = 558;
},
{
components = (
{
name = A;
},
{
name = ogonekcomb;
transform = "{1, 0, 0, 1, 294, 0}";
}
);
layerId = "A11F629A-ECF3-413E-B2EC-6C6F8C33A243";
width = 573;
}
);
leftKerningGroup = A;
rightKerningGroup = A;
unicode = 0104;
},
{
color = 4;
glyphname = AE;
lastChange = "2015-11-23 14:08:52 +0000";
layers = (
{
anchors = (
{
name = bottom;
position = "{431.5, 0}";
},
{
name = top;
position = "{489, 696}";
}
);
layerId = UUID0;
paths = (
{
closed = 1;
nodes = (
"241 696 LINE",
"-30 0 LINE",
"194 0 LINE",
"362 549 LINE",
"436 0 LINE",
"843 0 LINE",
"843 144 LINE",
"610 144 LINE",
"540 553 LINE",
"787 553 LINE",
"808 696 LINE"
);
},
{
closed = 1;
nodes = (
"263 279 LINE",
"219 135 LINE",
"434 135 LINE",
"414 279 LINE"
);
},
{
closed = 1;
nodes = (
"546 421 LINE",
"571 282 LINE",
"799 282 LINE",
"799 421 LINE"
);
}
);
width = 863;
},
{
anchors = (
{
name = bottom;
position = "{378.5, 0}";
},
{
name = top;
position = "{442, 682}";
}
);
layerId = "BCC09A48-EAE1-493E-95CB-92D2C26BC05D";
paths = (
{
closed = 1;
nodes = (
"272 682 LINE",
"9 0 LINE",
"40 0 LINE",
"291 657 LINE",
"464 0 LINE",
"717 0 LINE",
"717 29 LINE",
"487 29 LINE",
"323 653 LINE",
"660 653 LINE",
"664 682 LINE"
);
},
{
closed = 1;
nodes = (
"119 222 LINE",
"106 193 LINE",
"420 193 LINE",
"413 222 LINE"
);
},
{
closed = 1;
nodes = (
"388 373 LINE",
"396 345 LINE",
"657 345 LINE",
"657 373 LINE"
);
}
);
width = 757;
},
{
anchors = (
{
name = bottom;
position = "{408, 0}";
},
{
name = top;
position = "{474, 689}";
}
);
layerId = "A11F629A-ECF3-413E-B2EC-6C6F8C33A243";
paths = (
{
closed = 1;
nodes = (
"262 689 LINE",
"-12 0 LINE",
"85 0 LINE",
"316 613 LINE",
"458 0 LINE",
"762 0 LINE",
"762 76 LINE",
"535 76 LINE",
"401 613 LINE",
"710 613 LINE",
"721 689 LINE"
);
},
{
closed = 1;
nodes = (
"162 250 LINE",
"134 173 LINE",
"433 173 LINE",
"416 250 LINE"
);
},
{
closed = 1;
nodes = (
"441 387 LINE",
"461 311 LINE",
"712 311 LINE",
"712 387 LINE"
);
}
);
width = 816;
}
);
leftKerningGroup = AE;
rightKerningGroup = E;
rightMetricsKey = E;
unicode = 00C6;
},
{
color = 4;
glyphname = B;
lastChange = "2015-10-06 09:35:29 +0000";
layers = (
{
anchors = (
{
name = bottom;
position = "{310, 0}";
},
{
name = top;
position = "{291, 696}";
}
);
layerId = UUID0;
paths = (
{
closed = 1;
nodes = (
"43 696 LINE",
"43 0 LINE",
"287 0 LINE SMOOTH",
"470 0 OFFCURVE",
"607 41 OFFCURVE",
"607 206 CURVE SMOOTH",
"607 315 OFFCURVE",
"528 353 OFFCURVE",
"452 369 CURVE",
"514 385 OFFCURVE",
"578 426 OFFCURVE",
"578 516 CURVE SMOOTH",
"578 652 OFFCURVE",
"455 696 OFFCURVE",
"260 696 CURVE SMOOTH"
);
},
{
closed = 1;
nodes = (
"345 555 OFFCURVE",
"369 536 OFFCURVE",
"369 495 CURVE",
"369 446 OFFCURVE",
"347 427 OFFCURVE",
"284 427 CURVE SMOOTH",
"233 427 LINE",
"233 297 LINE",
"297 297 LINE SMOOTH",
"361 297 OFFCURVE",
"395 274 OFFCURVE",
"395 220 CURVE SMOOTH",
"395 158 OFFCURVE",
"352 145 OFFCURVE",
"289 145 CURVE SMOOTH",
"249 145 LINE",
"249 555 LINE",
"279 555 LINE SMOOTH"
);
}
);
width = 622;
},
{
anchors = (
{
name = bottom;
position = "{310, 0}";
},
{
name = top;
position = "{291, 682}";
}
);
layerId = "BCC09A48-EAE1-493E-95CB-92D2C26BC05D";
paths = (
{
closed = 1;
nodes = (
"120 682 LINE",
"120 0 LINE",
"304 0 LINE SMOOTH",
"447 0 OFFCURVE",
"529 67 OFFCURVE",
"529 185 CURVE SMOOTH",
"529 304 OFFCURVE",
"457 357 OFFCURVE",
"372 362 CURVE",
"447 375 OFFCURVE",
"495 422 OFFCURVE",
"495 513 CURVE SMOOTH",
"495 626 OFFCURVE",
"410 682 OFFCURVE",
"264 682 CURVE SMOOTH"
);
},
{
closed = 1;
nodes = (
"393 653 OFFCURVE",
"463 609 OFFCURVE",
"463 512 CURVE SMOOTH",
"463 426 OFFCURVE",
"405 374 OFFCURVE",
"317 374 CURVE SMOOTH",
"144 374 LINE",
"144 346 LINE",
"322 346 LINE SMOOTH",
"424 346 OFFCURVE",
"497 295 OFFCURVE",
"497 185 CURVE SMOOTH",
"497 81 OFFCURVE",
"425 29 OFFCURVE",
"305 29 CURVE SMOOTH",
"151 29 LINE",
"151 653 LINE",
"268 653 LINE SMOOTH"
);
}
);
width = 589;
},
{
anchors = (
{
name = bottom;
position = "{310, 0}";
},
{
name = top;
position = "{301, 689}";
}
);
layerId = "A11F629A-ECF3-413E-B2EC-6C6F8C33A243";
paths = (
{
closed = 1;
nodes = (
"100 689 LINE",
"100 0 LINE",
"290 0 LINE SMOOTH",
"450 0 OFFCURVE",
"563 50 OFFCURVE",
"563 196 CURVE SMOOTH",
"563 313 OFFCURVE",
"484 350 OFFCURVE",
"404 364 CURVE",
"471 378 OFFCURVE",
"533 430 OFFCURVE",
"533 515 CURVE SMOOTH",
"533 635 OFFCURVE",
"433 689 OFFCURVE",
"263 689 CURVE SMOOTH"
);
},
{
closed = 1;
nodes = (
"375 614 OFFCURVE",
"436 593 OFFCURVE",
"436 508 CURVE SMOOTH",
"436 435 OFFCURVE",
"376 397 OFFCURVE",
"299 397 CURVE SMOOTH",
"179 397 LINE",
"179 324 LINE",
"308 324 LINE SMOOTH",
"391 324 OFFCURVE",
"463 293 OFFCURVE",
"463 196 CURVE SMOOTH",
"463 96 OFFCURVE",
"390 76 OFFCURVE",
"290 76 CURVE SMOOTH",
"195 76 LINE",
"195 614 LINE",
"273 614 LINE SMOOTH"
);
}
);
width = 608;
}
);
leftKerningGroup = H;
leftMetricsKey = H;
rightKerningGroup = B;
unicode = 0042;
},
{
color = 4;
glyphname = C;
lastChange = "2015-10-06 09:36:14 +0000";
layers = (
{
anchors = (
{
name = bottom;
position = "{339, 0}";
},
{
name = center;
position = "{375, 354}";
},
{
name = top;
position = "{358, 696}";
}
);
background = {
paths = (
{
closed = 1;
nodes = (
"156 716 OFFCURVE",
"20 582 OFFCURVE",
"20 350 CURVE SMOOTH",
"20 109 OFFCURVE",
"148 -20 OFFCURVE",
"342 -20 CURVE SMOOTH",
"449 -20 OFFCURVE",
"533 26 OFFCURVE",
"584 77 CURVE",
"494 193 LINE",
"453 161 OFFCURVE",
"412 135 OFFCURVE",
"354 135 CURVE SMOOTH",
"280 135 OFFCURVE",
"234 203 OFFCURVE",
"234 350 CURVE SMOOTH",
"234 497 OFFCURVE",
"282 568 OFFCURVE",
"360 568 CURVE SMOOTH",
"408 568 OFFCURVE",
"445 549 OFFCURVE",
"478 519 CURVE",
"576 634 LINE",
"517 685 OFFCURVE",
"445 716 OFFCURVE",
"348 716 CURVE SMOOTH"
);
}
);
};
layerId = UUID0;
paths = (
{
closed = 1;
nodes = (
"157 716 OFFCURVE",
"20 582 OFFCURVE",
"20 350 CURVE SMOOTH",
"20 109 OFFCURVE",
"151 -20 OFFCURVE",
"354 -20 CURVE SMOOTH",
"452 -20 OFFCURVE",
"533 26 OFFCURVE",
"584 77 CURVE",
"494 193 LINE",
"453 161 OFFCURVE",
"415 135 OFFCURVE",
"366 135 CURVE SMOOTH",
"283 135 OFFCURVE",
"234 203 OFFCURVE",
"234 350 CURVE SMOOTH",
"234 497 OFFCURVE",
"282 568 OFFCURVE",
"362 568 CURVE SMOOTH",
"408 568 OFFCURVE",
"445 549 OFFCURVE",
"479 520 CURVE",
"576 634 LINE",
"516 686 OFFCURVE",
"444 716 OFFCURVE",
"352 716 CURVE SMOOTH"
);
}
);
width = 584;
},
{
anchors = (
{
name = bottom;
position = "{341, 0}";
},
{
name = center;
position = "{328, 344}";
},
{
name = top;
position = "{342, 682}";
}
);
layerId = "BCC09A48-EAE1-493E-95CB-92D2C26BC05D";
paths = (
{
closed = 1;
nodes = (
"196 692 OFFCURVE",
"75 577 OFFCURVE",
"75 341 CURVE SMOOTH",
"75 112 OFFCURVE",
"190 -10 OFFCURVE",
"342 -10 CURVE SMOOTH",
"420 -10 OFFCURVE",
"473 17 OFFCURVE",
"517 55 CURVE",
"498 78 LINE",
"457 44 OFFCURVE",
"418 20 OFFCURVE",
"343 20 CURVE SMOOTH",
"212 20 OFFCURVE",
"107 126 OFFCURVE",
"107 341 CURVE SMOOTH",
"107 568 OFFCURVE",
"215 663 OFFCURVE",
"347 663 CURVE SMOOTH",
"409 663 OFFCURVE",
"445 647 OFFCURVE",
"492 611 CURVE",
"509 633 LINE",
"465 669 OFFCURVE",
"420 692 OFFCURVE",
"345 692 CURVE SMOOTH"
);
}
);
width = 542;
},
{
anchors = (
{
name = bottom;
position = "{346, 0}";
},
{
name = center;
position = "{341, 346}";
},
{
name = top;
position = "{347, 689}";
}
);
layerId = "A11F629A-ECF3-413E-B2EC-6C6F8C33A243";
paths = (
{
closed = 1;
nodes = (
"185 701 OFFCURVE",
"55 578 OFFCURVE",
"55 345 CURVE SMOOTH",
"55 113 OFFCURVE",
"176 -12 OFFCURVE",
"343 -12 CURVE SMOOTH",
"436 -12 OFFCURVE",
"502 26 OFFCURVE",
"540 65 CURVE",
"492 126 LINE",
"453 97 OFFCURVE",
"411 68 OFFCURVE",
"346 68 CURVE SMOOTH",
"239 68 OFFCURVE",
"156 146 OFFCURVE",
"156 345 CURVE SMOOTH",
"156 553 OFFCURVE",
"243 623 OFFCURVE",
"347 623 CURVE SMOOTH",
"395 623 OFFCURVE",
"437 607 OFFCURVE",
"480 572 CURVE",
"532 633 LINE",
"477 677 OFFCURVE",
"428 701 OFFCURVE",
"341 701 CURVE SMOOTH"
);
}
);
width = 560;
}
);
leftKerningGroup = O;
leftMetricsKey = O;
rightKerningGroup = C;
unicode = 0043;
},
{
color = 7;
glyphname = Ccedilla;
lastChange = "2015-11-23 13:55:43 +0000";
layers = (
{
background = {
paths = (
{
closed = 1;
nodes = (
"347 -167 OFFCURVE",
"330 -173 OFFCURVE",
"300 -173 CURVE SMOOTH",
"278 -173 OFFCURVE",
"258 -166 OFFCURVE",
"238 -155 CURVE",
"195 -241 LINE",
"222 -258 OFFCURVE",
"268 -275 OFFCURVE",
"320 -275 CURVE SMOOTH",
"425 -275 OFFCURVE",
"484 -220 OFFCURVE",
"484 -151 CURVE SMOOTH",
"484 -89 OFFCURVE",
"447 -52 OFFCURVE",
"374 -43 CURVE",
"374 -18 LINE",
"466 -10 OFFCURVE",
"538 31 OFFCURVE",
"584 77 CURVE",
"494 193 LINE",
"453 161 OFFCURVE",
"412 135 OFFCURVE",
"354 135 CURVE SMOOTH",
"280 135 OFFCURVE",
"234 203 OFFCURVE",
"234 350 CURVE SMOOTH",
"234 497 OFFCURVE",
"282 568 OFFCURVE",
"360 568 CURVE SMOOTH",
"408 568 OFFCURVE",
"445 549 OFFCURVE",
"478 519 CURVE",
"576 634 LINE",
"517 685 OFFCURVE",
"445 716 OFFCURVE",
"348 716 CURVE SMOOTH",
"156 716 OFFCURVE",
"20 582 OFFCURVE",
"20 350 CURVE SMOOTH",
"20 142 OFFCURVE",
"115 17 OFFCURVE",
"266 -13 CURVE",
"253 -120 LINE",
"318 -120 OFFCURVE",
"347 -127 OFFCURVE",
"347 -148 CURVE SMOOTH"
);
}
);
};
components = (
{
name = C;
},
{
name = cedillacomb.case;
transform = "{1, 0, 0, 1, 179, 0}";
}
);
layerId = UUID0;
width = 584;
},
{
components = (
{
name = C;
},
{
name = cedillacomb.case;
transform = "{1, 0, 0, 1, 245, 0}";
}
);
layerId = "BCC09A48-EAE1-493E-95CB-92D2C26BC05D";
width = 542;
},
{
components = (
{
name = C;
},
{
name = cedillacomb.case;
transform = "{1, 0, 0, 1, 224, 0}";
}
);
layerId = "A11F629A-ECF3-413E-B2EC-6C6F8C33A243";
width = 560;
}
);
leftKerningGroup = O;
rightKerningGroup = C;
unicode = 00C7;
},
{
color = 4;
glyphname = D;
lastChange = "2015-10-06 09:37:15 +0000";
layers = (
{
anchors = (
{
name = bottom;
position = "{310, 0}";
},
{
name = center;
position = "{328, 348}";
},
{
name = top;
position = "{291, 696}";
}
);
layerId = UUID0;
paths = (
{
closed = 1;
nodes = (
"43 696 LINE",
"43 0 LINE",
"278 0 LINE SMOOTH",
"472 0 OFFCURVE",
"636 73 OFFCURVE",
"636 351 CURVE SMOOTH",
"636 637 OFFCURVE",
"457 696 OFFCURVE",
"266 696 CURVE SMOOTH"
);
},
{
closed = 1;
nodes = (
"379 551 OFFCURVE",
"424 509 OFFCURVE",
"424 351 CURVE SMOOTH",
"424 193 OFFCURVE",
"383 145 OFFCURVE",
"290 145 CURVE SMOOTH",
"249 145 LINE",
"249 551 LINE",
"291 551 LINE SMOOTH"
);
}
);
width = 656;
},
{
anchors = (
{
name = bottom;
position = "{300, 0}";
},
{
name = center;
position = "{317, 341}";
},
{
name = top;
position = "{297, 682}";
}
);
layerId = "BCC09A48-EAE1-493E-95CB-92D2C26BC05D";
paths = (
{
closed = 1;
nodes = (
"120 682 LINE",
"120 0 LINE",
"252 0 LINE SMOOTH",
"386 0 OFFCURVE",
"547 61 OFFCURVE",
"547 348 CURVE SMOOTH",
"547 627 OFFCURVE",
"395 682 OFFCURVE",
"249 682 CURVE SMOOTH"
);
},
{
closed = 1;
nodes = (
"375 653 OFFCURVE",
"515 614 OFFCURVE",
"515 348 CURVE SMOOTH",
"515 87 OFFCURVE",
"380 29 OFFCURVE",
"253 29 CURVE SMOOTH",
"151 29 LINE",
"151 653 LINE",
"246 653 LINE SMOOTH"
);
}
);
width = 622;
},
{
anchors = (
{
name = bottom;
position = "{300, 0}";
},
{
name = center;
position = "{323, 345}";
},
{
name = top;
position = "{303, 689}";
}
);
layerId = "A11F629A-ECF3-413E-B2EC-6C6F8C33A243";
paths = (
{
closed = 1;
nodes = (
"100 689 LINE",
"100 0 LINE",
"265 0 LINE SMOOTH",
"414 0 OFFCURVE",
"589 67 OFFCURVE",
"589 348 CURVE SMOOTH",
"589 634 OFFCURVE",
"420 689 OFFCURVE",
"244 689 CURVE SMOOTH"
);
},
{
closed = 1;
nodes = (
"375 613 OFFCURVE",
"488 581 OFFCURVE",
"488 348 CURVE SMOOTH",
"488 121 OFFCURVE",
"380 75 OFFCURVE",
"272 75 CURVE SMOOTH",
"195 75 LINE",
"195 613 LINE",
"265 613 LINE SMOOTH"
);
}
);
width = 644;
}
);
leftKerningGroup = H;
leftMetricsKey = H;
rightKerningGroup = O;
rightMetricsKey = O;
unicode = 0044;
},
{
color = 4;
glyphname = Eth;
lastChange = "2015-11-06 11:35:26 +0000";
layers = (
{
background = {
paths = (
{
closed = 1;
nodes = (
"651 637 OFFCURVE",
"472 696 OFFCURVE",
"281 696 CURVE SMOOTH",
"58 696 LINE",
"58 411 LINE",
"8 411 LINE",
"8 295 LINE",
"58 295 LINE",
"58 0 LINE",
"293 0 LINE SMOOTH",
"487 0 OFFCURVE",
"651 73 OFFCURVE",
"651 351 CURVE SMOOTH"
);
},
{
closed = 1;
nodes = (
"439 193 OFFCURVE",
"398 145 OFFCURVE",
"305 145 CURVE SMOOTH",
"264 145 LINE",
"264 295 LINE",
"383 295 LINE",
"383 411 LINE",
"264 411 LINE",
"264 551 LINE",
"306 551 LINE SMOOTH",
"394 551 OFFCURVE",
"439 509 OFFCURVE",
"439 351 CURVE SMOOTH"
);
}
);
};
components = (
{
alignment = -1;
name = D;
transform = "{1, 0, 0, 1, 15, 0}";
}
);
layerId = UUID0;
paths = (
{
closed = 1;
nodes = (
"59 411 LINE",
"10 411 LINE",
"10 295 LINE",
"385 295 LINE",
"385 411 LINE"
);
}
);
width = 671;
},
{
components = (
{
name = D;
transform = "{1, 0, 0, 1, -1, 0}";
}
);
layerId = "BCC09A48-EAE1-493E-95CB-92D2C26BC05D";
paths = (
{
closed = 1;
nodes = (
"119 367 LINE",
"25 367 LINE",
"25 337 LINE",
"340 337 LINE",
"340 367 LINE"
);
}
);
width = 621;
},
{
components = (
{
alignment = -1;
name = D;
transform = "{1, 0, 0, 1, 12, 0}";
}
);
layerId = "A11F629A-ECF3-413E-B2EC-6C6F8C33A243";
paths = (
{
closed = 1;
nodes = (
"112 388 LINE",
"20 388 LINE",
"20 318 LINE",
"364 318 LINE",
"364 388 LINE"
);
}
);
width = 656;
}
);
leftKerningGroup = H;
rightKerningGroup = O;
rightMetricsKey = D;
unicode = 00D0;
},
{
color = 4;
glyphname = E;
lastChange = "2015-10-06 09:37:49 +0000";
layers = (
{
anchors = (
{
name = bottom;
position = "{269, 0}";
},
{
name = ogonek;
position = "{465, 0}";
},
{
name = top;
position = "{272, 696}";
},
{
name = topleft;
position = "{43, 696}";
}
);
background = {
paths = (
{
closed = 1;
nodes = (
"43 696 LINE",
"43 0 LINE",
"495 0 LINE",
"495 144 LINE",
"249 144 LINE",
"249 284 LINE",
"451 284 LINE",
"451 423 LINE",
"249 423 LINE",
"249 553 LINE",
"479 553 LINE",
"500 696 LINE"
);
}
);
};
layerId = UUID0;
paths = (
{
closed = 1;
nodes = (
"43 696 LINE",
"43 0 LINE",
"495 0 LINE",
"495 144 LINE",
"249 144 LINE",
"249 284 LINE",
"451 284 LINE",
"451 423 LINE",
"249 423 LINE",
"249 553 LINE",
"479 553 LINE",
"500 696 LINE"
);
}
);
width = 520;
},
{
anchors = (
{
name = bottom;
position = "{283, 0}";
},
{
name = ogonek;
position = "{438, 0}";
},
{
name = top;
position = "{288, 682}";
},
{
name = topleft;
position = "{90, 682}";
}
);
background = {
paths = (
{
closed = 1;
nodes = (
"114 682 LINE",
"114 0 LINE",
"447 0 LINE",
"447 30 LINE",
"145 30 LINE",
"145 344 LINE",
"397 344 LINE",
"397 374 LINE",
"145 374 LINE",
"145 652 LINE",
"435 652 LINE",
"439 682 LINE"
);
}
);
};
layerId = "BCC09A48-EAE1-493E-95CB-92D2C26BC05D";
paths = (
{
closed = 1;
nodes = (
"120 682 LINE",
"120 0 LINE",
"453 0 LINE",
"453 29 LINE",
"151 29 LINE",
"151 345 LINE",
"403 345 LINE",
"403 373 LINE",
"151 373 LINE",
"151 653 LINE",
"443 653 LINE",
"447 682 LINE"
);
}
);
width = 493;
},
{
anchors = (
{
name = bottom;
position = "{291, 0}";
},
{
name = ogonek;
position = "{451, 0}";
},
{
name = top;
position = "{290, 689}";
},
{
name = topleft;
position = "{90, 689}";
}
);
layerId = "A11F629A-ECF3-413E-B2EC-6C6F8C33A243";
paths = (
{
closed = 1;
nodes = (
"100 689 LINE",
"100 0 LINE",
"481 0 LINE",
"481 76 LINE",
"195 76 LINE",
"195 312 LINE",
"427 312 LINE",
"427 388 LINE",
"195 388 LINE",
"195 613 LINE",
"462 613 LINE",
"473 689 LINE"
);
}
);
width = 535;
}
);
leftKerningGroup = H;
leftMetricsKey = H;
rightKerningGroup = E;
unicode = 0045;
},
{
color = 7;
glyphname = Eogonek;
lastChange = "2015-11-25 13:02:19 +0000";
layers = (
{
background = {
paths = (
{
closed = 1;
nodes = (
"479 553 LINE",
"500 696 LINE",
"43 696 LINE",
"43 0 LINE",
"386 0 LINE",
"314 -34 OFFCURVE",
"274 -83 OFFCURVE",
"274 -140 CURVE SMOOTH",
"274 -220 OFFCURVE",
"337 -267 OFFCURVE",
"428 -267 CURVE SMOOTH",
"472 -267 OFFCURVE",
"517 -255 OFFCURVE",
"550 -238 CURVE",
"514 -148 LINE",
"499 -155 OFFCURVE",
"472 -162 OFFCURVE",
"447 -162 CURVE SMOOTH",
"417 -162 OFFCURVE",
"401 -141 OFFCURVE",
"401 -114 CURVE SMOOTH",
"401 -81 OFFCURVE",
"418 -42 OFFCURVE",
"495 0 CURVE",
"495 144 LINE",
"249 144 LINE",
"249 284 LINE",
"451 284 LINE",
"451 423 LINE",
"249 423 LINE",
"249 553 LINE"
);
}
);
};
components = (
{
name = E;
},
{
name = ogonekcomb;
transform = "{1, 0, 0, 1, 176, 0}";
}
);
layerId = UUID0;
width = 520;
},
{
components = (
{
name = E;
},
{
name = ogonekcomb;
transform = "{1, 0, 0, 1, 244, 0}";
}
);
layerId = "BCC09A48-EAE1-493E-95CB-92D2C26BC05D";
width = 493;
},
{
components = (
{
name = E;
},
{
name = ogonekcomb;
transform = "{1, 0, 0, 1, 208, 0}";
}
);
layerId = "A11F629A-ECF3-413E-B2EC-6C6F8C33A243";
width = 535;
}
);
leftKerningGroup = H;
rightKerningGroup = E;
unicode = 0118;
},
{
color = 4;
glyphname = F;
lastChange = "2015-10-06 09:38:07 +0000";
layers = (
{
anchors = (
{
name = bottom;
position = "{146, 0}";
},
{
name = top;
position = "{274, 696}";
}
);
layerId = UUID0;
paths = (
{
closed = 1;
nodes = (
"249 0 LINE",
"249 258 LINE",
"438 258 LINE",
"438 401 LINE",
"249 401 LINE",
"249 553 LINE",
"464 553 LINE",
"485 696 LINE",
"43 696 LINE",
"43 0 LINE"
);
}
);
width = 485;
},
{
anchors = (
{
name = bottom;
position = "{136, 0}";
},
{
name = top;
position = "{291, 682}";
}
);
background = {
paths = (
{
closed = 1;
nodes = (
"114 682 LINE",
"114 0 LINE",
"145 0 LINE",
"145 330 LINE",
"393 330 LINE",
"393 360 LINE",
"145 360 LINE",
"145 652 LINE",
"432 652 LINE",
"436 682 LINE"
);
}
);
};
layerId = "BCC09A48-EAE1-493E-95CB-92D2C26BC05D";
paths = (
{
closed = 1;
nodes = (
"151 0 LINE",
"151 331 LINE",
"399 331 LINE",
"399 359 LINE",
"151 359 LINE",
"151 653 LINE",
"438 653 LINE",
"442 682 LINE",
"120 682 LINE",
"120 0 LINE"
);
}
);
width = 472;
},
{
anchors = (
{
name = bottom;
position = "{148, 0}";
},
{
name = top;
position = "{293, 689}";
}
);
layerId = "A11F629A-ECF3-413E-B2EC-6C6F8C33A243";
paths = (
{
closed = 1;
nodes = (
"195 0 LINE",
"195 303 LINE",
"420 303 LINE",
"420 378 LINE",
"195 378 LINE",
"195 613 LINE",
"455 613 LINE",
"466 689 LINE",
"100 689 LINE",
"100 0 LINE"
);
}
);
width = 491;
}
);
leftKerningGroup = H;
leftMetricsKey = H;
rightKerningGroup = F;
unicode = 0046;
},
{
color = 4;
glyphname = G;
lastChange = "2015-10-06 09:38:58 +0000";
layers = (
{
anchors = (
{
name = bottom;
position = "{350, 0}";
},
{
name = top;
position = "{350, 696}";
}
);
layerId = UUID0;
paths = (
{
closed = 1;
nodes = (
"170 716 OFFCURVE",
"20 585 OFFCURVE",
"20 349 CURVE SMOOTH",
"20 112 OFFCURVE",
"122 -20 OFFCURVE",
"355 -20 CURVE SMOOTH",
"442 -20 OFFCURVE",
"543 9 OFFCURVE",
"618 60 CURVE",
"618 409 LINE",
"331 409 LINE",
"350 270 LINE",
"420 270 LINE",
"420 143 LINE",
"398 132 OFFCURVE",
"376 126 OFFCURVE",
"349 126 CURVE SMOOTH",
"268 126 OFFCURVE",
"232 176 OFFCURVE",
"232 348 CURVE SMOOTH",
"232 501 OFFCURVE",
"287 572 OFFCURVE",
"383 572 CURVE SMOOTH",
"436 572 OFFCURVE",
"472 554 OFFCURVE",
"518 521 CURVE",
"618 625 LINE",
"561 675 OFFCURVE",
"478 716 OFFCURVE",
"371 716 CURVE SMOOTH"
);
}
);
width = 653;
},
{
anchors = (
{
name = bottom;
position = "{337, 0}";
},
{
name = top;
position = "{349, 682}";
}
);
layerId = "BCC09A48-EAE1-493E-95CB-92D2C26BC05D";
paths = (
{
closed = 1;
nodes = (
"215 692 OFFCURVE",
"75 583 OFFCURVE",
"75 345 CURVE SMOOTH",
"75 109 OFFCURVE",
"189 -10 OFFCURVE",
"353 -10 CURVE SMOOTH",
"416 -10 OFFCURVE",
"481 8 OFFCURVE",
"538 42 CURVE",
"538 359 LINE",
"360 359 LINE",
"364 330 LINE",
"507 330 LINE",
"507 58 LINE",
"462 33 OFFCURVE",
"418 19 OFFCURVE",
"353 19 CURVE SMOOTH",
"207 19 OFFCURVE",
"107 125 OFFCURVE",
"107 345 CURVE SMOOTH",
"107 574 OFFCURVE",
"233 663 OFFCURVE",
"348 663 CURVE SMOOTH",
"411 663 OFFCURVE",
"456 646 OFFCURVE",
"504 609 CURVE",
"523 631 LINE",
"470 672 OFFCURVE",
"422 692 OFFCURVE",
"348 692 CURVE SMOOTH"
);
}
);
width = 608;
},
{
anchors = (
{
name = bottom;
position = "{343, 0}";
},
{
name = top;
position = "{355, 689}";
}
);
layerId = "A11F629A-ECF3-413E-B2EC-6C6F8C33A243";
paths = (
{
closed = 1;
nodes = (
"197 701 OFFCURVE",
"55 577 OFFCURVE",
"55 345 CURVE SMOOTH",
"55 107 OFFCURVE",
"166 -12 OFFCURVE",
"337 -12 CURVE SMOOTH",
"434 -12 OFFCURVE",
"506 12 OFFCURVE",
"569 49 CURVE",
"569 382 LINE",
"342 382 LINE",
"353 305 LINE",
"475 305 LINE",
"475 98 LINE",
"436 75 OFFCURVE",
"390 66 OFFCURVE",
"344 66 CURVE SMOOTH",
"223 66 OFFCURVE",
"156 147 OFFCURVE",
"156 345 CURVE SMOOTH",
"156 548 OFFCURVE",
"255 623 OFFCURVE",
"354 623 CURVE SMOOTH",
"416 623 OFFCURVE",
"457 606 OFFCURVE",
"505 567 CURVE",
"561 625 LINE",
"502 674 OFFCURVE",
"445 701 OFFCURVE",
"352 701 CURVE SMOOTH"
);
}
);
width = 631;
}
);
leftKerningGroup = O;
leftMetricsKey = O;
rightKerningGroup = G;
unicode = 0047;
},
{
color = 4;
glyphname = H;
lastChange = "2015-10-06 10:15:20 +0000";
layers = (
{
anchors = (
{
name = bottom;
position = "{329, 0}";
},
{
name = bottomright;
position = "{624, 0}";
},
{
name = center;
position = "{329, 348}";
},
{
name = top;
position = "{329, 696}";
},
{
name = topleft;
position = "{43, 696}";
}
);
layerId = UUID0;
paths = (
{
closed = 1;
nodes = (
"614 0 LINE",
"614 696 LINE",
"408 696 LINE",
"408 439 LINE",
"249 439 LINE",
"249 696 LINE",
"43 696 LINE",
"43 0 LINE",
"249 0 LINE",
"249 281 LINE",
"408 281 LINE",
"408 0 LINE"
);
}
);
width = 657;
},
{
anchors = (
{
name = bottom;
position = "{331, 0}";
},
{
name = bottomright;
position = "{552, 0}";
},
{
name = center;
position = "{329, 341}";
},
{
name = top;
position = "{329, 682}";
},
{
name = topleft;
position = "{90, 682}";
}
);
layerId = "BCC09A48-EAE1-493E-95CB-92D2C26BC05D";
paths = (
{
closed = 1;
nodes = (
"542 0 LINE",
"542 682 LINE",
"511 682 LINE",
"511 374 LINE",
"151 374 LINE",
"151 682 LINE",
"120 682 LINE",
"120 0 LINE",
"151 0 LINE",
"151 345 LINE",
"511 345 LINE",
"511 0 LINE"
);
}
);
width = 662;
},
{
anchors = (
{
name = bottom;
position = "{340, 0}";
},
{
name = bottomright;
position = "{590, 0}";
},
{
name = center;
position = "{340, 345}";
},
{
name = top;
position = "{340, 689}";
},
{
name = topleft;
position = "{90, 689}";
}
);
layerId = "A11F629A-ECF3-413E-B2EC-6C6F8C33A243";
paths = (
{
closed = 1;
nodes = (
"580 0 LINE",
"580 689 LINE",
"485 689 LINE",
"485 401 LINE",
"195 401 LINE",
"195 689 LINE",
"100 689 LINE",
"100 0 LINE",
"195 0 LINE",
"195 323 LINE",
"485 323 LINE",
"485 0 LINE"
);
}
);
width = 680;
}
);
leftKerningGroup = H;
rightKerningGroup = H;
unicode = 0048;
},
{
color = 7;
glyphname = Hbar;
lastChange = "2015-11-24 09:24:30 +0000";
layers = (
{
background = {
paths = (
{
closed = 1;
nodes = (
"621 0 LINE",
"621 495 LINE",
"671 495 LINE",
"671 601 LINE",
"621 601 LINE",
"621 696 LINE",
"415 696 LINE",
"415 601 LINE",
"256 601 LINE",
"256 696 LINE",
"50 696 LINE",
"50 601 LINE",
"0 601 LINE",
"0 495 LINE",
"50 495 LINE",
"50 0 LINE",
"256 0 LINE",
"256 281 LINE",
"415 281 LINE",
"415 0 LINE"
);
},
{
closed = 1;
nodes = (
"256 439 LINE",
"256 495 LINE",
"415 495 LINE",
"415 439 LINE"
);
}
);
};
components = (
{
alignment = -1;
name = H;
transform = "{1, 0, 0, 1, 7, 0}";
}
);
layerId = UUID0;
paths = (
{
closed = 1;
nodes = (
"622 601 LINE",
"0 601 LINE",
"0 495 LINE",
"49 495 LINE",
"671 495 LINE",
"671 601 LINE"
);
}
);
width = 671;
},
{
components = (
{
alignment = -1;
name = H;
}
);
layerId = "BCC09A48-EAE1-493E-95CB-92D2C26BC05D";
paths = (
{
closed = 1;
nodes = (
"542 542 LINE",
"57 542 LINE",
"57 518 LINE",
"120 518 LINE",
"605 518 LINE",
"605 542 LINE"
);
}
);
width = 662;
},
{
background = {
paths = (
{
closed = 1;
nodes = (
"583 0 LINE",
"583 508 LINE",
"660 508 LINE",
"660 577 LINE",
"583 577 LINE",
"583 689 LINE",
"488 689 LINE",
"488 577 LINE",
"207 577 LINE",
"207 689 LINE",
"112 689 LINE",
"112 577 LINE",
"35 577 LINE",
"35 508 LINE",
"112 508 LINE",
"112 0 LINE",
"207 0 LINE",
"207 323 LINE",
"488 323 LINE",
"488 0 LINE"
);
},
{
closed = 1;
nodes = (
"207 401 LINE",
"207 508 LINE",
"488 508 LINE",
"488 401 LINE"
);
}
);
};
components = (
{
alignment = -1;
name = H;
transform = "{1, 0, 0, 1, 4, 0}";
}
);
layerId = "A11F629A-ECF3-413E-B2EC-6C6F8C33A243";
paths = (
{
closed = 1;
nodes = (
"584 577 LINE",
"35 577 LINE",
"35 508 LINE",
"104 508 LINE",
"653 508 LINE",
"653 577 LINE"
);
}
);
width = 688;
}
);
leftKerningGroup = H;
rightKerningGroup = H;
unicode = 0126;
},
{
color = 4;
glyphname = I;
lastChange = "2015-11-06 10:50:02 +0000";
layers = (
{
anchors = (
{
name = bottom;
position = "{146, 0}";
},
{
name = ogonek;
position = "{213, 0}";
},
{
name = top;
position = "{146, 696}";
},
{
name = topleft;
position = "{43, 696}";
}
);
layerId = UUID0;
paths = (
{
closed = 1;
nodes = (
"43 696 LINE",
"43 0 LINE",
"249 0 LINE",
"249 696 LINE"
);
}
);
width = 292;
},
{
anchors = (
{
name = bottom;
position = "{136, 0}";
},
{
name = ogonek;
position = "{161, 0}";
},
{
name = top;
position = "{135, 682}";
},
{
name = topleft;
position = "{90, 682}";
}
);
layerId = "BCC09A48-EAE1-493E-95CB-92D2C26BC05D";
paths = (
{
closed = 1;
nodes = (
"120 682 LINE",
"120 0 LINE",
"151 0 LINE",
"151 682 LINE"
);
}
);
width = 271;
},
{
anchors = (
{
name = bottom;
position = "{147, 0}";
},
{
name = ogonek;
position = "{205, 0}";
},
{
name = top;
position = "{147, 689}";
},
{
name = topleft;
position = "{90, 689}";
}
);
layerId = "A11F629A-ECF3-413E-B2EC-6C6F8C33A243";
paths = (
{
closed = 1;
nodes = (
"100 689 LINE",
"100 0 LINE",
"195 0 LINE",
"195 689 LINE"
);
}
);
width = 295;
}
);
leftKerningGroup = H;
leftMetricsKey = H;
rightKerningGroup = H;
rightMetricsKey = H;
unicode = 0049;
},
{
color = 4;
glyphname = J;
lastChange = "2015-10-06 09:40:20 +0000";
layers = (
{
anchors = (
{
name = bottom;
position = "{162.425, -215}";
},
{
name = top;
position = "{181, 696}";
}
);
layerId = UUID0;
paths = (
{
closed = 1;
nodes = (
"78 696 LINE",
"78 118 LINE SMOOTH",
"78 41 OFFCURVE",
"69 -10 OFFCURVE",
"-20 -44 CURVE",
"35 -189 LINE",
"156 -149 OFFCURVE",
"284 -83 OFFCURVE",
"284 111 CURVE SMOOTH",
"284 696 LINE"
);
}
);
width = 324.85;
},
{
anchors = (
{
name = bottom;
position = "{139.5, -193}";
},
{
name = top;
position = "{147, 682}";
}
);
layerId = "BCC09A48-EAE1-493E-95CB-92D2C26BC05D";
paths = (
{
closed = 1;
nodes = (
"134 682 LINE",
"134 90 LINE SMOOTH",
"134 -3 OFFCURVE",
"111 -37 OFFCURVE",
"20 -81 CURVE",
"29 -104 LINE",
"141 -54 OFFCURVE",
"165 -15 OFFCURVE",
"165 88 CURVE SMOOTH",
"165 682 LINE"
);
}
);
width = 279;
},
{
anchors = (
{
name = bottom;
position = "{152.5, -202}";
},
{
name = top;
position = "{163, 689}";
}
);
layerId = "A11F629A-ECF3-413E-B2EC-6C6F8C33A243";
paths = (
{
closed = 1;
nodes = (
"115 689 LINE",
"115 100 LINE SMOOTH",
"115 8 OFFCURVE",
"96 -32 OFFCURVE",
"5 -68 CURVE",
"30 -137 LINE",
"141 -102 OFFCURVE",
"210 -48 OFFCURVE",
"210 96 CURVE SMOOTH",
"210 689 LINE"
);
}
);
width = 305;
}
);
leftKerningGroup = J;
rightKerningGroup = J;
rightMetricsKey = "=H*0.95";
unicode = 004A;
},
{
color = 4;
glyphname = K;
lastChange = "2015-10-06 09:41:25 +0000";
layers = (
{
anchors = (
{
name = bottom;
position = "{330, 0}";
},
{
name = top;
position = "{330, 696}";
}
);
layerId = UUID0;
paths = (
{
closed = 1;
nodes = (
"449 696 LINE",
"255 371 LINE",
"445 0 LINE",
"679 0 LINE",
"464 387 LINE",
"661 696 LINE"
);
},
{
closed = 1;
nodes = (
"43 696 LINE",
"43 0 LINE",
"249 0 LINE",
"249 696 LINE"
);
}
);
width = 659;
},
{
anchors = (
{
name = bottom;
position = "{300, 0}";
},
{
name = top;
position = "{290, 682}";
}
);
layerId = "BCC09A48-EAE1-493E-95CB-92D2C26BC05D";
paths = (
{
closed = 1;
nodes = (
"460 682 LINE",
"154 367 LINE",
"475 0 LINE",
"513 0 LINE",
"194 367 LINE",
"497 682 LINE"
);
},
{
closed = 1;
nodes = (
"120 682 LINE",
"120 0 LINE",
"151 0 LINE",
"151 682 LINE"
);
}
);
width = 513;
},
{
anchors = (
{
name = bottom;
position = "{315, 0}";
},
{
name = top;
position = "{328, 689}";
}
);
layerId = "A11F629A-ECF3-413E-B2EC-6C6F8C33A243";
paths = (
{
closed = 1;
nodes = (
"462 689 LINE",
"200 368 LINE",
"472 0 LINE",
"589 0 LINE",
"309 374 LINE",
"570 689 LINE"
);
},
{
closed = 1;
nodes = (
"100 689 LINE",
"100 0 LINE",
"195 0 LINE",
"195 689 LINE"
);
}
);
width = 589;
}
);
leftKerningGroup = H;
leftMetricsKey = H;
rightKerningGroup = K;
unicode = 004B;
},
{
color = 4;
glyphname = L;
lastChange = "2015-10-06 09:42:21 +0000";
layers = (
{
anchors = (
{
name = bottom;
position = "{267, 0}";
},
{
name = center;
position = "{403, 404}";
},
{
name = top;
position = "{146, 696}";
},
{
name = topright;
position = "{259, 696}";
}
);
background = {
paths = (
{
closed = 1;
nodes = (
"43 696 LINE",
"43 0 LINE",
"491 0 LINE",
"512 158 LINE",
"249 158 LINE",
"249 696 LINE"
);
}
);
};
layerId = UUID0;
paths = (
{
closed = 1;
nodes = (
"43 696 LINE",
"43 0 LINE",
"491 0 LINE",
"512 158 LINE",
"249 158 LINE",
"249 696 LINE"
);
}
);
width = 522;
},
{
anchors = (
{
name = bottom;
position = "{281, 0}";
},
{
name = center;
position = "{352, 354}";
},
{
name = top;
position = "{136, 682}";
},
{
name = topright;
position = "{181, 682}";
}
);
background = {
paths = (
{
closed = 1;
nodes = (
"114 682 LINE",
"114 0 LINE",
"428 0 LINE",
"434 32 LINE",
"145 32 LINE",
"145 682 LINE"
);
}
);
};
layerId = "BCC09A48-EAE1-493E-95CB-92D2C26BC05D";
paths = (
{
closed = 1;
nodes = (
"120 682 LINE",
"120 0 LINE",
"434 0 LINE",
"440 30 LINE",
"151 30 LINE",
"151 682 LINE"
);
}
);
width = 460;
},
{
anchors = (
{
name = bottom;
position = "{284, 0}";
},
{
name = center;
position = "{390, 390}";
},
{
name = top;
position = "{148, 689}";
},
{
name = topright;
position = "{215, 689}";
}
);
layerId = "A11F629A-ECF3-413E-B2EC-6C6F8C33A243";
paths = (
{
closed = 1;
nodes = (
"100 689 LINE",
"100 0 LINE",
"467 0 LINE",
"478 83 LINE",
"195 83 LINE",
"195 689 LINE"
);
}
);
width = 498;
}
);
leftKerningGroup = H;
leftMetricsKey = H;
rightKerningGroup = L;
unicode = 004C;
},
{
color = 7;
glyphname = Lslash;
lastChange = "2015-11-20 12:30:45 +0000";
layers = (
{
components = (
{
alignment = -1;
name = L;
transform = "{1, 0, 0, 1, 54, 0}";
}
);
layerId = UUID0;
paths = (
{
closed = 1;
nodes = (
"97 347 LINE",
"0 287 LINE",
"63 184 LINE",
"475 439 LINE",
"411 541 LINE"
);
}
);
width = 576;
},
{
components = (
{
alignment = -1;
name = L;
transform = "{1, 0, 0, 1, 6, 0}";
}
);
layerId = "BCC09A48-EAE1-493E-95CB-92D2C26BC05D";
paths = (
{
closed = 1;
nodes = (
"126 331 LINE",
"42 279 LINE",
"55 257 LINE",
"368 453 LINE",
"355 475 LINE"
);
}
);
width = 466;
},
{
background = {
paths = (
{
closed = 1;
nodes = (
"115 689 LINE",
"115 347 LINE",
"21 289 LINE",
"59 229 LINE",
"115 263 LINE",
"115 0 LINE",
"482 0 LINE",
"493 83 LINE",
"210 83 LINE",
"210 322 LINE",
"409 446 LINE",
"370 505 LINE",
"210 406 LINE",
"210 689 LINE"
);
}
);
};
components = (
{
alignment = -1;
name = L;
transform = "{1, 0, 0, 1, 16, 0}";
}
);
layerId = "A11F629A-ECF3-413E-B2EC-6C6F8C33A243";
paths = (
{
closed = 1;
nodes = (
"116 340 LINE",
"22 282 LINE",
"60 222 LINE",
"409 438 LINE",
"371 498 LINE"
);
}
);
width = 514;
}
);
leftKerningGroup = H;
rightKerningGroup = L;
rightMetricsKey = L;
unicode = 0141;
},
{
color = 4;
glyphname = M;
lastChange = "2015-10-06 09:43:57 +0000";
layers = (
{
anchors = (
{
name = bottom;
position = "{395.5, 0}";
},
{
name = bottomright;
position = "{786, 0}";
},
{
name = top;
position = "{395, 696}";
}
);
layerId = UUID0;
paths = (
{
closed = 1;
nodes = (
"471 696 LINE",
"399 245 LINE",
"319 696 LINE",
"65 696 LINE",
"15 0 LINE",
"218 0 LINE",
"223 248 LINE SMOOTH",
"225 342 OFFCURVE",
"221 416 OFFCURVE",
"210 531 CURVE",
"298 70 LINE",
"493 70 LINE",
"575 531 LINE",
"566 427 OFFCURVE",
"566 337 OFFCURVE",
"568 247 CURVE SMOOTH",
"573 0 LINE",
"776 0 LINE",
"726 696 LINE"
);
}
);
width = 791;
},
{
anchors = (
{
name = bottom;
position = "{382, 0}";
},
{
name = bottomright;
position = "{699, 0}";
},
{
name = top;
position = "{381, 682}";
}
);
background = {
paths = (
{
closed = 1;
nodes = (
"570 682 LINE",
"384 129 LINE",
"380 129 LINE",
"193 682 LINE",
"147 682 LINE",
"76 0 LINE",
"106 0 LINE",
"140 342 LINE SMOOTH",
"149 430 OFFCURVE",
"164 571 OFFCURVE",
"172 651 CURVE",
"173 651 LINE",
"366 87 LINE",
"399 87 LINE",
"589 651 LINE",
"590 651 LINE",
"596 588 OFFCURVE",
"606 480 OFFCURVE",
"621 342 CURVE SMOOTH",
"660 0 LINE",
"690 0 LINE",
"617 682 LINE"
);
}
);
};
layerId = "BCC09A48-EAE1-493E-95CB-92D2C26BC05D";
paths = (
{
closed = 1;
nodes = (
"569 682 LINE",
"382 121 LINE",
"192 682 LINE",
"146 682 LINE",
"75 0 LINE",
"105 0 LINE",
"140 351 LINE",
"151 459 OFFCURVE",
"167 597 OFFCURVE",
"171 655 CURVE",
"367 83 LINE",
"397 83 LINE",
"589 655 LINE",
"595 588 OFFCURVE",
"609 454 OFFCURVE",
"621 342 CURVE SMOOTH",
"659 0 LINE",
"689 0 LINE",
"616 682 LINE"
);
}
);
width = 764;
},
{
anchors = (
{
name = bottom;
position = "{398, 0}";
},
{
name = bottomright;
position = "{726, 0}";
},
{
name = top;
position = "{389, 689}";
}
);
layerId = "A11F629A-ECF3-413E-B2EC-6C6F8C33A243";
paths = (
{
closed = 1;
nodes = (
"530 689 LINE",
"392 188 LINE",
"247 689 LINE",
"119 689 LINE",
"62 0 LINE",
"152 0 LINE",
"175 304 LINE SMOOTH",
"183 405 OFFCURVE",
"188 512 OFFCURVE",
"188 593 CURVE",
"345 78 LINE",
"434 78 LINE",
"583 592 LINE",
"584 535 OFFCURVE",
"591 419 OFFCURVE",
"600 311 CURVE SMOOTH",
"624 0 LINE",
"716 0 LINE",
"659 689 LINE"
);
}
);
width = 778;
}
);
leftKerningGroup = M;
rightKerningGroup = M;
unicode = 004D;
},
{
color = 4;
glyphname = N;
lastChange = "2015-10-06 09:44:17 +0000";
layers = (
{
anchors = (
{
name = bottom;
position = "{326, 0}";
},
{
name = top;
position = "{326, 696}";
}
);
layerId = UUID0;
paths = (
{
closed = 1;
nodes = (
"426 696 LINE",
"426 473 LINE SMOOTH",
"426 347 OFFCURVE",
"441 267 OFFCURVE",
"454 186 CURVE",
"296 696 LINE",
"43 696 LINE",
"43 0 LINE",
"225 0 LINE",
"225 216 LINE SMOOTH",
"225 345 OFFCURVE",
"208 441 OFFCURVE",
"198 508 CURVE",
"350 0 LINE",
"608 0 LINE",
"608 696 LINE"
);
}
);
width = 651;
},
{
anchors = (
{
name = bottom;
position = "{332, 0}";
},
{
name = top;
position = "{339, 682}";
}
);
layerId = "BCC09A48-EAE1-493E-95CB-92D2C26BC05D";
paths = (
{
closed = 1;
nodes = (
"514 682 LINE",
"514 232 LINE",
"514 140 OFFCURVE",
"516 75 OFFCURVE",
"518 35 CURVE",
"159 682 LINE",
"120 682 LINE",
"120 0 LINE",
"150 0 LINE",
"150 438 LINE",
"150 557 OFFCURVE",
"149 608 OFFCURVE",
"146 647 CURVE",
"506 0 LINE",
"544 0 LINE",
"544 682 LINE"
);
}
);
width = 664;
},
{
anchors = (
{
name = bottom;
position = "{343, 0}";
},
{
name = top;
position = "{353, 689}";
}
);
layerId = "A11F629A-ECF3-413E-B2EC-6C6F8C33A243";
paths = (
{
closed = 1;
nodes = (
"494 689 LINE",
"494 313 LINE SMOOTH",
"494 229 OFFCURVE",
"505 119 OFFCURVE",
"507 103 CURVE",
"224 689 LINE",
"100 689 LINE",
"100 0 LINE",
"189 0 LINE",
"189 316 LINE SMOOTH",
"189 444 OFFCURVE",
"181 528 OFFCURVE",
"176 585 CURVE",
"456 0 LINE",
"583 0 LINE",
"583 689 LINE"
);
}
);
width = 683;
}
);
leftKerningGroup = H;
leftMetricsKey = H;
rightKerningGroup = H;
rightMetricsKey = H;
unicode = 004E;
},
{
color = 7;
glyphname = Eng;
lastChange = "2020-11-02 20:31:18 +0000";
layers = (
{
background = {
paths = (
{
closed = 1;
nodes = (
"410 534 LINE",
"410 65 LINE SMOOTH",
"410 -22 OFFCURVE",
"365 -52 OFFCURVE",
"298 -83 CURVE",
"366 -227 LINE",
"498 -184 OFFCURVE",
"608 -111 OFFCURVE",
"608 77 CURVE SMOOTH",
"608 534 LINE"
);
},
{
closed = 1;
nodes = (
"426 696 LINE",
"426 473 LINE SMOOTH",
"426 347 OFFCURVE",
"441 267 OFFCURVE",
"458 198 CURVE",
"454 198 LINE",
"296 696 LINE",
"43 696 LINE",
"43 0 LINE",
"225 0 LINE",
"225 216 LINE SMOOTH",
"225 345 OFFCURVE",
"207 441 OFFCURVE",
"193 498 CURVE",
"197 498 LINE",
"350 0 LINE",
"608 0 LINE",
"608 696 LINE"
);
},
{
closed = 1;
nodes = (
"426 696 LINE",
"426 473 LINE SMOOTH",
"426 347 OFFCURVE",
"441 267 OFFCURVE",
"458 198 CURVE",
"454 198 LINE",
"296 696 LINE",
"43 696 LINE",
"43 0 LINE",
"225 0 LINE",
"225 216 LINE SMOOTH",
"225 345 OFFCURVE",
"207 441 OFFCURVE",
"193 498 CURVE",
"197 498 LINE",
"350 0 LINE",
"422 0 LINE",
"608 77 LINE",
"608 696 LINE"
);
},
{
closed = 1;
nodes = (
"425 65 LINE",
"425 -32 OFFCURVE",
"390 -60 OFFCURVE",
"305 -95 CURVE",
"366 -227 LINE",
"498 -184 OFFCURVE",
"608 -111 OFFCURVE",
"608 77 CURVE"
);
}
);
};
components = (
{
alignment = -1;
name = hookHELPER.case;
transform = "{1, 0, 0, 1, 190, 0}";
},
{
alignment = -1;
name = N;
}
);
layerId = UUID0;
width = 651;
},
{
background = {
paths = (
{
closed = 1;
nodes = (
"514 682 LINE",
"514 232 LINE",
"514 140 OFFCURVE",
"516 75 OFFCURVE",
"518 35 CURVE",
"517 35 LINE",
"161 682 LINE",
"120 682 LINE",
"120 0 LINE",
"150 0 LINE",
"150 438 LINE",
"150 557 OFFCURVE",
"149 608 OFFCURVE",
"146 647 CURVE",
"147 647 LINE",
"504 0 LINE",
"544 0 LINE",
"544 682 LINE"
);
},
{
closed = 1;
nodes = (
"514 682 LINE",
"514 232 LINE",
"514 140 OFFCURVE",
"516 75 OFFCURVE",
"518 35 CURVE",
"517 35 LINE",
"161 682 LINE",
"120 682 LINE",
"120 0 LINE",
"150 0 LINE",
"150 438 LINE",
"150 557 OFFCURVE",
"149 608 OFFCURVE",
"146 647 CURVE",
"147 647 LINE",
"504 0 LINE",
"516 0 LINE",
"544 8 LINE",
"544 682 LINE"
);
},
{
closed = 1;
nodes = (
"514 9 LINE SMOOTH",
"514 -108 OFFCURVE",
"486 -138 OFFCURVE",
"417 -174 CURVE",
"426 -196 LINE",
"506 -156 OFFCURVE",
"544 -124 OFFCURVE",
"544 8 CURVE SMOOTH"
);
},
{
closed = 1;
nodes = (
"514 682 LINE",
"514 232 LINE",
"514 140 OFFCURVE",
"516 75 OFFCURVE",
"518 35 CURVE",
"517 35 LINE",
"161 682 LINE",
"120 682 LINE",
"120 0 LINE",
"150 0 LINE",
"150 438 LINE",
"150 557 OFFCURVE",
"149 608 OFFCURVE",
"146 647 CURVE",
"147 647 LINE",
"504 0 LINE",
"520 0 LINE",
"544 8 LINE",
"544 682 LINE"
);
},
{
closed = 1;
nodes = (
"517 9 LINE",
"517 -108 OFFCURVE",
"487 -138 OFFCURVE",
"417 -175 CURVE",
"426 -196 LINE",
"506 -156 OFFCURVE",
"544 -124 OFFCURVE",
"544 8 CURVE"
);
}
);
};
components = (
{
alignment = -1;
name = hookHELPER.case;
transform = "{1, 0, 0, 1, 310, 0}";
},
{
alignment = -1;
name = N;
}
);
layerId = "BCC09A48-EAE1-493E-95CB-92D2C26BC05D";
width = 664;
},
{
background = {
paths = (
{
closed = 1;
nodes = (
"494 689 LINE",
"494 313 LINE SMOOTH",
"494 229 OFFCURVE",
"505 119 OFFCURVE",
"507 103 CURVE",
"503 103 LINE",
"226 689 LINE",
"100 689 LINE",
"100 0 LINE",
"189 0 LINE",
"189 316 LINE SMOOTH",
"189 444 OFFCURVE",
"181 526 OFFCURVE",
"176 583 CURVE",
"180 583 LINE",
"454 0 LINE",
"502 0 LINE",
"583 32 LINE",
"583 689 LINE"
);
},
{
closed = 1;
nodes = (
"491 26 LINE SMOOTH",
"491 -87 OFFCURVE",
"458 -113 OFFCURVE",
"389 -145 CURVE",
"416 -212 LINE",
"528 -162 OFFCURVE",
"583 -117 OFFCURVE",
"583 32 CURVE SMOOTH"
);
},
{
closed = 1;
nodes = (
"494 689 LINE",
"494 313 LINE SMOOTH",
"494 229 OFFCURVE",
"505 119 OFFCURVE",
"507 103 CURVE",
"503 103 LINE",
"226 689 LINE",
"100 689 LINE",
"100 0 LINE",
"189 0 LINE",
"189 316 LINE SMOOTH",
"189 444 OFFCURVE",
"181 526 OFFCURVE",
"176 583 CURVE",
"180 583 LINE",
"454 0 LINE",
"512 0 LINE",
"583 32 LINE",
"583 689 LINE"
);
},
{
closed = 1;
nodes = (
"503 26 LINE",
"503 -90 OFFCURVE",
"465 -115 OFFCURVE",
"391 -150 CURVE",
"416 -212 LINE",
"528 -162 OFFCURVE",
"583 -117 OFFCURVE",
"583 32 CURVE"
);
}
);
};
components = (
{
alignment = -1;
name = hookHELPER.case;
transform = "{1, 0, 0, 1, 287, 0}";
},
{
alignment = -1;
name = N;
}
);
layerId = "A11F629A-ECF3-413E-B2EC-6C6F8C33A243";
width = 683;
}
);
leftKerningGroup = H;
leftMetricsKey = N;
rightKerningGroup = J;
rightMetricsKey = N;
unicode = 014A;
},
{
color = 4;
glyphname = O;
lastChange = "2015-10-13 10:26:06 +0000";
layers = (
{
anchors = (
{
name = bottom;
position = "{345, 0}";
},
{
name = ogonek;
position = "{482, 0}";
},
{
name = top;
position = "{345, 696}";
},
{
name = topleft;
position = "{103, 696}";
},
{
name = topright;
position = "{589, 696}";
}
);
layerId = UUID0;
paths = (
{
closed = 1;
nodes = (
"136 716 OFFCURVE",
"20 575 OFFCURVE",
"20 349 CURVE SMOOTH",
"20 118 OFFCURVE",
"136 -20 OFFCURVE",
"345 -20 CURVE SMOOTH",
"554 -20 OFFCURVE",
"670 123 OFFCURVE",
"670 349 CURVE SMOOTH",
"670 580 OFFCURVE",
"554 716 OFFCURVE",
"345 716 CURVE SMOOTH"
);
},
{
closed = 1;
nodes = (
"423 570 OFFCURVE",
"456 510 OFFCURVE",
"456 349 CURVE SMOOTH",
"456 188 OFFCURVE",
"425 126 OFFCURVE",
"345 126 CURVE SMOOTH",
"267 126 OFFCURVE",
"234 188 OFFCURVE",
"234 349 CURVE SMOOTH",
"234 510 OFFCURVE",
"267 570 OFFCURVE",
"345 570 CURVE SMOOTH"
);
}
);
width = 690;
},
{
anchors = (
{
name = bottom;
position = "{345, 0}";
},
{
name = ogonek;
position = "{430, 0}";
},
{
name = top;
position = "{345, 682}";
},
{
name = topleft;
position = "{103, 682}";
},
{
name = topright;
position = "{536, 682}";
}
);
layerId = "BCC09A48-EAE1-493E-95CB-92D2C26BC05D";
paths = (
{
closed = 1;
nodes = (
"186 692 OFFCURVE",
"75 565 OFFCURVE",
"75 339 CURVE SMOOTH",
"75 114 OFFCURVE",
"185 -10 OFFCURVE",
"345 -10 CURVE SMOOTH",
"511 -10 OFFCURVE",
"615 118 OFFCURVE",
"615 340 CURVE SMOOTH",
"615 571 OFFCURVE",
"506 692 OFFCURVE",
"345 692 CURVE SMOOTH"
);
},
{
closed = 1;
nodes = (
"488 663 OFFCURVE",
"583 556 OFFCURVE",
"583 340 CURVE SMOOTH",
"583 129 OFFCURVE",
"493 19 OFFCURVE",
"345 19 CURVE SMOOTH",
"205 19 OFFCURVE",
"107 129 OFFCURVE",
"107 339 CURVE SMOOTH",
"107 554 OFFCURVE",
"204 663 OFFCURVE",
"345 663 CURVE"
);
}
);
width = 690;
},
{
anchors = (
{
name = bottom;
position = "{346, 0}";
},
{
name = ogonek;
position = "{445, 0}";
},
{
name = top;
position = "{346, 689}";
},
{
name = topleft;
position = "{113, 689}";
},
{
name = topright;
position = "{549, 689}";
}
);
layerId = "A11F629A-ECF3-413E-B2EC-6C6F8C33A243";
paths = (
{
closed = 1;
nodes = (
"174 701 OFFCURVE",
"55 570 OFFCURVE",
"55 343 CURVE SMOOTH",
"55 112 OFFCURVE",
"174 -12 OFFCURVE",
"346 -12 CURVE SMOOTH",
"519 -12 OFFCURVE",
"637 116 OFFCURVE",
"637 344 CURVE SMOOTH",
"637 576 OFFCURVE",
"519 701 OFFCURVE",
"346 701 CURVE SMOOTH"
);
},
{
closed = 1;
nodes = (
"464 623 OFFCURVE",
"536 542 OFFCURVE",
"536 344 CURVE SMOOTH",
"536 144 OFFCURVE",
"462 66 OFFCURVE",
"346 66 CURVE SMOOTH",
"234 66 OFFCURVE",
"156 144 OFFCURVE",
"156 343 CURVE SMOOTH",
"156 542 OFFCURVE",
"231 623 OFFCURVE",
"346 623 CURVE SMOOTH"
);
}
);
width = 692;
}
);
leftKerningGroup = O;
rightKerningGroup = O;
unicode = 004F;
},
{
color = 4;
glyphname = Oslash;
lastChange = "2015-11-20 12:30:07 +0000";
layers = (
{
anchors = (
{
name = bottom;
position = "{345, 0}";
},
{
name = top;
position = "{345, 741}";
}
);
layerId = UUID0;
paths = (
{
closed = 1;
nodes = (
"136 716 OFFCURVE",
"20 575 OFFCURVE",
"20 349 CURVE SMOOTH",
"20 118 OFFCURVE",
"136 -20 OFFCURVE",
"345 -20 CURVE SMOOTH",
"554 -20 OFFCURVE",
"670 123 OFFCURVE",
"670 349 CURVE SMOOTH",
"670 580 OFFCURVE",
"554 716 OFFCURVE",
"345 716 CURVE SMOOTH"
);
},
{
closed = 1;
nodes = (
"423 570 OFFCURVE",
"456 540 OFFCURVE",
"456 349 CURVE SMOOTH",
"456 188 OFFCURVE",
"425 126 OFFCURVE",
"345 126 CURVE SMOOTH",
"267 126 OFFCURVE",
"234 158 OFFCURVE",
"234 349 CURVE SMOOTH",
"234 510 OFFCURVE",
"267 570 OFFCURVE",
"345 570 CURVE SMOOTH"
);
},
{
closed = 1;
nodes = (
"382 709 LINE",
"363 570 LINE",
"246 180 LINE",
"160 33 LINE",
"119 -99 LINE",
"269 -139 LINE",
"308 -12 LINE",
"327 124 LINE",
"444 514 LINE",
"530 664 LINE",
"571 793 LINE",
"421 833 LINE"
);
}
);
width = 690;
},
{
anchors = (
{
name = bottom;
position = "{345, 0}";
},
{
name = top;
position = "{337, 692}";
}
);
layerId = "BCC09A48-EAE1-493E-95CB-92D2C26BC05D";
paths = (
{
closed = 1;
nodes = (
"186 692 OFFCURVE",
"75 565 OFFCURVE",
"75 339 CURVE SMOOTH",
"75 114 OFFCURVE",
"185 -10 OFFCURVE",
"345 -10 CURVE SMOOTH",
"511 -10 OFFCURVE",
"615 118 OFFCURVE",
"615 340 CURVE SMOOTH",
"615 571 OFFCURVE",
"506 692 OFFCURVE",
"345 692 CURVE SMOOTH"
);
},
{
closed = 1;
nodes = (
"488 663 OFFCURVE",
"583 556 OFFCURVE",
"583 340 CURVE SMOOTH",
"583 129 OFFCURVE",
"493 19 OFFCURVE",
"345 19 CURVE SMOOTH",
"205 19 OFFCURVE",
"107 129 OFFCURVE",
"107 339 CURVE SMOOTH",
"107 554 OFFCURVE",
"204 663 OFFCURVE",
"345 663 CURVE"
);
},
{
closed = 1;
nodes = (
"429 680 LINE",
"424 656 LINE",
"241 34 LINE",
"233 14 LINE",
"196 -105 LINE",
"227 -114 LINE",
"258 3 LINE",
"264 27 LINE",
"447 649 LINE",
"454 669 LINE",
"493 794 LINE",
"462 803 LINE"
);
}
);
width = 690;
},
{
anchors = (
{
name = bottom;
position = "{346, 0}";
},
{
name = top;
position = "{341, 704}";
}
);
layerId = "A11F629A-ECF3-413E-B2EC-6C6F8C33A243";
paths = (
{
closed = 1;
nodes = (
"174 701 OFFCURVE",
"55 570 OFFCURVE",
"55 343 CURVE SMOOTH",
"55 112 OFFCURVE",
"174 -12 OFFCURVE",
"346 -12 CURVE SMOOTH",
"519 -12 OFFCURVE",
"637 116 OFFCURVE",
"637 344 CURVE SMOOTH",
"637 576 OFFCURVE",
"519 701 OFFCURVE",
"346 701 CURVE SMOOTH"
);
},
{
closed = 1;
nodes = (
"464 623 OFFCURVE",
"536 552 OFFCURVE",
"536 344 CURVE SMOOTH",
"536 144 OFFCURVE",
"462 66 OFFCURVE",
"346 66 CURVE SMOOTH",
"234 66 OFFCURVE",
"156 134 OFFCURVE",
"156 343 CURVE SMOOTH",
"156 542 OFFCURVE",
"231 623 OFFCURVE",
"346 623 CURVE SMOOTH"
);
},
{
closed = 1;
nodes = (
"410 689 LINE",
"398 626 LINE",
"235 86 LINE",
"208 32 LINE",
"165 -106 LINE",
"244 -127 LINE",
"281 0 LINE",
"293 63 LINE",
"456 606 LINE",
"483 657 LINE",
"528 798 LINE",
"449 819 LINE"
);
}
);
width = 692;
}
);
leftKerningGroup = O;
leftMetricsKey = O;
rightKerningGroup = O;
rightMetricsKey = O;
unicode = 00D8;
},
{
color = 4;
glyphname = OE;
lastChange = "2015-10-06 10:16:16 +0000";
layers = (
{
anchors = (
{
name = bottom;
position = "{455, 0}";
},
{
name = top;
position = "{455, 696}";
}
);
layerId = UUID0;
paths = (
{
closed = 1;
nodes = (
"136 716 OFFCURVE",
"20 575 OFFCURVE",
"20 349 CURVE SMOOTH",
"20 118 OFFCURVE",
"136 -20 OFFCURVE",
"327 -20 CURVE SMOOTH",
"410 -20 OFFCURVE",
"480 9 OFFCURVE",
"514 69 CURVE",
"608 125 OFFCURVE",
"650 237 OFFCURVE",
"650 349 CURVE SMOOTH",
"650 465 OFFCURVE",
"607 576 OFFCURVE",
"506 640 CURVE",
"478 689 OFFCURVE",
"409 716 OFFCURVE",
"327 716 CURVE SMOOTH"
);
},
{
closed = 1;
nodes = (
"573 144 LINE",
"427 0 LINE",
"885 0 LINE",
"885 144 LINE"
);
},
{
closed = 1;
nodes = (
"633 423 LINE",
"633 284 LINE",
"841 284 LINE",
"841 423 LINE"
);
},
{
closed = 1;
nodes = (
"427 696 LINE",
"583 553 LINE",
"869 553 LINE",
"890 696 LINE"
);
},
{
closed = 1;
nodes = (
"403 570 OFFCURVE",
"436 510 OFFCURVE",
"436 349 CURVE SMOOTH",
"436 188 OFFCURVE",
"405 126 OFFCURVE",
"335 126 CURVE SMOOTH",
"267 126 OFFCURVE",
"234 188 OFFCURVE",
"234 349 CURVE SMOOTH",
"234 510 OFFCURVE",
"267 570 OFFCURVE",
"335 570 CURVE SMOOTH"
);
}
);
width = 910;
},
{
anchors = (
{
name = bottom;
position = "{424, 0}";
},
{
name = top;
position = "{424, 682}";
}
);
layerId = "BCC09A48-EAE1-493E-95CB-92D2C26BC05D";
paths = (
{
closed = 1;
nodes = (
"186 692 OFFCURVE",
"75 565 OFFCURVE",
"75 339 CURVE SMOOTH",
"75 114 OFFCURVE",
"185 -10 OFFCURVE",
"335 -10 CURVE SMOOTH",
"373 -10 OFFCURVE",
"410 -1 OFFCURVE",
"440 18 CURVE",
"537 61 OFFCURVE",
"595 172 OFFCURVE",
"595 349 CURVE SMOOTH",
"595 513 OFFCURVE",
"537 619 OFFCURVE",
"440 666 CURVE",
"413 683 OFFCURVE",
"375 692 OFFCURVE",
"335 692 CURVE SMOOTH"
);
},
{
closed = 1;
nodes = (
"440 29 LINE",
"396 0 LINE",
"808 0 LINE",
"808 29 LINE"
);
},
{
closed = 1;
nodes = (
"584 373 LINE",
"584 345 LINE",
"758 345 LINE",
"758 373 LINE"
);
},
{
closed = 1;
nodes = (
"399 682 LINE",
"430 653 LINE",
"798 653 LINE",
"802 682 LINE"
);
},
{
closed = 1;
nodes = (
"468 663 OFFCURVE",
"563 556 OFFCURVE",
"563 349 CURVE SMOOTH",
"563 129 OFFCURVE",
"473 19 OFFCURVE",
"335 19 CURVE SMOOTH",
"205 19 OFFCURVE",
"107 129 OFFCURVE",
"107 339 CURVE SMOOTH",
"107 554 OFFCURVE",
"204 663 OFFCURVE",
"335 663 CURVE"
);
}
);
width = 848;
},
{
anchors = (
{
name = bottom;
position = "{454, 0}";
},
{
name = top;
position = "{454, 689}";
}
);
layerId = "A11F629A-ECF3-413E-B2EC-6C6F8C33A243";
paths = (
{
closed = 1;
nodes = (
"174 701 OFFCURVE",
"55 570 OFFCURVE",
"55 343 CURVE SMOOTH",
"55 112 OFFCURVE",
"174 -12 OFFCURVE",
"333 -12 CURVE SMOOTH",
"383 -12 OFFCURVE",
"434 4 OFFCURVE",
"467 37 CURVE",
"564 92 OFFCURVE",
"617 204 OFFCURVE",
"617 344 CURVE SMOOTH",
"617 483 OFFCURVE",
"571 592 OFFCURVE",
"486 644 CURVE",
"444 683 OFFCURVE",
"390 701 OFFCURVE",
"333 701 CURVE SMOOTH"
);
},
{
closed = 1;
nodes = (
"501 76 LINE",
"405 0 LINE",
"843 0 LINE",
"843 76 LINE"
);
},
{
closed = 1;
nodes = (
"551 388 LINE",
"551 312 LINE",
"789 312 LINE",
"789 388 LINE"
);
},
{
closed = 1;
nodes = (
"406 689 LINE",
"511 613 LINE",
"824 613 LINE",
"835 689 LINE"
);
},
{
closed = 1;
nodes = (
"444 623 OFFCURVE",
"516 542 OFFCURVE",
"516 344 CURVE SMOOTH",
"516 144 OFFCURVE",
"442 66 OFFCURVE",
"336 66 CURVE SMOOTH",
"234 66 OFFCURVE",
"156 144 OFFCURVE",
"156 343 CURVE SMOOTH",
"156 542 OFFCURVE",
"231 623 OFFCURVE",
"336 623 CURVE SMOOTH"
);
}
);
width = 908;
}
);
leftKerningGroup = O;
leftMetricsKey = O;
rightKerningGroup = E;
rightMetricsKey = E;
unicode = 0152;
},
{
color = 4;
glyphname = P;
lastChange = "2015-10-06 10:01:53 +0000";
layers = (
{
anchors = (
{
name = bottom;
position = "{146, 0}";
},
{
name = top;
position = "{306, 696}";
},
{
name = topleft;
position = "{33, 696}";
}
);
layerId = UUID0;
paths = (
{
closed = 1;
nodes = (
"249 553 LINE",
"291 553 LINE SMOOTH",
"359 553 OFFCURVE",
"386 519 OFFCURVE",
"386 462 CURVE SMOOTH",
"386 394 OFFCURVE",
"355 362 OFFCURVE",
"297 362 CURVE SMOOTH",
"233 362 LINE",
"233 217 LINE",
"317 217 LINE SMOOTH",
"482 217 OFFCURVE",
"596 299 OFFCURVE",
"596 462 CURVE SMOOTH",
"596 618 OFFCURVE",
"481 696 OFFCURVE",
"294 696 CURVE SMOOTH",
"43 696 LINE",
"43 0 LINE",
"249 0 LINE"
);
}
);
width = 611;
},
{
anchors = (
{
name = bottom;
position = "{136, 0}";
},
{
name = top;
position = "{281, 682}";
},
{
name = topleft;
position = "{90, 682}";
}
);
layerId = "BCC09A48-EAE1-493E-95CB-92D2C26BC05D";
paths = (
{
closed = 1;
nodes = (
"151 653 LINE",
"264 653 LINE SMOOTH",
"399 653 OFFCURVE",
"474 609 OFFCURVE",
"474 482 CURVE SMOOTH",
"474 348 OFFCURVE",
"385 307 OFFCURVE",
"262 307 CURVE SMOOTH",
"144 307 LINE",
"144 278 LINE",
"259 278 LINE SMOOTH",
"404 278 OFFCURVE",
"506 333 OFFCURVE",
"506 483 CURVE SMOOTH",
"506 623 OFFCURVE",
"418 682 OFFCURVE",
"264 682 CURVE SMOOTH",
"120 682 LINE",
"120 0 LINE",
"151 0 LINE"
);
}
);
width = 561;
},
{
anchors = (
{
name = bottom;
position = "{148, 0}";
},
{
name = top;
position = "{291, 689}";
},
{
name = topleft;
position = "{90, 689}";
}
);
layerId = "A11F629A-ECF3-413E-B2EC-6C6F8C33A243";
paths = (
{
closed = 1;
nodes = (
"195 615 LINE",
"280 615 LINE SMOOTH",
"382 615 OFFCURVE",
"448 578 OFFCURVE",
"448 475 CURVE SMOOTH",
"448 358 OFFCURVE",
"380 328 OFFCURVE",
"278 328 CURVE SMOOTH",
"179 328 LINE",
"179 253 LINE",
"282 253 LINE SMOOTH",
"434 253 OFFCURVE",
"549 318 OFFCURVE",
"549 476 CURVE SMOOTH",
"549 621 OFFCURVE",
"447 689 OFFCURVE",
"281 689 CURVE SMOOTH",
"100 689 LINE",
"100 0 LINE",
"195 0 LINE"
);
}
);
width = 581;
}
);
leftKerningGroup = H;
leftMetricsKey = H;
rightKerningGroup = P;
unicode = 0050;
},
{
color = 4;
glyphname = Thorn;
lastChange = "2015-11-20 12:31:33 +0000";
layers = (
{
anchors = (
{
name = bottom;
position = "{305.5, 0}";
},
{
name = top;
position = "{305.5, 696}";
}
);
layerId = UUID0;
paths = (
{
closed = 1;
nodes = (
"243 593 LINE",
"249 450 LINE",
"291 450 LINE SMOOTH",
"359 450 OFFCURVE",
"386 416 OFFCURVE",
"386 358 CURVE SMOOTH",
"386 283 OFFCURVE",
"355 251 OFFCURVE",
"297 251 CURVE SMOOTH",
"233 251 LINE",
"233 106 LINE",
"317 106 LINE SMOOTH",
"482 106 OFFCURVE",
"596 188 OFFCURVE",
"596 358 CURVE SMOOTH",
"596 515 OFFCURVE",
"481 593 OFFCURVE",
"294 593 CURVE SMOOTH"
);
},
{
closed = 1;
nodes = (
"43 696 LINE",
"43 0 LINE",
"249 0 LINE",
"249 696 LINE"
);
}
);
width = 611;
},
{
anchors = (
{
name = bottom;
position = "{280.5, 0}";
},
{
name = top;
position = "{280.5, 682}";
}
);
layerId = "BCC09A48-EAE1-493E-95CB-92D2C26BC05D";
paths = (
{
closed = 1;
nodes = (
"130 556 LINE",
"151 527 LINE",
"264 527 LINE SMOOTH",
"399 527 OFFCURVE",
"474 483 OFFCURVE",
"474 356 CURVE SMOOTH",
"474 214 OFFCURVE",
"385 173 OFFCURVE",
"262 173 CURVE SMOOTH",
"144 173 LINE",
"144 144 LINE",
"259 144 LINE SMOOTH",
"404 144 OFFCURVE",
"506 199 OFFCURVE",
"506 357 CURVE SMOOTH",
"506 497 OFFCURVE",
"418 556 OFFCURVE",
"264 556 CURVE SMOOTH"
);
},
{
closed = 1;
nodes = (
"120 682 LINE",
"120 0 LINE",
"151 0 LINE",
"151 682 LINE"
);
}
);
width = 561;
},
{
anchors = (
{
name = bottom;
position = "{290.5, 0}";
},
{
name = top;
position = "{290.5, 689}";
}
);
layerId = "A11F629A-ECF3-413E-B2EC-6C6F8C33A243";
paths = (
{
closed = 1;
nodes = (
"180 571 LINE",
"195 497 LINE",
"280 497 LINE SMOOTH",
"382 497 OFFCURVE",
"448 460 OFFCURVE",
"448 353 CURVE SMOOTH",
"448 232 OFFCURVE",
"380 202 OFFCURVE",
"278 202 CURVE SMOOTH",
"179 202 LINE",
"179 127 LINE",
"282 127 LINE SMOOTH",
"434 127 OFFCURVE",
"549 192 OFFCURVE",
"549 354 CURVE SMOOTH",
"549 503 OFFCURVE",
"447 571 OFFCURVE",
"281 571 CURVE SMOOTH"
);
},
{
closed = 1;
nodes = (
"100 689 LINE",
"100 0 LINE",
"195 0 LINE",
"195 689 LINE"
);
}
);
width = 581;
}
);
leftKerningGroup = H;
leftMetricsKey = H;
rightKerningGroup = Thorn;
rightMetricsKey = P;
unicode = 00DE;
},
{
color = 4;
glyphname = Q;
lastChange = "2015-10-06 10:04:04 +0000";
layers = (
{
anchors = (
{
name = bottom;
position = "{345, 0}";
},
{
name = top;
position = "{345, 696}";
}
);
background = {
paths = (
{
closed = 1;
nodes = (
"136 716 OFFCURVE",
"20 575 OFFCURVE",
"20 349 CURVE SMOOTH",
"20 118 OFFCURVE",
"127 -16 OFFCURVE",
"330 -16 CURVE SMOOTH",
"462 -16 OFFCURVE",
"543 -100 OFFCURVE",
"599 -173 CURVE",
"720 -15 LINE",
"661 29 OFFCURVE",
"601 48 OFFCURVE",
"512 48 CURVE",
"511 52 LINE",
"616 112 OFFCURVE",
"670 227 OFFCURVE",
"670 349 CURVE SMOOTH",
"670 580 OFFCURVE",
"554 716 OFFCURVE",
"345 716 CURVE SMOOTH"
);
},
{
closed = 1;
nodes = (
"423 570 OFFCURVE",
"456 510 OFFCURVE",
"456 349 CURVE SMOOTH",
"456 188 OFFCURVE",
"425 126 OFFCURVE",
"345 126 CURVE SMOOTH",
"267 126 OFFCURVE",
"234 188 OFFCURVE",
"234 349 CURVE SMOOTH",
"234 510 OFFCURVE",
"267 570 OFFCURVE",
"345 570 CURVE SMOOTH"
);
}
);
};
layerId = UUID0;
paths = (
{
closed = 1;
nodes = (
"136 716 OFFCURVE",
"20 575 OFFCURVE",
"20 349 CURVE SMOOTH",
"20 118 OFFCURVE",
"136 -16 OFFCURVE",
"330 -16 CURVE SMOOTH",
"356 -16 OFFCURVE",
"381 -14 OFFCURVE",
"404 -10 CURVE",
"504 48 LINE",
"582 94 OFFCURVE",
"670 182 OFFCURVE",
"670 349 CURVE SMOOTH",
"670 580 OFFCURVE",
"554 716 OFFCURVE",
"345 716 CURVE SMOOTH"
);
},
{
closed = 1;
nodes = (
"330 -16 LINE",
"462 -16 OFFCURVE",
"543 -100 OFFCURVE",
"599 -173 CURVE",
"720 -15 LINE",
"661 29 OFFCURVE",
"601 48 OFFCURVE",
"504 48 CURVE"
);
},
{
closed = 1;
nodes = (
"423 570 OFFCURVE",
"456 510 OFFCURVE",
"456 349 CURVE SMOOTH",
"456 188 OFFCURVE",
"425 126 OFFCURVE",
"345 126 CURVE SMOOTH",
"267 126 OFFCURVE",
"234 188 OFFCURVE",
"234 349 CURVE SMOOTH",
"234 510 OFFCURVE",
"267 570 OFFCURVE",
"345 570 CURVE SMOOTH"
);
}
);
width = 690;
},
{
anchors = (
{
name = bottom;
position = "{337, 0}";
},
{
name = top;
position = "{337, 682}";
}
);
layerId = "BCC09A48-EAE1-493E-95CB-92D2C26BC05D";
paths = (
{
closed = 1;
nodes = (
"186 692 OFFCURVE",
"75 565 OFFCURVE",
"75 339 CURVE SMOOTH",
"75 114 OFFCURVE",
"185 -8 OFFCURVE",
"345 -8 CURVE SMOOTH",
"359 -8 OFFCURVE",
"373 -7 OFFCURVE",
"387 -5 CURVE",
"429 11 LINE",
"533 38 OFFCURVE",
"615 134 OFFCURVE",
"615 340 CURVE SMOOTH",
"615 571 OFFCURVE",
"506 692 OFFCURVE",
"345 692 CURVE SMOOTH"
);
},
{
closed = 1;
nodes = (
"345 -8 LINE",
"465 -8 OFFCURVE",
"542 -22 OFFCURVE",
"614 -84 CURVE",
"635 -58 LINE",
"579 -7 OFFCURVE",
"501 9 OFFCURVE",
"429 11 CURVE"
);
},
{
closed = 1;
nodes = (
"488 663 OFFCURVE",
"583 556 OFFCURVE",
"583 340 CURVE SMOOTH",
"583 129 OFFCURVE",
"493 19 OFFCURVE",
"345 19 CURVE SMOOTH",
"205 19 OFFCURVE",
"107 129 OFFCURVE",
"107 339 CURVE SMOOTH",
"107 554 OFFCURVE",
"204 663 OFFCURVE",
"345 663 CURVE"
);
}
);
width = 690;
},
{
anchors = (
{
name = bottom;
position = "{344.5, 0}";
},
{
name = top;
position = "{344.5, 689}";
}
);
background = {
paths = (
{
closed = 1;
nodes = (
"180 701 OFFCURVE",
"63 573 OFFCURVE",
"63 343 CURVE SMOOTH",
"63 109 OFFCURVE",
"180 -10 OFFCURVE",
"352 -10 CURVE SMOOTH",
"477 -10 OFFCURVE",
"549 -33 OFFCURVE",
"627 -103 CURVE",
"689 -23 LINE",
"640 11 OFFCURVE",
"581 39 OFFCURVE",
"495 39 CURVE",
"494 43 LINE",
"588 93 OFFCURVE",
"635 193 OFFCURVE",
"635 344 CURVE SMOOTH",
"635 578 OFFCURVE",
"518 701 OFFCURVE",
"349 701 CURVE SMOOTH"
);
},
{
closed = 1;
nodes = (
"461 623 OFFCURVE",
"534 546 OFFCURVE",
"534 344 CURVE SMOOTH",
"534 142 OFFCURVE",
"461 66 OFFCURVE",
"349 66 CURVE SMOOTH",
"240 66 OFFCURVE",
"164 141 OFFCURVE",
"164 343 CURVE SMOOTH",
"164 545 OFFCURVE",
"237 623 OFFCURVE",
"349 623 CURVE SMOOTH"
);
},
{
closed = 1;
nodes = (
"174 701 OFFCURVE",
"55 570 OFFCURVE",
"55 343 CURVE SMOOTH",
"55 112 OFFCURVE",
"174 -12 OFFCURVE",
"346 -12 CURVE SMOOTH",
"519 -12 OFFCURVE",
"637 116 OFFCURVE",
"637 344 CURVE SMOOTH",
"637 576 OFFCURVE",
"519 701 OFFCURVE",
"346 701 CURVE SMOOTH"
);
},
{
closed = 1;
nodes = (
"464 623 OFFCURVE",
"536 542 OFFCURVE",
"536 344 CURVE SMOOTH",
"536 144 OFFCURVE",
"462 66 OFFCURVE",
"346 66 CURVE SMOOTH",
"234 66 OFFCURVE",
"156 144 OFFCURVE",
"156 343 CURVE SMOOTH",
"156 542 OFFCURVE",
"231 623 OFFCURVE",
"346 623 CURVE SMOOTH"
);
}
);
};
layerId = "A11F629A-ECF3-413E-B2EC-6C6F8C33A243";
paths = (
{
closed = 1;
nodes = (
"174 701 OFFCURVE",
"55 570 OFFCURVE",
"55 343 CURVE SMOOTH",
"55 112 OFFCURVE",
"174 -10 OFFCURVE",
"344 -10 CURVE SMOOTH",
"365 -10 OFFCURVE",
"384 -8 OFFCURVE",
"403 -5 CURVE",
"479 39 LINE",
"577 90 OFFCURVE",
"637 175 OFFCURVE",
"637 344 CURVE SMOOTH",
"637 576 OFFCURVE",
"519 701 OFFCURVE",
"346 701 CURVE SMOOTH"
);
},
{
closed = 1;
nodes = (
"344 -10 LINE",
"469 -10 OFFCURVE",
"526 -33 OFFCURVE",
"604 -103 CURVE",
"666 -23 LINE",
"617 11 OFFCURVE",
"558 39 OFFCURVE",
"479 39 CURVE"
);
},
{
closed = 1;
nodes = (
"464 623 OFFCURVE",
"536 542 OFFCURVE",
"536 344 CURVE SMOOTH",
"536 144 OFFCURVE",
"462 66 OFFCURVE",
"346 66 CURVE SMOOTH",
"234 66 OFFCURVE",
"156 144 OFFCURVE",
"156 343 CURVE SMOOTH",
"156 542 OFFCURVE",
"231 623 OFFCURVE",
"346 623 CURVE SMOOTH"
);
}
);
width = 691;
}
);
leftKerningGroup = O;
leftMetricsKey = O;
rightKerningGroup = O;
unicode = 0051;
},
{
color = 4;
glyphname = R;
lastChange = "2015-10-06 10:06:16 +0000";
layers = (
{
anchors = (
{
name = bottom;
position = "{312, 0}";
},
{
name = top;
position = "{312, 696}";
}
);
layerId = UUID0;
paths = (
{
closed = 1;
nodes = (
"43 696 LINE",
"43 0 LINE",
"249 0 LINE",
"249 555 LINE",
"293 555 LINE SMOOTH",
"354 555 OFFCURVE",
"387 530 OFFCURVE",
"387 475 CURVE SMOOTH",
"387 414 OFFCURVE",
"359 386 OFFCURVE",
"303 386 CURVE SMOOTH",
"233 386 LINE",
"233 248 LINE",
"401 248 LINE",
"537 311 OFFCURVE",
"597 365 OFFCURVE",
"597 475 CURVE SMOOTH",
"597 628 OFFCURVE",
"497 696 OFFCURVE",
"298 696 CURVE SMOOTH"
);
},
{
closed = 1;
nodes = (
"280 262 LINE",
"416 0 LINE",
"644 0 LINE",
"466 300 LINE"
);
}
);
width = 624;
},
{
anchors = (
{
name = bottom;
position = "{305, 0}";
},
{
name = top;
position = "{290, 682}";
}
);
layerId = "BCC09A48-EAE1-493E-95CB-92D2C26BC05D";
paths = (
{
closed = 1;
nodes = (
"120 682 LINE",
"120 0 LINE",
"151 0 LINE",
"151 653 LINE",
"270 653 LINE SMOOTH",
"417 653 OFFCURVE",
"470 599 OFFCURVE",
"470 503 CURVE SMOOTH",
"470 397 OFFCURVE",
"400 349 OFFCURVE",
"280 349 CURVE SMOOTH",
"144 349 LINE",
"144 320 LINE",
"316 320 LINE",
"426 336 OFFCURVE",
"502 385 OFFCURVE",
"502 503 CURVE SMOOTH",
"502 618 OFFCURVE",
"433 682 OFFCURVE",
"274 682 CURVE SMOOTH"
);
},
{
closed = 1;
nodes = (
"309 327 LINE",
"498 0 LINE",
"537 0 LINE",
"343 332 LINE"
);
}
);
width = 577;
},
{
anchors = (
{
name = bottom;
position = "{309, 0}";
},
{
name = top;
position = "{299, 689}";
}
);
layerId = "A11F629A-ECF3-413E-B2EC-6C6F8C33A243";
paths = (
{
closed = 1;
nodes = (
"100 689 LINE",
"100 0 LINE",
"195 0 LINE",
"195 615 LINE",
"280 615 LINE SMOOTH",
"393 615 OFFCURVE",
"442 580 OFFCURVE",
"442 494 CURVE SMOOTH",
"442 401 OFFCURVE",
"387 365 OFFCURVE",
"291 365 CURVE SMOOTH",
"179 365 LINE",
"179 292 LINE",
"309 292 LINE",
"464 312 OFFCURVE",
"543 372 OFFCURVE",
"543 494 CURVE SMOOTH",
"543 623 OFFCURVE",
"453 689 OFFCURVE",
"281 689 CURVE SMOOTH"
);
},
{
closed = 1;
nodes = (
"294 306 LINE",
"467 0 LINE",
"580 0 LINE",
"389 317 LINE"
);
}
);
width = 605;
}
);
leftKerningGroup = H;
leftMetricsKey = H;
rightKerningGroup = R;
unicode = 0052;
},
{
color = 4;
glyphname = S;
lastChange = "2015-10-06 10:07:13 +0000";
layers = (
{
anchors = (
{
name = bottom;
position = "{293, 0}";
},
{
name = top;
position = "{307, 696}";
}
);
layerId = UUID0;
paths = (
{
closed = 1;
nodes = (
"145 716 OFFCURVE",
"29 635 OFFCURVE",
"29 503 CURVE SMOOTH",
"29 402 OFFCURVE",
"78 331 OFFCURVE",
"246 278 CURVE SMOOTH",
"337 250 OFFCURVE",
"359 232 OFFCURVE",
"359 191 CURVE SMOOTH",
"359 155 OFFCURVE",
"332 128 OFFCURVE",
"272 128 CURVE SMOOTH",
"207 128 OFFCURVE",
"151 153 OFFCURVE",
"101 196 CURVE",
"0 85 LINE",
"57 30 OFFCURVE",
"147 -20 OFFCURVE",
"280 -20 CURVE SMOOTH",
"463 -20 OFFCURVE",
"573 74 OFFCURVE",
"573 208 CURVE SMOOTH",
"573 333 OFFCURVE",
"509 395 OFFCURVE",
"366 441 CURVE SMOOTH",
"267 473 OFFCURVE",
"241 484 OFFCURVE",
"241 520 CURVE SMOOTH",
"241 551 OFFCURVE",
"266 570 OFFCURVE",
"316 570 CURVE SMOOTH",
"371 570 OFFCURVE",
"419 551 OFFCURVE",
"465 514 CURVE",
"556 621 LINE",
"493 682 OFFCURVE",
"411 716 OFFCURVE",
"299 716 CURVE SMOOTH"
);
}
);
width = 588;
},
{
anchors = (
{
name = bottom;
position = "{262, 0}";
},
{
name = top;
position = "{268, 682}";
}
);
layerId = "BCC09A48-EAE1-493E-95CB-92D2C26BC05D";
paths = (
{
closed = 1;
nodes = (
"151 692 OFFCURVE",
"77 623 OFFCURVE",
"77 533 CURVE SMOOTH",
"77 442 OFFCURVE",
"126 397 OFFCURVE",
"265 354 CURVE SMOOTH",
"391 315 OFFCURVE",
"438 278 OFFCURVE",
"438 182 CURVE SMOOTH",
"438 82 OFFCURVE",
"365 19 OFFCURVE",
"256 19 CURVE SMOOTH",
"172 19 OFFCURVE",
"119 49 OFFCURVE",
"70 94 CURVE",
"50 73 LINE",
"105 23 OFFCURVE",
"168 -10 OFFCURVE",
"257 -10 CURVE SMOOTH",
"381 -10 OFFCURVE",
"469 68 OFFCURVE",
"469 183 CURVE SMOOTH",
"469 295 OFFCURVE",
"410 340 OFFCURVE",
"275 381 CURVE SMOOTH",
"154 418 OFFCURVE",
"108 452 OFFCURVE",
"108 533 CURVE SMOOTH",
"108 609 OFFCURVE",
"169 663 OFFCURVE",
"265 663 CURVE SMOOTH",
"333 663 OFFCURVE",
"378 644 OFFCURVE",
"428 598 CURVE",
"448 620 LINE",
"398 664 OFFCURVE",
"349 692 OFFCURVE",
"265 692 CURVE SMOOTH"
);
}
);
width = 534;
},
{
anchors = (
{
name = bottom;
position = "{267, 0}";
},
{
name = top;
position = "{276, 689}";
}
);
layerId = "A11F629A-ECF3-413E-B2EC-6C6F8C33A243";
paths = (
{
closed = 1;
nodes = (
"143 701 OFFCURVE",
"53 627 OFFCURVE",
"53 521 CURVE SMOOTH",
"53 414 OFFCURVE",
"123 363 OFFCURVE",
"257 322 CURVE SMOOTH",
"374 286 OFFCURVE",
"406 256 OFFCURVE",
"406 189 CURVE SMOOTH",
"406 106 OFFCURVE",
"339 66 OFFCURVE",
"258 66 CURVE SMOOTH",
"183 66 OFFCURVE",
"129 93 OFFCURVE",
"77 135 CURVE",
"25 77 LINE",
"82 21 OFFCURVE",
"160 -12 OFFCURVE",
"259 -12 CURVE SMOOTH",
"414 -12 OFFCURVE",
"505 72 OFFCURVE",
"505 192 CURVE SMOOTH",
"505 324 OFFCURVE",
"411 367 OFFCURVE",
"301 401 CURVE SMOOTH",
"177 439 OFFCURVE",
"150 467 OFFCURVE",
"150 525 CURVE SMOOTH",
"150 591 OFFCURVE",
"205 623 OFFCURVE",
"274 623 CURVE SMOOTH",
"331 623 OFFCURVE",
"379 605 OFFCURVE",
"431 563 CURVE",
"483 621 LINE",
"425 673 OFFCURVE",
"365 701 OFFCURVE",
"270 701 CURVE SMOOTH"
);
}
);
width = 545;
}
);
leftKerningGroup = S;
rightKerningGroup = S;
unicode = 0053;
},
{
color = 7;
glyphname = Scedilla;
lastChange = "2015-11-23 13:55:43 +0000";
layers = (
{
background = {
paths = (
{
closed = 1;
nodes = (
"318 -167 OFFCURVE",
"301 -173 OFFCURVE",
"271 -173 CURVE SMOOTH",
"249 -173 OFFCURVE",
"229 -166 OFFCURVE",
"209 -155 CURVE",
"166 -241 LINE",
"193 -258 OFFCURVE",
"239 -275 OFFCURVE",
"291 -275 CURVE SMOOTH",
"396 -275 OFFCURVE",
"455 -220 OFFCURVE",
"455 -151 CURVE SMOOTH",
"455 -89 OFFCURVE",
"418 -52 OFFCURVE",
"345 -43 CURVE",
"345 -15 LINE",
"487 5 OFFCURVE",
"571 91 OFFCURVE",
"571 209 CURVE SMOOTH",
"571 333 OFFCURVE",
"507 394 OFFCURVE",
"364 441 CURVE SMOOTH",
"267 473 OFFCURVE",
"246 484 OFFCURVE",
"246 520 CURVE SMOOTH",
"246 551 OFFCURVE",
"273 570 OFFCURVE",
"327 570 CURVE SMOOTH",
"378 570 OFFCURVE",
"427 551 OFFCURVE",
"473 514 CURVE",
"564 621 LINE",
"501 682 OFFCURVE",
"417 716 OFFCURVE",
"308 716 CURVE SMOOTH",
"161 716 OFFCURVE",
"32 643 OFFCURVE",
"32 503 CURVE SMOOTH",
"32 402 OFFCURVE",
"76 331 OFFCURVE",
"249 277 CURVE SMOOTH",
"335 250 OFFCURVE",
"357 232 OFFCURVE",
"357 191 CURVE SMOOTH",
"357 156 OFFCURVE",
"330 128 OFFCURVE",
"270 128 CURVE SMOOTH",
"205 128 OFFCURVE",
"143 153 OFFCURVE",
"91 198 CURVE",
"-10 87 LINE",
"41 36 OFFCURVE",
"124 -9 OFFCURVE",
"236 -18 CURVE",
"224 -120 LINE",
"289 -120 OFFCURVE",
"318 -127 OFFCURVE",
"318 -148 CURVE SMOOTH"
);
}
);
};
components = (
{
name = S;
},
{
name = cedillacomb.case;
transform = "{1, 0, 0, 1, 133, 0}";
}
);
layerId = UUID0;
width = 588;
},
{
components = (
{
name = S;
},
{
name = cedillacomb.case;
transform = "{1, 0, 0, 1, 166, 0}";
}
);
layerId = "BCC09A48-EAE1-493E-95CB-92D2C26BC05D";
width = 534;
},
{
background = {
paths = (
{
closed = 1;
nodes = (
"311 -170 OFFCURVE",
"287 -181 OFFCURVE",
"251 -181 CURVE SMOOTH",
"230 -181 OFFCURVE",
"204 -175 OFFCURVE",
"185 -165 CURVE",
"157 -216 LINE",
"183 -231 OFFCURVE",
"222 -241 OFFCURVE",
"263 -241 CURVE SMOOTH",
"330 -241 OFFCURVE",
"388 -207 OFFCURVE",
"388 -141 CURVE SMOOTH",
"388 -100 OFFCURVE",
"360 -62 OFFCURVE",
"294 -56 CURVE",
"294 -11 LINE",
"432 -1 OFFCURVE",
"507 79 OFFCURVE",
"507 192 CURVE SMOOTH",
"507 324 OFFCURVE",
"415 367 OFFCURVE",
"305 401 CURVE SMOOTH",
"181 439 OFFCURVE",
"152 467 OFFCURVE",
"152 525 CURVE SMOOTH",
"152 591 OFFCURVE",
"207 623 OFFCURVE",
"276 623 CURVE SMOOTH",
"334 623 OFFCURVE",
"383 605 OFFCURVE",
"431 561 CURVE",
"485 621 LINE",
"429 673 OFFCURVE",
"368 701 OFFCURVE",
"272 701 CURVE SMOOTH",
"143 701 OFFCURVE",
"55 627 OFFCURVE",
"55 521 CURVE SMOOTH",
"55 414 OFFCURVE",
"126 361 OFFCURVE",
"260 320 CURVE SMOOTH",
"376 284 OFFCURVE",
"408 254 OFFCURVE",
"408 189 CURVE SMOOTH",
"408 106 OFFCURVE",
"341 66 OFFCURVE",
"260 66 CURVE SMOOTH",
"183 66 OFFCURVE",
"129 93 OFFCURVE",
"82 138 CURVE",
"27 77 LINE",
"78 27 OFFCURVE",
"145 -5 OFFCURVE",
"231 -11 CURVE",
"224 -99 LINE",
"278 -99 OFFCURVE",
"311 -106 OFFCURVE",
"311 -141 CURVE SMOOTH"
);
}
);
};
components = (
{
name = S;
},
{
name = cedillacomb.case;
transform = "{1, 0, 0, 1, 145, 0}";
}
);
layerId = "A11F629A-ECF3-413E-B2EC-6C6F8C33A243";
width = 545;
}
);
leftKerningGroup = S;
rightKerningGroup = S;
unicode = 015E;
},
{
color = 4;
glyphname = T;
lastChange = "2015-10-06 10:07:58 +0000";
layers = (
{
anchors = (
{
name = bottom;
position = "{277, 0}";
},
{
name = bottomright;
position = "{390, 0}";
},
{
name = center;
position = "{277, 348}";
},
{
name = top;
position = "{277, 696}";
}
);
background = {
paths = (
{
closed = 1;
nodes = (
"5 696 LINE",
"5 542 LINE",
"174 542 LINE",
"174 0 LINE",
"380 0 LINE",
"380 542 LINE",
"538 542 LINE",
"559 696 LINE"
);
}
);
};
layerId = UUID0;
paths = (
{
closed = 1;
nodes = (
"5 696 LINE",
"5 542 LINE",
"174 542 LINE",
"174 0 LINE",
"380 0 LINE",
"380 542 LINE",
"538 542 LINE",
"559 696 LINE"
);
}
);
width = 554;
},
{
anchors = (
{
name = bottom;
position = "{239, 0}";
},
{
name = bottomright;
position = "{264, 0}";
},
{
name = center;
position = "{239, 348}";
},
{
name = top;
position = "{239, 682}";
}
);
layerId = "BCC09A48-EAE1-493E-95CB-92D2C26BC05D";
paths = (
{
closed = 1;
nodes = (
"15 682 LINE",
"15 652 LINE",
"223 652 LINE",
"223 0 LINE",
"254 0 LINE",
"254 652 LINE",
"462 652 LINE",
"467 682 LINE"
);
}
);
width = 477;
},
{
anchors = (
{
name = bottom;
position = "{259, 0}";
},
{
name = bottomright;
position = "{316, 0}";
},
{
name = center;
position = "{259, 345}";
},
{
name = top;
position = "{259, 689}";
}
);
layerId = "A11F629A-ECF3-413E-B2EC-6C6F8C33A243";
paths = (
{
closed = 1;
nodes = (
"15 689 LINE",
"15 608 LINE",
"211 608 LINE",
"211 0 LINE",
"306 0 LINE",
"306 608 LINE",
"497 608 LINE",
"507 689 LINE"
);
}
);
width = 517;
}
);
leftKerningGroup = T;
rightKerningGroup = T;
unicode = 0054;
},
{
color = 4;
glyphname = Tbar;
lastChange = "2015-11-06 11:08:26 +0000";
layers = (
{
background = {
paths = (
{
closed = 1;
nodes = (
"489 391 LINE",
"380 391 LINE",
"380 542 LINE",
"538 542 LINE",
"559 696 LINE",
"5 696 LINE",
"5 542 LINE",
"174 542 LINE",
"174 391 LINE",
"64 391 LINE",
"64 285 LINE",
"174 285 LINE",
"174 0 LINE",
"380 0 LINE",
"380 285 LINE",
"489 285 LINE"
);
}
);
};
components = (
{
name = T;
}
);
layerId = UUID0;
paths = (
{
closed = 1;
nodes = (
"64 391 LINE",
"64 285 LINE",
"174 285 LINE",
"489 285 LINE",
"489 391 LINE"
);
}
);
width = 554;
},
{
background = {
paths = (
{
closed = 1;
nodes = (
"23 682 LINE",
"23 652 LINE",
"228 652 LINE",
"228 414 LINE",
"104 414 LINE",
"104 382 LINE",
"228 382 LINE",
"228 0 LINE",
"259 0 LINE",
"259 382 LINE",
"383 382 LINE",
"383 414 LINE",
"259 414 LINE",
"259 652 LINE",
"460 652 LINE",
"465 682 LINE"
);
}
);
};
components = (
{
name = T;
}
);
layerId = "BCC09A48-EAE1-493E-95CB-92D2C26BC05D";
paths = (
{
closed = 1;
nodes = (
"99 382 LINE",
"99 354 LINE",
"223 354 LINE",
"378 354 LINE",
"378 382 LINE"
);
}
);
width = 477;
},
{
components = (
{
name = T;
transform = "{1, 0, 0, 1, 0, -2}";
}
);
layerId = "A11F629A-ECF3-413E-B2EC-6C6F8C33A243";
paths = (
{
closed = 1;
nodes = (
"88 387 LINE",
"88 317 LINE",
"211 317 LINE",
"431 317 LINE",
"431 387 LINE"
);
}
);
width = 517;
}
);
leftKerningGroup = T;
leftMetricsKey = T;
rightKerningGroup = T;
rightMetricsKey = T;
unicode = 0166;
},
{
color = 7;
glyphname = Tcedilla;
lastChange = "2015-09-28 10:13:32 +0000";
layers = (
{
background = {
paths = (
{
closed = 1;
nodes = (
"353 -167 OFFCURVE",
"336 -173 OFFCURVE",
"306 -173 CURVE SMOOTH",
"284 -173 OFFCURVE",
"264 -166 OFFCURVE",
"244 -155 CURVE",
"201 -241 LINE",
"228 -258 OFFCURVE",
"274 -275 OFFCURVE",
"326 -275 CURVE SMOOTH",
"431 -275 OFFCURVE",
"490 -220 OFFCURVE",
"490 -151 CURVE SMOOTH",
"490 -89 OFFCURVE",
"453 -52 OFFCURVE",
"380 -43 CURVE",
"380 542 LINE",
"538 542 LINE",
"559 696 LINE",
"5 696 LINE",
"5 542 LINE",
"174 542 LINE",
"174 0 LINE",
"274 0 LINE",
"259 -120 LINE",
"324 -120 OFFCURVE",
"353 -127 OFFCURVE",
"353 -148 CURVE SMOOTH"
);
},
{
closed = 1;
nodes = (
"353 -167 OFFCURVE",
"336 -173 OFFCURVE",
"306 -173 CURVE SMOOTH",
"284 -173 OFFCURVE",
"264 -166 OFFCURVE",
"244 -155 CURVE",
"201 -241 LINE",
"228 -258 OFFCURVE",
"274 -275 OFFCURVE",
"326 -275 CURVE SMOOTH",
"431 -275 OFFCURVE",
"490 -220 OFFCURVE",
"490 -151 CURVE SMOOTH",
"490 -89 OFFCURVE",
"453 -52 OFFCURVE",
"380 -43 CURVE",
"380 542 LINE",
"538 542 LINE",
"559 696 LINE",
"5 696 LINE",
"5 542 LINE",
"174 542 LINE",
"174 0 LINE",
"274 0 LINE",
"259 -120 LINE",
"324 -120 OFFCURVE",
"353 -127 OFFCURVE",
"353 -148 CURVE SMOOTH"
);
}
);
};
components = (
{
name = T;
},
{
name = cedillaTcedilla;
transform = "{1, 0, 0, 1, 171, 0}";
}
);
layerId = UUID0;
width = 554;
},
{
components = (
{
name = T;
},
{
name = cedillaTcedilla;
transform = "{1, 0, 0, 1, 154, 0}";
}
);
layerId = "BCC09A48-EAE1-493E-95CB-92D2C26BC05D";
width = 477;
},
{
components = (
{
name = T;
},
{
name = cedillaTcedilla;
transform = "{1, 0, 0, 1, 157, 0}";
}
);
layerId = "A11F629A-ECF3-413E-B2EC-6C6F8C33A243";
width = 517;
}
);
leftKerningGroup = T;
rightKerningGroup = T;
unicode = 0162;
},
{
color = 4;
glyphname = U;
lastChange = "2015-10-06 10:08:29 +0000";
layers = (
{
anchors = (
{
name = bottom;
position = "{322, 0}";
},
{
name = ogonek;
position = "{460, 0}";
},
{
name = top;
position = "{322, 696}";
},
{
name = topright;
position = "{621, 696}";
}
);
layerId = UUID0;
paths = (
{
closed = 1;
nodes = (
"405 696 LINE",
"405 242 LINE SMOOTH",
"405 165 OFFCURVE",
"382 128 OFFCURVE",
"322 128 CURVE SMOOTH",
"262 128 OFFCURVE",
"239 165 OFFCURVE",
"239 242 CURVE SMOOTH",
"239 696 LINE",
"33 696 LINE",
"33 236 LINE SMOOTH",
"33 84 OFFCURVE",
"126 -20 OFFCURVE",
"322 -20 CURVE SMOOTH",
"518 -20 OFFCURVE",
"611 94 OFFCURVE",
"611 236 CURVE SMOOTH",
"611 696 LINE"
);
}
);
width = 644;
},
{
anchors = (
{
name = bottom;
position = "{322, 0}";
},
{
name = ogonek;
position = "{407, 0}";
},
{
name = top;
position = "{322, 682}";
},
{
name = topright;
position = "{543, 682}";
}
);
layerId = "BCC09A48-EAE1-493E-95CB-92D2C26BC05D";
paths = (
{
closed = 1;
nodes = (
"502 682 LINE",
"502 211 LINE SMOOTH",
"502 100 OFFCURVE",
"451 19 OFFCURVE",
"322 19 CURVE SMOOTH",
"194 19 OFFCURVE",
"141 97 OFFCURVE",
"141 211 CURVE SMOOTH",
"141 682 LINE",
"110 682 LINE",
"110 208 LINE SMOOTH",
"110 81 OFFCURVE",
"174 -10 OFFCURVE",
"322 -10 CURVE SMOOTH",
"469 -10 OFFCURVE",
"533 81 OFFCURVE",
"533 208 CURVE SMOOTH",
"533 682 LINE"
);
}
);
width = 643;
},
{
anchors = (
{
name = bottom;
position = "{331, 0}";
},
{
name = ogonek;
position = "{428, 0}";
},
{
name = top;
position = "{331, 689}";
},
{
name = topright;
position = "{582, 689}";
}
);
layerId = "A11F629A-ECF3-413E-B2EC-6C6F8C33A243";
paths = (
{
closed = 1;
nodes = (
"476 689 LINE",
"476 228 LINE SMOOTH",
"476 121 OFFCURVE",
"429 68 OFFCURVE",
"330 68 CURVE SMOOTH",
"232 68 OFFCURVE",
"185 121 OFFCURVE",
"185 228 CURVE SMOOTH",
"185 689 LINE",
"90 689 LINE",
"90 221 LINE SMOOTH",
"90 84 OFFCURVE",
"173 -12 OFFCURVE",
"330 -12 CURVE SMOOTH",
"485 -12 OFFCURVE",
"572 84 OFFCURVE",
"572 221 CURVE SMOOTH",
"572 689 LINE"
);
}
);
width = 662;
}
);
leftKerningGroup = U;
leftMetricsKey = "=H-10";
rightKerningGroup = U;
rightMetricsKey = "=H-10";
unicode = 0055;
},
{
color = 7;
glyphname = Uogonek;
lastChange = "2015-10-06 10:49:47 +0000";
layers = (
{
background = {
paths = (
{
closed = 1;
nodes = (
"228 -220 OFFCURVE",
"291 -267 OFFCURVE",
"382 -267 CURVE SMOOTH",
"426 -267 OFFCURVE",
"471 -255 OFFCURVE",
"504 -238 CURVE",
"468 -148 LINE",
"453 -155 OFFCURVE",
"426 -162 OFFCURVE",
"401 -162 CURVE SMOOTH",
"371 -162 OFFCURVE",
"355 -141 OFFCURVE",
"355 -114 CURVE SMOOTH",
"355 -81 OFFCURVE",
"372 -42 OFFCURVE",
"447 -1 CURVE",
"558 37 OFFCURVE",
"611 128 OFFCURVE",
"611 236 CURVE SMOOTH",
"611 696 LINE",
"405 696 LINE",
"405 242 LINE SMOOTH",
"405 165 OFFCURVE",
"382 128 OFFCURVE",
"322 128 CURVE SMOOTH",
"262 128 OFFCURVE",
"239 165 OFFCURVE",
"239 242 CURVE SMOOTH",
"239 696 LINE",
"33 696 LINE",
"33 236 LINE SMOOTH",
"33 85 OFFCURVE",
"124 -17 OFFCURVE",
"315 -20 CURVE",
"259 -50 OFFCURVE",
"228 -90 OFFCURVE",
"228 -140 CURVE SMOOTH"
);
}
);
};
components = (
{
name = U;
},
{
name = ogonek.thin;
transform = "{1, 0, 0, 1, 199, 0}";
}
);
layerId = UUID0;
width = 644;
},
{
components = (
{
name = U;
},
{
name = ogonek.thin;
transform = "{1, 0, 0, 1, 245, 0}";
}
);
layerId = "BCC09A48-EAE1-493E-95CB-92D2C26BC05D";
width = 643;
},
{
components = (
{
name = U;
},
{
name = ogonek.thin;
transform = "{1, 0, 0, 1, 220, 0}";
}
);
layerId = "A11F629A-ECF3-413E-B2EC-6C6F8C33A243";
width = 662;
}
);
leftKerningGroup = U;
rightKerningGroup = U;
unicode = 0172;
},
{
color = 4;
glyphname = V;
lastChange = "2015-10-06 10:09:59 +0000";
layers = (
{
anchors = (
{
name = bottom;
position = "{289.5, 0}";
},
{
name = top;
position = "{289.5, 696}";
}
);
layerId = UUID0;
paths = (
{
closed = 1;
nodes = (
"393 696 LINE",
"298 143 LINE",
"192 696 LINE",
"-25 696 LINE",
"162 0 LINE",
"428 0 LINE",
"604 696 LINE"
);
}
);
width = 579;
},
{
anchors = (
{
name = bottom;
position = "{269, 0}";
},
{
name = top;
position = "{269, 682}";
}
);
layerId = "BCC09A48-EAE1-493E-95CB-92D2C26BC05D";
paths = (
{
closed = 1;
nodes = (
"480 682 LINE",
"269 29 LINE",
"58 682 LINE",
"25 682 LINE",
"249 0 LINE",
"288 0 LINE",
"513 682 LINE"
);
}
);
width = 538;
},
{
anchors = (
{
name = bottom;
position = "{278, 0}";
},
{
name = top;
position = "{278, 689}";
}
);
layerId = "A11F629A-ECF3-413E-B2EC-6C6F8C33A243";
paths = (
{
closed = 1;
nodes = (
"454 689 LINE",
"281 103 LINE",
"108 689 LINE",
"6 689 LINE",
"228 0 LINE",
"330 0 LINE",
"550 689 LINE"
);
}
);
width = 556;
}
);
leftKerningGroup = V;
leftMetricsKey = A;
rightKerningGroup = V;
rightMetricsKey = A;
unicode = 0056;
},
{
color = 4;
glyphname = W;
lastChange = "2015-10-06 10:11:35 +0000";
layers = (
{
anchors = (
{
name = bottom;
position = "{429.5, 0}";
},
{
name = top;
position = "{432, 696}";
}
);
layerId = UUID0;
paths = (
{
closed = 1;
nodes = (
"661 696 LINE",
"601 149 LINE",
"539 696 LINE",
"324 696 LINE",
"250 149 LINE",
"206 696 LINE",
"0 696 LINE",
"97 0 LINE",
"359 0 LINE",
"428 500 LINE",
"490 0 LINE",
"758 0 LINE",
"859 696 LINE"
);
}
);
width = 859;
},
{
anchors = (
{
name = bottom;
position = "{398, 0}";
},
{
name = top;
position = "{398, 682}";
}
);
layerId = "BCC09A48-EAE1-493E-95CB-92D2C26BC05D";
paths = (
{
closed = 1;
nodes = (
"729 682 LINE",
"584 32 LINE",
"417 682 LINE",
"379 682 LINE",
"214 32 LINE",
"68 682 LINE",
"35 682 LINE",
"194 0 LINE",
"230 0 LINE",
"398 652 LINE",
"566 0 LINE",
"602 0 LINE",
"761 682 LINE"
);
}
);
width = 796;
},
{
anchors = (
{
name = bottom;
position = "{413, 0}";
},
{
name = top;
position = "{413, 689}";
}
);
layerId = "A11F629A-ECF3-413E-B2EC-6C6F8C33A243";
paths = (
{
closed = 1;
nodes = (
"714 689 LINE",
"599 83 LINE",
"463 689 LINE",
"362 689 LINE",
"229 83 LINE",
"118 689 LINE",
"25 689 LINE",
"165 0 LINE",
"284 0 LINE",
"412 577 LINE",
"539 0 LINE",
"661 0 LINE",
"801 689 LINE"
);
}
);
width = 826;
}
);
leftKerningGroup = W;
rightKerningGroup = W;
unicode = 0057;
},
{
color = 4;
glyphname = X;
lastChange = "2015-09-30 07:09:13 +0000";
layers = (
{
anchors = (
{
name = bottom;
position = "{303, 0}";
},
{
name = bottomright;
position = "{546, 0}";
},
{
name = top;
position = "{303, 696}";
}
);
layerId = UUID0;
paths = (
{
closed = 1;
nodes = (
"3 696 LINE",
"176 369 LINE",
"298 239 LINE",
"394 0 LINE",
"616 0 LINE",
"422 375 LINE",
"300 496 LINE",
"224 696 LINE"
);
},
{
closed = 1;
nodes = (
"385 696 LINE",
"300 496 LINE",
"176 369 LINE",
"-10 0 LINE",
"208 0 LINE",
"298 239 LINE",
"422 375 LINE",
"602 696 LINE"
);
}
);
width = 606;
},
{
anchors = (
{
name = bottom;
position = "{244.5, 0}";
},
{
name = bottomright;
position = "{453, 0}";
},
{
name = top;
position = "{244.5, 682}";
}
);
layerId = "BCC09A48-EAE1-493E-95CB-92D2C26BC05D";
paths = (
{
closed = 1;
nodes = (
"37 682 LINE",
"225 369 LINE",
"243 350 LINE",
"443 0 LINE",
"478 0 LINE",
"261 370 LINE",
"243 388 LINE",
"72 682 LINE"
);
},
{
closed = 1;
nodes = (
"412 682 LINE",
"243 388 LINE",
"225 369 LINE",
"15 0 LINE",
"49 0 LINE",
"243 350 LINE",
"261 370 LINE",
"446 682 LINE"
);
}
);
width = 493;
},
{
anchors = (
{
name = bottom;
position = "{270, 0}";
},
{
name = bottomright;
position = "{486, 0}";
},
{
name = top;
position = "{270, 689}";
}
);
layerId = "A11F629A-ECF3-413E-B2EC-6C6F8C33A243";
paths = (
{
closed = 1;
nodes = (
"23 689 LINE",
"212 367 LINE",
"268 305 LINE",
"427 0 LINE",
"535 0 LINE",
"325 372 LINE",
"270 430 LINE",
"131 689 LINE"
);
},
{
closed = 1;
nodes = (
"410 689 LINE",
"270 430 LINE",
"212 367 LINE",
"5 0 LINE",
"107 0 LINE",
"268 305 LINE",
"325 372 LINE",
"512 689 LINE"
);
}
);
width = 540;
}
);
leftKerningGroup = X;
rightKerningGroup = X;
unicode = 0058;
},
{
color = 4;
glyphname = Y;
lastChange = "2015-11-23 14:13:13 +0000";
layers = (
{
anchors = (
{
name = bottom;
position = "{310, 0}";
},
{
name = top;
position = "{310, 696}";
},
{
name = topleft;
position = "{-10, 696}";
}
);
layerId = UUID0;
paths = (
{
closed = 1;
nodes = (
"417 696 LINE",
"313 412 LINE",
"210 696 LINE",
"-15 696 LINE",
"207 256 LINE",
"207 0 LINE",
"413 0 LINE",
"413 257 LINE",
"635 696 LINE"
);
}
);
width = 620;
},
{
anchors = (
{
name = bottom;
position = "{252, 0}";
},
{
name = top;
position = "{250, 682}";
},
{
name = topleft;
position = "{15, 682}";
}
);
layerId = "BCC09A48-EAE1-493E-95CB-92D2C26BC05D";
paths = (
{
closed = 1;
nodes = (
"445 682 LINE",
"252 297 LINE",
"55 682 LINE",
"20 682 LINE",
"236 270 LINE",
"236 0 LINE",
"267 0 LINE",
"267 271 LINE",
"480 682 LINE"
);
}
);
width = 500;
},
{
anchors = (
{
name = bottom;
position = "{275, 0}";
},
{
name = top;
position = "{275, 689}";
},
{
name = topleft;
position = "{5, 689}";
}
);
layerId = "A11F629A-ECF3-413E-B2EC-6C6F8C33A243";
paths = (
{
closed = 1;
nodes = (
"446 689 LINE",
"278 348 LINE",
"110 689 LINE",
"5 689 LINE",
"227 264 LINE",
"227 0 LINE",
"323 0 LINE",
"323 265 LINE",
"545 689 LINE"
);
}
);
width = 550;
}
);
leftKerningGroup = Y;
rightKerningGroup = Y;
unicode = 0059;
},
{
color = 4;
glyphname = Z;
lastChange = "2015-10-06 10:13:08 +0000";
layers = (
{
anchors = (
{
name = bottom;
position = "{268, 0}";
},
{
name = top;
position = "{279, 696}";
}
);
layerId = UUID0;
paths = (
{
closed = 1;
nodes = (
"38 696 LINE",
"38 540 LINE",
"296 540 LINE",
"10 151 LINE",
"10 0 LINE",
"522 0 LINE",
"542 161 LINE",
"256 161 LINE",
"533 543 LINE",
"533 696 LINE"
);
}
);
width = 557;
},
{
anchors = (
{
name = bottom;
position = "{258, 0}";
},
{
name = top;
position = "{256, 682}";
}
);
layerId = "BCC09A48-EAE1-493E-95CB-92D2C26BC05D";
paths = (
{
closed = 1;
nodes = (
"78 682 LINE",
"78 653 LINE",
"425 653 LINE",
"40 28 LINE",
"40 0 LINE",
"445 0 LINE",
"449 30 LINE",
"77 30 LINE",
"461 655 LINE",
"461 682 LINE"
);
}
);
width = 511;
},
{
anchors = (
{
name = bottom;
position = "{258, 0}";
},
{
name = top;
position = "{272, 689}";
}
);
layerId = "A11F629A-ECF3-413E-B2EC-6C6F8C33A243";
paths = (
{
closed = 1;
nodes = (
"66 689 LINE",
"66 609 LINE",
"374 609 LINE",
"30 76 LINE",
"30 0 LINE",
"466 0 LINE",
"477 81 LINE",
"136 81 LINE",
"477 612 LINE",
"477 689 LINE"
);
}
);
width = 522;
}
);
leftKerningGroup = Z;
rightKerningGroup = Z;
unicode = 005A;
},
{
export = 0;
glyphname = "Alpha-latin";
lastChange = "2015-11-20 10:13:18 +0000";
layers = (
{
anchors = (
{
name = bottom;
position = "{333, 0}";
},
{
name = top;
position = "{333, 682}";
}
);
background = {
paths = (
{
closed = 1;
nodes = (
"412 -10 OFFCURVE",
"481 22 OFFCURVE",
"527 90 CURVE",
"520 121 LINE",
"479 54 OFFCURVE",
"413 19 OFFCURVE",
"330 19 CURVE SMOOTH",
"205 19 OFFCURVE",
"107 122 OFFCURVE",
"107 329 CURVE SMOOTH",
"107 554 OFFCURVE",
"204 663 OFFCURVE",
"335 663 CURVE",
"413 663 OFFCURVE",
"477 631 OFFCURVE",
"519 567 CURVE",
"527 597 LINE",
"480 663 OFFCURVE",
"414 692 OFFCURVE",
"335 692 CURVE SMOOTH",
"186 692 OFFCURVE",
"75 565 OFFCURVE",
"75 329 CURVE SMOOTH",
"75 107 OFFCURVE",
"185 -10 OFFCURVE",
"330 -10 CURVE SMOOTH"
);
},
{
closed = 1;
nodes = (
"542 0 LINE",
"542 682 LINE",
"515 682 LINE",
"511 586 LINE",
"511 96 LINE",
"515 0 LINE"
);
}
);
};
layerId = "BCC09A48-EAE1-493E-95CB-92D2C26BC05D";
paths = (
{
closed = 1;
nodes = (
"422 -10 OFFCURVE",
"482 32 OFFCURVE",
"527 100 CURVE",
"520 131 LINE",
"479 64 OFFCURVE",
"418 19 OFFCURVE",
"333 19 CURVE SMOOTH",
"208 19 OFFCURVE",
"107 122 OFFCURVE",
"107 329 CURVE SMOOTH",
"107 554 OFFCURVE",
"207 663 OFFCURVE",
"340 663 CURVE SMOOTH",
"413 663 OFFCURVE",
"477 631 OFFCURVE",
"519 567 CURVE",
"527 597 LINE",
"480 663 OFFCURVE",
"414 692 OFFCURVE",
"340 692 CURVE SMOOTH",
"189 692 OFFCURVE",
"75 565 OFFCURVE",
"75 329 CURVE SMOOTH",
"75 107 OFFCURVE",
"188 -10 OFFCURVE",
"333 -10 CURVE SMOOTH"
);
},
{
closed = 1;
nodes = (
"590 21 LINE",
"557 35 OFFCURVE",
"542 49 OFFCURVE",
"542 105 CURVE SMOOTH",
"542 682 LINE",
"515 682 LINE",
"511 586 LINE",
"511 103 LINE",
"512 39 OFFCURVE",
"530 13 OFFCURVE",
"581 -5 CURVE"
);
}
);
width = 665;
},
{
anchors = (
{
name = bottom;
position = "{345, 0}";
},
{
name = top;
position = "{345, 689}";
}
);
background = {
paths = (
{
closed = 1;
nodes = (
"424 -12 OFFCURVE",
"492 37 OFFCURVE",
"529 111 CURVE",
"502 147 LINE",
"455 91 OFFCURVE",
"409 66 OFFCURVE",
"333 66 CURVE SMOOTH",
"229 66 OFFCURVE",
"156 135 OFFCURVE",
"156 323 CURVE SMOOTH",
"156 538 OFFCURVE",
"231 623 OFFCURVE",
"342 623 CURVE SMOOTH",
"416 623 OFFCURVE",
"465 596 OFFCURVE",
"503 544 CURVE",
"529 585 LINE",
"492 655 OFFCURVE",
"424 701 OFFCURVE",
"329 701 CURVE SMOOTH",
"177 701 OFFCURVE",
"55 567 OFFCURVE",
"55 323 CURVE SMOOTH",
"55 99 OFFCURVE",
"171 -12 OFFCURVE",
"324 -12 CURVE SMOOTH"
);
},
{
closed = 1;
nodes = (
"584 0 LINE",
"584 689 LINE",
"500 689 LINE",
"489 620 LINE",
"489 69 LINE",
"500 0 LINE"
);
}
);
};
layerId = "A11F629A-ECF3-413E-B2EC-6C6F8C33A243";
paths = (
{
closed = 1;
nodes = (
"424 -12 OFFCURVE",
"492 47 OFFCURVE",
"529 121 CURVE",
"502 157 LINE",
"455 101 OFFCURVE",
"409 66 OFFCURVE",
"333 66 CURVE SMOOTH",
"234 66 OFFCURVE",
"156 135 OFFCURVE",
"156 323 CURVE SMOOTH",
"156 538 OFFCURVE",
"231 623 OFFCURVE",
"342 623 CURVE SMOOTH",
"416 623 OFFCURVE",
"465 586 OFFCURVE",
"503 534 CURVE",
"529 575 LINE",
"492 645 OFFCURVE",
"424 701 OFFCURVE",
"332 701 CURVE SMOOTH",
"177 701 OFFCURVE",
"55 567 OFFCURVE",
"55 323 CURVE SMOOTH",
"55 99 OFFCURVE",
"177 -12 OFFCURVE",
"324 -12 CURVE SMOOTH"
);
},
{
closed = 1;
nodes = (
"630 60 LINE",
"597 75 OFFCURVE",
"584 90 OFFCURVE",
"584 142 CURVE SMOOTH",
"584 689 LINE",
"500 689 LINE",
"489 620 LINE",
"489 127 LINE SMOOTH",
"489 43 OFFCURVE",
"516 8 OFFCURVE",
"598 -12 CURVE"
);
}
);
width = 690;
},
{
anchors = (
{
name = bottom;
position = "{344, 0}";
},
{
name = top;
position = "{344, 696}";
}
);
background = {
paths = (
{
closed = 1;
nodes = (
"445 -20 OFFCURVE",
"490 89 OFFCURVE",
"544 211 CURVE",
"470 209 LINE",
"442 148 OFFCURVE",
"393 121 OFFCURVE",
"341 121 CURVE SMOOTH",
"268 121 OFFCURVE",
"230 173 OFFCURVE",
"230 329 CURVE SMOOTH",
"230 510 OFFCURVE",
"266 570 OFFCURVE",
"340 570 CURVE SMOOTH",
"388 570 OFFCURVE",
"416 551 OFFCURVE",
"437 527 CURVE",
"497 608 LINE",
"448 661 OFFCURVE",
"398 716 OFFCURVE",
"291 716 CURVE SMOOTH",
"132 716 OFFCURVE",
"16 575 OFFCURVE",
"16 329 CURVE SMOOTH",
"16 118 OFFCURVE",
"122 -20 OFFCURVE",
"291 -20 CURVE SMOOTH"
);
},
{
closed = 1;
nodes = (
"638 0 LINE",
"638 696 LINE",
"454 696 LINE",
"432 544 LINE",
"432 152 LINE",
"454 0 LINE"
);
}
);
};
layerId = UUID0;
paths = (
{
closed = 1;
nodes = (
"445 -20 OFFCURVE",
"490 89 OFFCURVE",
"544 211 CURVE",
"470 209 LINE",
"442 148 OFFCURVE",
"393 121 OFFCURVE",
"343 121 CURVE SMOOTH",
"272 121 OFFCURVE",
"234 173 OFFCURVE",
"234 329 CURVE SMOOTH",
"234 510 OFFCURVE",
"270 570 OFFCURVE",
"342 570 CURVE SMOOTH",
"388 570 OFFCURVE",
"416 551 OFFCURVE",
"437 527 CURVE",
"487 608 LINE",
"448 661 OFFCURVE",
"398 716 OFFCURVE",
"293 716 CURVE SMOOTH",
"136 716 OFFCURVE",
"20 575 OFFCURVE",
"20 329 CURVE SMOOTH",
"20 118 OFFCURVE",
"126 -20 OFFCURVE",
"295 -20 CURVE SMOOTH"
);
},
{
closed = 1;
nodes = (
"679 123 LINE",
"648 139 OFFCURVE",
"638 158 OFFCURVE",
"638 201 CURVE SMOOTH",
"638 696 LINE",
"464 696 LINE",
"432 544 LINE",
"432 152 LINE",
"456 42 OFFCURVE",
"509 -4 OFFCURVE",
"623 -20 CURVE"
);
}
);
width = 688;
}
);
leftKerningGroup = O;
leftMetricsKey = O;
rightKerningGroup = H;
unicode = 2C6D;
},
{
export = 0;
glyphname = Astroke;
lastChange = "2015-11-20 10:13:18 +0000";
layers = (
{
anchors = (
{
name = bottom;
position = "{286.5, 0}";
},
{
name = top;
position = "{286.5, 689}";
}
);
background = {
paths = (
{
closed = 1;
nodes = (
"149 -59 LINE",
"194 -70 LINE",
"409 739 LINE",
"364 750 LINE"
);
},
{
closed = 1;
nodes = (
"227 689 LINE",
"6 0 LINE",
"102 0 LINE",
"285 610 LINE",
"467 0 LINE",
"567 0 LINE",
"347 689 LINE"
);
},
{
closed = 1;
nodes = (
"162 250 LINE",
"139 173 LINE",
"430 173 LINE",
"407 250 LINE"
);
}
);
};
layerId = "A11F629A-ECF3-413E-B2EC-6C6F8C33A243";
paths = (
{
closed = 1;
nodes = (
"169 -59 LINE",
"214 -70 LINE",
"429 739 LINE",
"384 750 LINE"
);
},
{
closed = 1;
nodes = (
"227 689 LINE",
"6 0 LINE",
"99 0 LINE",
"285 620 LINE",
"470 0 LINE",
"567 0 LINE",
"347 689 LINE"
);
},
{
closed = 1;
nodes = (
"162 247 LINE",
"139 173 LINE",
"430 173 LINE",
"407 247 LINE"
);
}
);
width = 573;
},
{
anchors = (
{
name = bottom;
position = "{300.5, 0}";
},
{
name = top;
position = "{300.5, 696}";
}
);
background = {
paths = (
{
closed = 1;
nodes = (
"178 -62 LINE",
"244 -77 LINE",
"460 744 LINE",
"395 759 LINE"
);
},
{
closed = 1;
nodes = (
"178 696 LINE",
"-25 0 LINE",
"190 0 LINE",
"298 552 LINE",
"408 0 LINE",
"626 0 LINE",
"424 696 LINE"
);
},
{
closed = 1;
nodes = (
"229 279 LINE",
"200 135 LINE",
"397 135 LINE",
"368 279 LINE"
);
}
);
};
layerId = UUID0;
paths = (
{
closed = 1;
nodes = (
"178 -62 LINE",
"244 -77 LINE",
"460 744 LINE",
"395 759 LINE"
);
},
{
closed = 1;
nodes = (
"178 696 LINE",
"-25 0 LINE",
"170 0 LINE",
"298 572 LINE",
"428 0 LINE",
"626 0 LINE",
"424 696 LINE"
);
},
{
closed = 1;
nodes = (
"219 269 LINE",
"190 135 LINE",
"407 135 LINE",
"378 269 LINE"
);
}
);
width = 601;
},
{
anchors = (
{
name = bottom;
position = "{279, 0}";
},
{
name = top;
position = "{279, 682}";
}
);
layerId = "BCC09A48-EAE1-493E-95CB-92D2C26BC05D";
paths = (
{
closed = 1;
nodes = (
"172 -64 LINE",
"195 -70 LINE",
"405 734 LINE",
"383 740 LINE"
);
},
{
closed = 1;
nodes = (
"260 682 LINE",
"25 0 LINE",
"56 0 LINE",
"279 657 LINE",
"500 0 LINE",
"533 0 LINE",
"298 682 LINE"
);
},
{
closed = 1;
nodes = (
"123 228 LINE",
"112 199 LINE",
"444 199 LINE",
"434 228 LINE"
);
}
);
width = 558;
}
);
leftKerningGroup = A;
leftMetricsKey = A;
rightKerningGroup = A;
rightMetricsKey = A;
unicode = 023A;
},
{
export = 0;
glyphname = Bstroke;
lastChange = "2015-11-20 10:13:18 +0000";
layers = (
{
components = (
{
name = B;
transform = "{1, 0, 0, 1, -4, 0}";
}
);
layerId = "BCC09A48-EAE1-493E-95CB-92D2C26BC05D";
paths = (
{
closed = 1;
nodes = (
"116 208 LINE",
"25 208 LINE",
"25 180 LINE",
"337 180 LINE",
"337 208 LINE"
);
}
);
width = 585;
},
{
components = (
{
name = B;
transform = "{1, 0, 0, 1, 12, 0}";
}
);
layerId = "A11F629A-ECF3-413E-B2EC-6C6F8C33A243";
paths = (
{
closed = 1;
nodes = (
"112 238 LINE",
"20 238 LINE",
"20 168 LINE",
"364 168 LINE",
"364 238 LINE"
);
}
);
width = 620;
},
{
components = (
{
name = B;
transform = "{1, 0, 0, 1, 16, 0}";
}
);
layerId = UUID0;
paths = (
{
closed = 1;
nodes = (
"59 266 LINE",
"10 266 LINE",
"10 180 LINE",
"355 180 LINE",
"355 266 LINE"
);
}
);
width = 638;
}
);
leftKerningGroup = H;
leftMetricsKey = Eth;
rightKerningGroup = B;
rightMetricsKey = B;
unicode = 0243;
},
{
export = 0;
glyphname = Chook;
lastChange = "2015-11-20 10:13:18 +0000";
layers = (
{
anchors = (
{
name = bottom;
position = "{271, 0}";
},
{
name = top;
position = "{271, 682}";
}
);
background = {
paths = (
{
closed = 1;
nodes = (
"196 692 OFFCURVE",
"75 577 OFFCURVE",
"75 341 CURVE SMOOTH",
"75 112 OFFCURVE",
"190 -10 OFFCURVE",
"342 -10 CURVE SMOOTH",
"420 -10 OFFCURVE",
"473 17 OFFCURVE",
"517 55 CURVE",
"498 78 LINE",
"457 44 OFFCURVE",
"418 20 OFFCURVE",
"343 20 CURVE SMOOTH",
"212 20 OFFCURVE",
"107 126 OFFCURVE",
"107 341 CURVE SMOOTH",
"107 568 OFFCURVE",
"215 663 OFFCURVE",
"347 663 CURVE SMOOTH",
"409 663 OFFCURVE",
"445 647 OFFCURVE",
"492 611 CURVE",
"509 633 LINE",
"465 669 OFFCURVE",
"420 692 OFFCURVE",
"345 692 CURVE SMOOTH"
);
}
);
};
layerId = "BCC09A48-EAE1-493E-95CB-92D2C26BC05D";
paths = (
{
closed = 1;
nodes = (
"420 -10 OFFCURVE",
"473 17 OFFCURVE",
"517 55 CURVE",
"498 78 LINE",
"457 44 OFFCURVE",
"418 20 OFFCURVE",
"343 20 CURVE SMOOTH",
"212 20 OFFCURVE",
"107 126 OFFCURVE",
"107 341 CURVE SMOOTH",
"107 568 OFFCURVE",
"215 663 OFFCURVE",
"347 663 CURVE SMOOTH",
"409 663 OFFCURVE",
"445 647 OFFCURVE",
"493 613 CURVE",
"509 633 LINE",
"500 640 OFFCURVE",
"491 647 OFFCURVE",
"482 651 CURVE",
"448 676 OFFCURVE",
"405 692 OFFCURVE",
"345 692 CURVE SMOOTH",
"196 692 OFFCURVE",
"75 577 OFFCURVE",
"75 341 CURVE SMOOTH",
"75 112 OFFCURVE",
"190 -10 OFFCURVE",
"342 -10 CURVE SMOOTH"
);
},
{
closed = 1;
nodes = (
"509 633 LINE",
"509 700 LINE SMOOTH",
"509 769 OFFCURVE",
"542 791 OFFCURVE",
"582 791 CURVE SMOOTH",
"617 791 OFFCURVE",
"639 780 OFFCURVE",
"659 767 CURVE",
"674 787 LINE",
"654 802 OFFCURVE",
"625 818 OFFCURVE",
"582 818 CURVE SMOOTH",
"521 818 OFFCURVE",
"479 780 OFFCURVE",
"479 701 CURVE SMOOTH",
"479 638 LINE"
);
}
);
width = 542;
},
{
anchors = (
{
name = bottom;
position = "{280, 0}";
},
{
name = top;
position = "{280, 689}";
}
);
background = {
paths = (
{
closed = 1;
nodes = (
"495 832 OFFCURVE",
"440 776 OFFCURVE",
"440 676 CURVE",
"532 632 LINE",
"532 684 LINE SMOOTH",
"532 737 OFFCURVE",
"557 758 OFFCURVE",
"596 758 CURVE SMOOTH",
"629 758 OFFCURVE",
"647 749 OFFCURVE",
"670 735 CURVE",
"706 794 LINE",
"681 813 OFFCURVE",
"644 832 OFFCURVE",
"591 832 CURVE SMOOTH"
);
},
{
closed = 1;
nodes = (
"185 701 OFFCURVE",
"55 578 OFFCURVE",
"55 345 CURVE SMOOTH",
"55 113 OFFCURVE",
"176 -12 OFFCURVE",
"343 -12 CURVE SMOOTH",
"436 -12 OFFCURVE",
"503 26 OFFCURVE",
"540 65 CURVE",
"492 126 LINE",
"453 97 OFFCURVE",
"411 68 OFFCURVE",
"346 68 CURVE SMOOTH",
"239 68 OFFCURVE",
"156 146 OFFCURVE",
"156 345 CURVE SMOOTH",
"156 553 OFFCURVE",
"243 623 OFFCURVE",
"347 623 CURVE SMOOTH",
"395 623 OFFCURVE",
"437 607 OFFCURVE",
"480 572 CURVE",
"532 633 LINE",
"477 677 OFFCURVE",
"428 701 OFFCURVE",
"341 701 CURVE SMOOTH"
);
}
);
};
layerId = "A11F629A-ECF3-413E-B2EC-6C6F8C33A243";
paths = (
{
closed = 1;
nodes = (
"436 -12 OFFCURVE",
"503 26 OFFCURVE",
"540 65 CURVE",
"492 126 LINE",
"453 97 OFFCURVE",
"411 68 OFFCURVE",
"346 68 CURVE SMOOTH",
"239 68 OFFCURVE",
"156 146 OFFCURVE",
"156 345 CURVE SMOOTH",
"156 553 OFFCURVE",
"243 623 OFFCURVE",
"347 623 CURVE SMOOTH",
"395 623 OFFCURVE",
"442 608 OFFCURVE",
"488 581 CURVE",
"532 633 LINE",
"509 649 OFFCURVE",
"484 665 OFFCURVE",
"450 678 CURVE",
"422 692 OFFCURVE",
"385 701 OFFCURVE",
"341 701 CURVE SMOOTH",
"185 701 OFFCURVE",
"55 578 OFFCURVE",
"55 345 CURVE SMOOTH",
"55 113 OFFCURVE",
"176 -12 OFFCURVE",
"343 -12 CURVE SMOOTH"
);
},
{
closed = 1;
nodes = (
"532 633 LINE",
"532 684 LINE SMOOTH",
"532 737 OFFCURVE",
"557 758 OFFCURVE",
"596 758 CURVE SMOOTH",
"629 758 OFFCURVE",
"647 749 OFFCURVE",
"670 735 CURVE",
"706 794 LINE",
"681 813 OFFCURVE",
"644 832 OFFCURVE",
"591 832 CURVE SMOOTH",
"495 832 OFFCURVE",
"440 776 OFFCURVE",
"440 676 CURVE SMOOTH",
"440 665 LINE"
);
}
);
width = 560;
},
{
anchors = (
{
name = bottom;
position = "{292, 0}";
},
{
name = top;
position = "{262, 744}";
}
);
background = {
paths = (
{
closed = 1;
nodes = (
"156 716 OFFCURVE",
"20 582 OFFCURVE",
"20 350 CURVE SMOOTH",
"20 109 OFFCURVE",
"151 -20 OFFCURVE",
"354 -20 CURVE SMOOTH",
"452 -20 OFFCURVE",
"533 26 OFFCURVE",
"584 77 CURVE",
"494 193 LINE",
"453 161 OFFCURVE",
"415 135 OFFCURVE",
"366 135 CURVE SMOOTH",
"283 135 OFFCURVE",
"234 203 OFFCURVE",
"234 350 CURVE SMOOTH",
"234 497 OFFCURVE",
"282 568 OFFCURVE",
"360 568 CURVE SMOOTH",
"408 568 OFFCURVE",
"445 549 OFFCURVE",
"478 519 CURVE",
"576 634 LINE",
"517 685 OFFCURVE",
"445 716 OFFCURVE",
"348 716 CURVE SMOOTH"
);
}
);
};
layerId = UUID0;
paths = (
{
closed = 1;
nodes = (
"452 -20 OFFCURVE",
"533 26 OFFCURVE",
"584 77 CURVE",
"494 193 LINE",
"453 161 OFFCURVE",
"415 135 OFFCURVE",
"366 135 CURVE SMOOTH",
"283 135 OFFCURVE",
"234 203 OFFCURVE",
"234 350 CURVE SMOOTH",
"234 497 OFFCURVE",
"282 568 OFFCURVE",
"360 568 CURVE SMOOTH",
"417 568 OFFCURVE",
"453 553 OFFCURVE",
"489 532 CURVE",
"576 634 LINE",
"526 666 OFFCURVE",
"481 689 OFFCURVE",
"434 688 CURVE",
"404 707 OFFCURVE",
"369 716 OFFCURVE",
"322 716 CURVE SMOOTH",
"162 716 OFFCURVE",
"20 582 OFFCURVE",
"20 350 CURVE SMOOTH",
"20 109 OFFCURVE",
"151 -20 OFFCURVE",
"354 -20 CURVE SMOOTH"
);
},
{
closed = 1;
nodes = (
"576 634 LINE",
"576 667 LINE SMOOTH",
"576 704 OFFCURVE",
"589 721 OFFCURVE",
"620 721 CURVE SMOOTH",
"642 721 OFFCURVE",
"661 715 OFFCURVE",
"684 704 CURVE",
"736 826 LINE",
"701 846 OFFCURVE",
"654 863 OFFCURVE",
"589 863 CURVE SMOOTH",
"463 863 OFFCURVE",
"408 794 OFFCURVE",
"408 684 CURVE SMOOTH",
"408 632 LINE"
);
}
);
width = 584;
}
);
leftKerningGroup = O;
leftMetricsKey = C;
rightKerningGroup = C;
unicode = 0187;
},
{
export = 0;
glyphname = Cstroke;
lastChange = "2015-11-20 10:13:18 +0000";
layers = (
{
anchors = (
{
name = bottom;
position = "{280, 0}";
},
{
name = top;
position = "{280, 689}";
}
);
components = (
{
name = C;
}
);
layerId = "A11F629A-ECF3-413E-B2EC-6C6F8C33A243";
paths = (
{
closed = 1;
nodes = (
"204 -59 LINE",
"249 -70 LINE",
"464 739 LINE",
"419 750 LINE"
);
}
);
width = 560;
},
{
anchors = (
{
name = bottom;
position = "{292, 0}";
},
{
name = top;
position = "{292, 696}";
}
);
components = (
{
name = C;
}
);
layerId = UUID0;
paths = (
{
closed = 1;
nodes = (
"198 -62 LINE",
"264 -77 LINE",
"480 744 LINE",
"415 759 LINE"
);
}
);
width = 584;
},
{
anchors = (
{
name = bottom;
position = "{271, 0}";
},
{
name = top;
position = "{271, 682}";
}
);
components = (
{
name = C;
}
);
layerId = "BCC09A48-EAE1-493E-95CB-92D2C26BC05D";
paths = (
{
closed = 1;
nodes = (
"202 -64 LINE",
"225 -70 LINE",
"435 734 LINE",
"413 740 LINE"
);
}
);
width = 542;
}
);
leftKerningGroup = O;
leftMetricsKey = C;
rightKerningGroup = C;
rightMetricsKey = C;
unicode = 023B;
},
{
export = 0;
glyphname = Dtopbar;
lastChange = "2015-11-20 10:13:18 +0000";
layers = (
{
anchors = (
{
name = bottom;
position = "{289.5, 0}";
},
{
name = top;
position = "{289.5, 689}";
}
);
background = {
paths = (
{
closed = 1;
nodes = (
"389 76 LINE",
"294 76 LINE SMOOTH",
"203 76 OFFCURVE",
"136 103 OFFCURVE",
"136 218 CURVE SMOOTH",
"136 320 OFFCURVE",
"196 356 OFFCURVE",
"297 356 CURVE SMOOTH",
"405 356 LINE",
"405 430 LINE",
"298 430 LINE SMOOTH",
"137 430 OFFCURVE",
"35 362 OFFCURVE",
"35 220 CURVE SMOOTH",
"35 61 OFFCURVE",
"146 0 OFFCURVE",
"302 0 CURVE SMOOTH",
"484 0 LINE",
"484 689 LINE",
"389 679 LINE"
);
},
{
closed = 1;
nodes = (
"121 611 LINE",
"405 611 LINE",
"484 689 LINE",
"109 689 LINE"
);
}
);
};
components = (
{
name = "Komide-cy";
transform = "{1, 0, 0, 1, 5, 0}";
}
);
layerId = "A11F629A-ECF3-413E-B2EC-6C6F8C33A243";
paths = (
{
closed = 1;
nodes = (
"109 611 LINE",
"400 611 LINE",
"479 689 LINE",
"109 689 LINE"
);
}
);
width = 579;
},
{
anchors = (
{
name = bottom;
position = "{303, 0}";
},
{
name = top;
position = "{303, 696}";
}
);
background = {
paths = (
{
closed = 1;
nodes = (
"357 145 LINE",
"312 145 LINE SMOOTH",
"251 145 OFFCURVE",
"224 181 OFFCURVE",
"224 233 CURVE SMOOTH",
"224 282 OFFCURVE",
"248 318 OFFCURVE",
"316 318 CURVE SMOOTH",
"373 318 LINE",
"373 456 LINE",
"293 456 LINE SMOOTH",
"113 456 OFFCURVE",
"10 382 OFFCURVE",
"10 235 CURVE SMOOTH",
"10 80 OFFCURVE",
"126 0 OFFCURVE",
"285 0 CURVE SMOOTH",
"563 0 LINE",
"563 696 LINE",
"357 686 LINE"
);
},
{
closed = 1;
nodes = (
"115 543 LINE",
"373 543 LINE",
"563 696 LINE",
"95 696 LINE"
);
}
);
};
components = (
{
name = "Komide-cy";
}
);
layerId = UUID0;
paths = (
{
closed = 1;
nodes = (
"103 543 LINE",
"373 543 LINE",
"563 696 LINE",
"103 696 LINE"
);
}
);
width = 606;
},
{
anchors = (
{
name = bottom;
position = "{280.5, 0}";
},
{
name = top;
position = "{280.5, 682}";
}
);
background = {
paths = (
{
closed = 1;
nodes = (
"420 29 LINE",
"287 29 LINE SMOOTH",
"172 29 OFFCURVE",
"97 83 OFFCURVE",
"97 212 CURVE SMOOTH",
"97 327 OFFCURVE",
"170 379 OFFCURVE",
"292 379 CURVE SMOOTH",
"427 379 LINE",
"427 408 LINE",
"295 408 LINE SMOOTH",
"151 408 OFFCURVE",
"65 343 OFFCURVE",
"65 211 CURVE SMOOTH",
"65 64 OFFCURVE",
"160 0 OFFCURVE",
"295 0 CURVE SMOOTH",
"451 0 LINE",
"451 682 LINE",
"420 672 LINE"
);
},
{
closed = 1;
nodes = (
"134 653 LINE",
"431 653 LINE",
"451 682 LINE",
"128 682 LINE"
);
}
);
};
components = (
{
name = "Komide-cy";
transform = "{1, 0, 0, 1, 10, 0}";
}
);
layerId = "BCC09A48-EAE1-493E-95CB-92D2C26BC05D";
paths = (
{
closed = 1;
nodes = (
"121 653 LINE",
"421 653 LINE",
"441 682 LINE",
"121 682 LINE"
);
}
);
width = 561;
}
);
leftKerningGroup = Dtopbar;
leftMetricsKey = "=|Be-cy";
rightKerningGroup = H;
rightMetricsKey = H;
unicode = 018B;
},
{
export = 0;
glyphname = Eopen;
lastChange = "2015-11-20 10:13:18 +0000";
layers = (
{
anchors = (
{
name = bottom;
position = "{260, 0}";
},
{
name = top;
position = "{260, 682}";
}
);
background = {
paths = (
{
closed = 1;
nodes = (
"150 692 OFFCURVE",
"81 625 OFFCURVE",
"81 525 CURVE SMOOTH",
"81 435 OFFCURVE",
"136 386 OFFCURVE",
"211 370 CURVE",
"128 361 OFFCURVE",
"60 306 OFFCURVE",
"60 196 CURVE SMOOTH",
"60 66 OFFCURVE",
"153 -10 OFFCURVE",
"281 -10 CURVE SMOOTH",
"362 -10 OFFCURVE",
"430 21 OFFCURVE",
"489 82 CURVE",
"468 101 LINE",
"419 51 OFFCURVE",
"359 19 OFFCURVE",
"281 19 CURVE SMOOTH",
"171 19 OFFCURVE",
"92 83 OFFCURVE",
"92 195 CURVE SMOOTH",
"92 297 OFFCURVE",
"158 357 OFFCURVE",
"278 355 CURVE SMOOTH",
"338 354 LINE",
"334 383 LINE",
"283 383 LINE SMOOTH",
"182 383 OFFCURVE",
"113 432 OFFCURVE",
"113 527 CURVE",
"113 608 OFFCURVE",
"172 663 OFFCURVE",
"270 663 CURVE SMOOTH",
"342 663 OFFCURVE",
"398 633 OFFCURVE",
"449 589 CURVE",
"468 609 LINE",
"409 662 OFFCURVE",
"349 692 OFFCURVE",
"269 692 CURVE SMOOTH"
);
},
{
closed = 1;
nodes = (
"150 692 OFFCURVE",
"81 625 OFFCURVE",
"81 525 CURVE SMOOTH",
"81 435 OFFCURVE",
"136 386 OFFCURVE",
"211 370 CURVE",
"128 361 OFFCURVE",
"60 306 OFFCURVE",
"60 196 CURVE SMOOTH",
"60 66 OFFCURVE",
"153 -10 OFFCURVE",
"281 -10 CURVE SMOOTH",
"362 -10 OFFCURVE",
"430 21 OFFCURVE",
"489 82 CURVE",
"468 101 LINE",
"419 51 OFFCURVE",
"359 19 OFFCURVE",
"281 19 CURVE SMOOTH",
"171 19 OFFCURVE",
"92 83 OFFCURVE",
"92 195 CURVE SMOOTH",
"92 297 OFFCURVE",
"158 357 OFFCURVE",
"278 355 CURVE SMOOTH",
"338 354 LINE",
"334 383 LINE",
"283 383 LINE SMOOTH",
"182 383 OFFCURVE",
"113 432 OFFCURVE",
"113 527 CURVE",
"113 608 OFFCURVE",
"172 663 OFFCURVE",
"270 663 CURVE SMOOTH",
"342 663 OFFCURVE",
"398 633 OFFCURVE",
"449 589 CURVE",
"468 609 LINE",
"409 662 OFFCURVE",
"349 692 OFFCURVE",
"269 692 CURVE SMOOTH"
);
}
);
};
layerId = "BCC09A48-EAE1-493E-95CB-92D2C26BC05D";
paths = (
{
closed = 1;
nodes = (
"154 692 OFFCURVE",
"81 625 OFFCURVE",
"81 525 CURVE SMOOTH",
"81 435 OFFCURVE",
"136 386 OFFCURVE",
"211 370 CURVE",
"129 361 OFFCURVE",
"60 306 OFFCURVE",
"60 195 CURVE SMOOTH",
"60 66 OFFCURVE",
"153 -10 OFFCURVE",
"280 -10 CURVE SMOOTH",
"361 -10 OFFCURVE",
"429 21 OFFCURVE",
"489 82 CURVE",
"468 101 LINE",
"418 51 OFFCURVE",
"358 19 OFFCURVE",
"280 19 CURVE SMOOTH",
"171 19 OFFCURVE",
"92 83 OFFCURVE",
"92 194 CURVE SMOOTH",
"92 297 OFFCURVE",
"158 357 OFFCURVE",
"278 355 CURVE SMOOTH",
"334 354 LINE",
"338 383 LINE",
"283 383 LINE SMOOTH",
"182 383 OFFCURVE",
"113 432 OFFCURVE",
"113 527 CURVE SMOOTH",
"113 610 OFFCURVE",
"176 663 OFFCURVE",
"272 663 CURVE SMOOTH",
"344 663 OFFCURVE",
"400 633 OFFCURVE",
"449 589 CURVE",
"468 609 LINE",
"411 662 OFFCURVE",
"351 692 OFFCURVE",
"271 692 CURVE SMOOTH"
);
}
);
width = 519;
},
{
anchors = (
{
name = bottom;
position = "{261, 0}";
},
{
name = top;
position = "{261, 689}";
}
);
background = {
paths = (
{
closed = 1;
nodes = (
"137 701 OFFCURVE",
"68 623 OFFCURVE",
"68 525 CURVE SMOOTH",
"68 438 OFFCURVE",
"123 387 OFFCURVE",
"203 369 CURVE",
"119 360 OFFCURVE",
"45 305 OFFCURVE",
"45 198 CURVE SMOOTH",
"45 72 OFFCURVE",
"149 -12 OFFCURVE",
"291 -12 CURVE SMOOTH",
"376 -12 OFFCURVE",
"455 18 OFFCURVE",
"511 81 CURVE",
"455 135 LINE",
"415 93 OFFCURVE",
"364 68 OFFCURVE",
"296 68 CURVE SMOOTH",
"201 68 OFFCURVE",
"147 118 OFFCURVE",
"147 199 CURVE SMOOTH",
"147 279 OFFCURVE",
"198 325 OFFCURVE",
"299 325 CURVE SMOOTH",
"365 325 LINE",
"352 403 LINE",
"298 403 LINE SMOOTH",
"219 403 OFFCURVE",
"167 446 OFFCURVE",
"167 517 CURVE SMOOTH",
"167 575 OFFCURVE",
"201 623 OFFCURVE",
"284 623 CURVE SMOOTH",
"341 623 OFFCURVE",
"393 601 OFFCURVE",
"442 559 CURVE",
"494 616 LINE",
"431 672 OFFCURVE",
"360 701 OFFCURVE",
"276 701 CURVE SMOOTH"
);
},
{
closed = 1;
nodes = (
"137 701 OFFCURVE",
"68 623 OFFCURVE",
"68 525 CURVE SMOOTH",
"68 438 OFFCURVE",
"123 387 OFFCURVE",
"203 369 CURVE",
"119 360 OFFCURVE",
"45 305 OFFCURVE",
"45 198 CURVE SMOOTH",
"45 72 OFFCURVE",
"149 -12 OFFCURVE",
"291 -12 CURVE SMOOTH",
"376 -12 OFFCURVE",
"455 18 OFFCURVE",
"511 81 CURVE",
"455 135 LINE",
"415 93 OFFCURVE",
"364 68 OFFCURVE",
"296 68 CURVE SMOOTH",
"201 68 OFFCURVE",
"147 118 OFFCURVE",
"147 199 CURVE SMOOTH",
"147 279 OFFCURVE",
"198 325 OFFCURVE",
"299 325 CURVE SMOOTH",
"365 325 LINE",
"352 403 LINE",
"298 403 LINE SMOOTH",
"219 403 OFFCURVE",
"167 446 OFFCURVE",
"167 517 CURVE SMOOTH",
"167 575 OFFCURVE",
"201 623 OFFCURVE",
"284 623 CURVE SMOOTH",
"341 623 OFFCURVE",
"393 601 OFFCURVE",
"442 559 CURVE",
"494 616 LINE",
"431 672 OFFCURVE",
"360 701 OFFCURVE",
"276 701 CURVE SMOOTH"
);
}
);
};
layerId = "A11F629A-ECF3-413E-B2EC-6C6F8C33A243";
paths = (
{
closed = 1;
nodes = (
"141 701 OFFCURVE",
"68 623 OFFCURVE",
"68 525 CURVE SMOOTH",
"68 438 OFFCURVE",
"123 387 OFFCURVE",
"203 369 CURVE",
"119 360 OFFCURVE",
"45 305 OFFCURVE",
"45 198 CURVE SMOOTH",
"45 72 OFFCURVE",
"149 -12 OFFCURVE",
"291 -12 CURVE SMOOTH",
"376 -12 OFFCURVE",
"454 18 OFFCURVE",
"511 81 CURVE",
"455 135 LINE",
"415 93 OFFCURVE",
"364 68 OFFCURVE",
"296 68 CURVE SMOOTH",
"201 68 OFFCURVE",
"147 118 OFFCURVE",
"147 199 CURVE SMOOTH",
"147 279 OFFCURVE",
"198 325 OFFCURVE",
"299 325 CURVE SMOOTH",
"351 325 LINE",
"364 403 LINE",
"298 403 LINE SMOOTH",
"219 403 OFFCURVE",
"167 446 OFFCURVE",
"167 517 CURVE SMOOTH",
"167 575 OFFCURVE",
"201 623 OFFCURVE",
"286 623 CURVE SMOOTH",
"343 623 OFFCURVE",
"395 601 OFFCURVE",
"442 559 CURVE",
"494 616 LINE",
"434 672 OFFCURVE",
"363 701 OFFCURVE",
"279 701 CURVE SMOOTH"
);
}
);
width = 521;
},
{
anchors = (
{
name = bottom;
position = "{277, 0}";
},
{
name = top;
position = "{277, 696}";
}
);
background = {
paths = (
{
closed = 1;
nodes = (
"135 716 OFFCURVE",
"35 639 OFFCURVE",
"35 530 CURVE SMOOTH",
"35 455 OFFCURVE",
"83 391 OFFCURVE",
"201 367 CURVE",
"80 354 OFFCURVE",
"15 296 OFFCURVE",
"15 196 CURVE SMOOTH",
"15 62 OFFCURVE",
"134 -20 OFFCURVE",
"310 -20 CURVE SMOOTH",
"428 -20 OFFCURVE",
"504 17 OFFCURVE",
"563 80 CURVE",
"456 184 LINE",
"412 145 OFFCURVE",
"375 126 OFFCURVE",
"326 126 CURVE SMOOTH",
"267 126 OFFCURVE",
"229 153 OFFCURVE",
"229 209 CURVE SMOOTH",
"229 262 OFFCURVE",
"263 295 OFFCURVE",
"336 295 CURVE SMOOTH",
"413 295 LINE",
"390 436 LINE",
"332 436 LINE SMOOTH",
"274 436 OFFCURVE",
"245 462 OFFCURVE",
"245 506 CURVE SMOOTH",
"245 543 OFFCURVE",
"265 572 OFFCURVE",
"320 572 CURVE SMOOTH",
"360 572 OFFCURVE",
"400 556 OFFCURVE",
"445 520 CURVE",
"540 620 LINE",
"474 683 OFFCURVE",
"390 716 OFFCURVE",
"289 716 CURVE SMOOTH"
);
}
);
};
layerId = UUID0;
paths = (
{
closed = 1;
nodes = (
"145 716 OFFCURVE",
"35 639 OFFCURVE",
"35 530 CURVE SMOOTH",
"35 455 OFFCURVE",
"83 391 OFFCURVE",
"201 367 CURVE",
"80 354 OFFCURVE",
"15 296 OFFCURVE",
"15 193 CURVE SMOOTH",
"15 62 OFFCURVE",
"134 -20 OFFCURVE",
"304 -20 CURVE SMOOTH",
"422 -20 OFFCURVE",
"504 18 OFFCURVE",
"563 80 CURVE",
"456 184 LINE",
"412 145 OFFCURVE",
"375 126 OFFCURVE",
"326 126 CURVE SMOOTH",
"267 126 OFFCURVE",
"229 153 OFFCURVE",
"229 209 CURVE SMOOTH",
"229 262 OFFCURVE",
"263 295 OFFCURVE",
"336 295 CURVE SMOOTH",
"390 295 LINE",
"413 436 LINE",
"332 436 LINE SMOOTH",
"274 436 OFFCURVE",
"245 462 OFFCURVE",
"245 506 CURVE SMOOTH",
"245 543 OFFCURVE",
"265 572 OFFCURVE",
"325 572 CURVE SMOOTH",
"365 572 OFFCURVE",
"405 556 OFFCURVE",
"445 520 CURVE",
"540 620 LINE",
"474 683 OFFCURVE",
"400 716 OFFCURVE",
"299 716 CURVE SMOOTH"
);
}
);
width = 553;
}
);
leftKerningGroup = Eopen;
leftMetricsKey = "=|Ze-cy";
rightKerningGroup = E;
rightMetricsKey = "=|Ze-cy";
unicode = 0190;
},
{
color = 7;
export = 0;
glyphname = Ereversed;
lastChange = "2015-11-20 10:13:18 +0000";
layers = (
{
layerId = "BCC09A48-EAE1-493E-95CB-92D2C26BC05D";
paths = (
{
closed = 1;
nodes = (
"47 653 LINE",
"342 653 LINE",
"342 373 LINE",
"90 373 LINE",
"90 345 LINE",
"342 345 LINE",
"342 29 LINE",
"40 29 LINE",
"40 0 LINE",
"373 0 LINE",
"373 682 LINE",
"47 682 LINE"
);
}
);
width = 493;
},
{
background = {
paths = (
{
closed = 1;
nodes = (
"73 613 LINE",
"340 613 LINE",
"340 388 LINE",
"108 388 LINE",
"108 312 LINE",
"340 312 LINE",
"340 76 LINE",
"54 76 LINE",
"54 0 LINE",
"435 0 LINE",
"435 689 LINE",
"62 689 LINE"
);
}
);
};
layerId = "A11F629A-ECF3-413E-B2EC-6C6F8C33A243";
paths = (
{
closed = 1;
nodes = (
"60 613 LINE",
"340 613 LINE",
"340 388 LINE",
"108 388 LINE",
"108 312 LINE",
"340 312 LINE",
"340 76 LINE",
"54 76 LINE",
"54 0 LINE",
"435 0 LINE",
"435 689 LINE",
"60 689 LINE"
);
}
);
width = 535;
},
{
background = {
paths = (
{
closed = 1;
nodes = (
"36 553 LINE",
"266 553 LINE",
"266 423 LINE",
"64 423 LINE",
"64 284 LINE",
"266 284 LINE",
"266 144 LINE",
"20 144 LINE",
"20 0 LINE",
"472 0 LINE",
"472 696 LINE",
"15 696 LINE"
);
}
);
};
layerId = UUID0;
paths = (
{
closed = 1;
nodes = (
"25 553 LINE",
"266 553 LINE",
"266 423 LINE",
"64 423 LINE",
"64 284 LINE",
"266 284 LINE",
"266 144 LINE",
"20 144 LINE",
"20 0 LINE",
"472 0 LINE",
"472 696 LINE",
"25 696 LINE"
);
}
);
width = 515;
}
);
leftKerningGroup = Ereversed;
leftMetricsKey = "=|E";
rightKerningGroup = H;
rightMetricsKey = H;
unicode = 018E;
},
{
export = 0;
glyphname = Estroke;
lastChange = "2015-11-20 10:13:18 +0000";
layers = (
{
anchors = (
{
name = bottom;
position = "{267.5, 0}";
},
{
name = top;
position = "{267.5, 689}";
}
);
components = (
{
name = E;
}
);
layerId = "A11F629A-ECF3-413E-B2EC-6C6F8C33A243";
paths = (
{
closed = 1;
nodes = (
"169 -59 LINE",
"214 -70 LINE",
"429 739 LINE",
"384 750 LINE"
);
}
);
width = 535;
},
{
anchors = (
{
name = bottom;
position = "{260, 0}";
},
{
name = top;
position = "{260, 696}";
}
);
components = (
{
name = E;
}
);
layerId = UUID0;
paths = (
{
closed = 1;
nodes = (
"188 -62 LINE",
"254 -77 LINE",
"470 744 LINE",
"405 759 LINE"
);
}
);
width = 520;
},
{
anchors = (
{
name = bottom;
position = "{246.5, 0}";
},
{
name = top;
position = "{246.5, 682}";
}
);
components = (
{
name = E;
}
);
layerId = "BCC09A48-EAE1-493E-95CB-92D2C26BC05D";
paths = (
{
closed = 1;
nodes = (
"172 -64 LINE",
"195 -70 LINE",
"405 734 LINE",
"383 740 LINE"
);
}
);
width = 493;
}
);
leftKerningGroup = H;
leftMetricsKey = H;
rightKerningGroup = E;
rightMetricsKey = E;
unicode = 0246;
},
{
export = 0;
glyphname = Ezh;
lastChange = "2015-11-20 10:13:18 +0000";
layers = (
{
anchors = (
{
name = bottom;
position = "{237.5, 0}";
},
{
name = top;
position = "{219, 682}";
}
);
layerId = "BCC09A48-EAE1-493E-95CB-92D2C26BC05D";
paths = (
{
closed = 1;
nodes = (
"349 -10 OFFCURVE",
"425 72 OFFCURVE",
"425 183 CURVE SMOOTH",
"425 307 OFFCURVE",
"351 377 OFFCURVE",
"207 377 CURVE SMOOTH",
"159 377 LINE",
"128 348 LINE",
"209 348 LINE SMOOTH",
"321 348 OFFCURVE",
"393 301 OFFCURVE",
"393 182 CURVE SMOOTH",
"393 89 OFFCURVE",
"335 19 OFFCURVE",
"215 19 CURVE SMOOTH",
"142 19 OFFCURVE",
"89 39 OFFCURVE",
"40 91 CURVE",
"20 73 LINE",
"69 20 OFFCURVE",
"128 -10 OFFCURVE",
"216 -10 CURVE SMOOTH"
);
},
{
closed = 1;
nodes = (
"128 348 LINE",
"163 377 LINE",
"400 656 LINE",
"400 682 LINE",
"37 682 LINE",
"37 654 LINE",
"360 654 LINE",
"128 377 LINE"
);
}
);
width = 475;
},
{
anchors = (
{
name = bottom;
position = "{258, 0}";
},
{
name = top;
position = "{244, 689}";
}
);
layerId = "A11F629A-ECF3-413E-B2EC-6C6F8C33A243";
paths = (
{
closed = 1;
nodes = (
"378 -12 OFFCURVE",
"471 75 OFFCURVE",
"471 198 CURVE SMOOTH",
"471 322 OFFCURVE",
"394 397 OFFCURVE",
"235 397 CURVE",
"207 397 LINE",
"127 328 LINE",
"215 328 LINE SMOOTH",
"322 328 OFFCURVE",
"372 292 OFFCURVE",
"372 200 CURVE SMOOTH",
"372 117 OFFCURVE",
"321 66 OFFCURVE",
"223 66 CURVE SMOOTH",
"154 66 OFFCURVE",
"108 86 OFFCURVE",
"65 132 CURVE",
"10 78 LINE",
"62 17 OFFCURVE",
"129 -12 OFFCURVE",
"226 -12 CURVE SMOOTH"
);
},
{
closed = 1;
nodes = (
"127 328 LINE",
"197 360 LINE",
"447 612 LINE",
"447 689 LINE",
"41 689 LINE",
"41 611 LINE",
"335 611 LINE",
"127 395 LINE"
);
}
);
width = 516;
},
{
anchors = (
{
name = bottom;
position = "{282.5, 0}";
},
{
name = top;
position = "{277, 696}";
}
);
layerId = UUID0;
paths = (
{
closed = 1;
nodes = (
"445 -20 OFFCURVE",
"550 84 OFFCURVE",
"550 210 CURVE SMOOTH",
"550 333 OFFCURVE",
"467 407 OFFCURVE",
"325 407 CURVE",
"305 407 LINE",
"127 296 LINE",
"233 296 LINE SMOOTH",
"292 296 OFFCURVE",
"338 275 OFFCURVE",
"338 219 CURVE SMOOTH",
"338 159 OFFCURVE",
"298 128 OFFCURVE",
"242 128 CURVE SMOOTH",
"186 128 OFFCURVE",
"149 147 OFFCURVE",
"102 189 CURVE",
"0 90 LINE",
"56 24 OFFCURVE",
"134 -20 OFFCURVE",
"254 -20 CURVE SMOOTH"
);
},
{
closed = 1;
nodes = (
"127 296 LINE",
"280 336 LINE",
"508 557 LINE",
"508 696 LINE",
"45 696 LINE",
"45 552 LINE",
"285 552 LINE",
"127 403 LINE"
);
}
);
width = 565;
}
);
leftKerningGroup = "Ze-cy";
rightKerningGroup = B;
rightMetricsKey = Z;
unicode = 01B7;
},
{
export = 0;
glyphname = Ezhreversed;
lastChange = "2015-11-20 10:13:18 +0000";
layers = (
{
anchors = (
{
name = bottom;
position = "{258, 0}";
},
{
name = top;
position = "{258, 689}";
}
);
background = {
paths = (
{
closed = 1;
nodes = (
"387 -12 OFFCURVE",
"454 17 OFFCURVE",
"506 78 CURVE",
"451 132 LINE",
"408 86 OFFCURVE",
"362 66 OFFCURVE",
"293 66 CURVE SMOOTH",
"195 66 OFFCURVE",
"144 117 OFFCURVE",
"144 197 CURVE SMOOTH",
"144 292 OFFCURVE",
"194 328 OFFCURVE",
"301 328 CURVE SMOOTH",
"389 328 LINE",
"309 397 LINE",
"281 397 LINE",
"122 397 OFFCURVE",
"45 322 OFFCURVE",
"45 195 CURVE SMOOTH",
"45 75 OFFCURVE",
"138 -12 OFFCURVE",
"290 -12 CURVE SMOOTH"
);
},
{
closed = 1;
nodes = (
"178 610 LINE",
"475 610 LINE",
"475 688 LINE",
"69 688 LINE",
"69 611 LINE",
"319 360 LINE",
"389 328 LINE",
"389 396 LINE"
);
}
);
};
layerId = "A11F629A-ECF3-413E-B2EC-6C6F8C33A243";
paths = (
{
closed = 1;
nodes = (
"387 -12 OFFCURVE",
"454 17 OFFCURVE",
"506 78 CURVE",
"451 132 LINE",
"408 86 OFFCURVE",
"362 66 OFFCURVE",
"286 66 CURVE SMOOTH",
"195 66 OFFCURVE",
"144 117 OFFCURVE",
"144 193 CURVE SMOOTH",
"144 282 OFFCURVE",
"194 328 OFFCURVE",
"301 328 CURVE SMOOTH",
"389 328 LINE",
"309 397 LINE",
"281 397 LINE",
"126 397 OFFCURVE",
"45 312 OFFCURVE",
"45 191 CURVE SMOOTH",
"45 72 OFFCURVE",
"140 -12 OFFCURVE",
"283 -12 CURVE SMOOTH"
);
},
{
closed = 1;
nodes = (
"181 611 LINE",
"475 611 LINE",
"475 689 LINE",
"69 689 LINE",
"69 612 LINE",
"319 360 LINE",
"389 328 LINE",
"389 395 LINE"
);
}
);
width = 516;
},
{
anchors = (
{
name = bottom;
position = "{282.5, 0}";
},
{
name = top;
position = "{282.5, 696}";
}
);
background = {
paths = (
{
closed = 1;
nodes = (
"431 -20 OFFCURVE",
"509 24 OFFCURVE",
"565 90 CURVE",
"463 189 LINE",
"416 147 OFFCURVE",
"379 128 OFFCURVE",
"323 128 CURVE SMOOTH",
"267 128 OFFCURVE",
"227 159 OFFCURVE",
"227 219 CURVE SMOOTH",
"227 275 OFFCURVE",
"273 296 OFFCURVE",
"332 296 CURVE SMOOTH",
"438 296 LINE",
"260 407 LINE",
"240 407 LINE",
"98 407 OFFCURVE",
"15 333 OFFCURVE",
"15 210 CURVE SMOOTH",
"15 84 OFFCURVE",
"120 -20 OFFCURVE",
"311 -20 CURVE SMOOTH"
);
},
{
closed = 1;
nodes = (
"280 552 LINE",
"520 552 LINE",
"520 696 LINE",
"57 696 LINE",
"57 557 LINE",
"285 336 LINE",
"438 296 LINE",
"438 403 LINE"
);
}
);
};
layerId = UUID0;
paths = (
{
closed = 1;
nodes = (
"429 -20 OFFCURVE",
"507 24 OFFCURVE",
"565 90 CURVE",
"463 189 LINE",
"416 147 OFFCURVE",
"375 128 OFFCURVE",
"317 128 CURVE SMOOTH",
"263 128 OFFCURVE",
"227 159 OFFCURVE",
"227 213 CURVE SMOOTH",
"227 266 OFFCURVE",
"267 296 OFFCURVE",
"332 296 CURVE SMOOTH",
"438 296 LINE",
"260 407 LINE",
"240 407 LINE",
"107 407 OFFCURVE",
"15 328 OFFCURVE",
"15 210 CURVE SMOOTH",
"15 79 OFFCURVE",
"120 -20 OFFCURVE",
"304 -20 CURVE SMOOTH"
);
},
{
closed = 1;
nodes = (
"283 552 LINE",
"520 552 LINE",
"520 696 LINE",
"57 696 LINE",
"57 557 LINE",
"285 336 LINE",
"438 296 LINE",
"438 400 LINE"
);
}
);
width = 565;
},
{
anchors = (
{
name = bottom;
position = "{237.5, 0}";
},
{
name = top;
position = "{237.5, 682}";
}
);
background = {
paths = (
{
closed = 1;
nodes = (
"347 -10 OFFCURVE",
"406 20 OFFCURVE",
"455 73 CURVE",
"435 91 LINE",
"386 39 OFFCURVE",
"333 19 OFFCURVE",
"260 19 CURVE SMOOTH",
"140 19 OFFCURVE",
"81 89 OFFCURVE",
"81 182 CURVE SMOOTH",
"81 301 OFFCURVE",
"154 348 OFFCURVE",
"266 348 CURVE SMOOTH",
"347 348 LINE",
"316 377 LINE",
"268 377 LINE SMOOTH",
"124 377 OFFCURVE",
"50 307 OFFCURVE",
"50 183 CURVE SMOOTH",
"50 72 OFFCURVE",
"126 -10 OFFCURVE",
"259 -10 CURVE SMOOTH"
);
},
{
closed = 1;
nodes = (
"114 654 LINE",
"438 654 LINE",
"438 682 LINE",
"75 682 LINE",
"75 656 LINE",
"312 377 LINE",
"347 348 LINE",
"347 377 LINE"
);
}
);
};
layerId = "BCC09A48-EAE1-493E-95CB-92D2C26BC05D";
paths = (
{
closed = 1;
nodes = (
"347 -10 OFFCURVE",
"403 20 OFFCURVE",
"455 73 CURVE",
"435 91 LINE",
"383 39 OFFCURVE",
"333 19 OFFCURVE",
"250 19 CURVE SMOOTH",
"143 19 OFFCURVE",
"81 79 OFFCURVE",
"81 177 CURVE SMOOTH",
"81 296 OFFCURVE",
"152 348 OFFCURVE",
"266 348 CURVE SMOOTH",
"347 348 LINE",
"316 377 LINE",
"268 377 LINE SMOOTH",
"127 377 OFFCURVE",
"50 302 OFFCURVE",
"50 178 CURVE SMOOTH",
"50 63 OFFCURVE",
"128 -10 OFFCURVE",
"249 -10 CURVE SMOOTH"
);
},
{
closed = 1;
nodes = (
"116 654 LINE",
"438 654 LINE",
"438 682 LINE",
"75 682 LINE",
"75 656 LINE",
"312 377 LINE",
"347 348 LINE",
"347 378 LINE"
);
}
);
width = 475;
}
);
leftKerningGroup = Ezhreversed;
leftMetricsKey = "=|Ezh";
rightKerningGroup = Sigma;
rightMetricsKey = "=|Ezh";
unicode = 01B8;
},
{
export = 0;
glyphname = Gammaafrican;
lastChange = "2015-11-20 10:13:18 +0000";
layers = (
{
anchors = (
{
name = bottom;
position = "{269, -193}";
},
{
name = top;
position = "{269, 682}";
}
);
background = {
paths = (
{
closed = 1;
nodes = (
"481 682 LINE",
"270 29 LINE",
"59 682 LINE",
"26 682 LINE",
"250 0 LINE",
"289 0 LINE",
"514 682 LINE"
);
}
);
};
layerId = "BCC09A48-EAE1-493E-95CB-92D2C26BC05D";
paths = (
{
closed = 1;
nodes = (
"317 -199 OFFCURVE",
"344 -165 OFFCURVE",
"344 -121 CURVE SMOOTH",
"344 -73 OFFCURVE",
"323 -28 OFFCURVE",
"288 52 CURVE",
"269 76 LINE",
"58 682 LINE",
"25 682 LINE",
"250 52 LINE",
"269 29 LINE",
"297 -39 OFFCURVE",
"313 -78 OFFCURVE",
"313 -120 CURVE SMOOTH",
"313 -152 OFFCURVE",
"298 -171 OFFCURVE",
"269 -171 CURVE SMOOTH",
"240 -171 OFFCURVE",
"225 -152 OFFCURVE",
"225 -120 CURVE SMOOTH",
"225 -77 OFFCURVE",
"241 -39 OFFCURVE",
"269 29 CURVE",
"288 52 LINE",
"513 682 LINE",
"480 682 LINE",
"269 76 LINE",
"250 52 LINE",
"216 -29 OFFCURVE",
"194 -75 OFFCURVE",
"194 -121 CURVE SMOOTH",
"194 -167 OFFCURVE",
"224 -199 OFFCURVE",
"269 -199 CURVE SMOOTH"
);
}
);
width = 538;
},
{
anchors = (
{
name = bottom;
position = "{277, -202}";
},
{
name = top;
position = "{277, 689}";
}
);
background = {
paths = (
{
closed = 1;
nodes = (
"454 689 LINE",
"281 103 LINE",
"108 689 LINE",
"6 689 LINE",
"228 0 LINE",
"330 0 LINE",
"550 689 LINE"
);
}
);
};
layerId = "A11F629A-ECF3-413E-B2EC-6C6F8C33A243";
paths = (
{
closed = 1;
nodes = (
"357 -213 OFFCURVE",
"398 -175 OFFCURVE",
"398 -111 CURVE SMOOTH",
"398 -54 OFFCURVE",
"377 -9 OFFCURVE",
"335 69 CURVE",
"279 135 LINE",
"108 689 LINE",
"6 689 LINE",
"221 69 LINE",
"278 7 LINE",
"297 -38 OFFCURVE",
"310 -75 OFFCURVE",
"310 -104 CURVE SMOOTH",
"310 -127 OFFCURVE",
"299 -140 OFFCURVE",
"278 -140 CURVE SMOOTH",
"257 -140 OFFCURVE",
"246 -127 OFFCURVE",
"246 -104 CURVE SMOOTH",
"246 -75 OFFCURVE",
"259 -38 OFFCURVE",
"278 7 CURVE",
"335 69 LINE",
"548 689 LINE",
"452 689 LINE",
"279 135 LINE",
"221 69 LINE",
"179 -15 OFFCURVE",
"158 -64 OFFCURVE",
"158 -112 CURVE SMOOTH",
"158 -175 OFFCURVE",
"198 -213 OFFCURVE",
"278 -213 CURVE SMOOTH"
);
}
);
width = 554;
},
{
anchors = (
{
name = bottom;
position = "{289.5, -215}";
},
{
name = top;
position = "{289.5, 696}";
}
);
background = {
paths = (
{
closed = 1;
nodes = (
"388 696 LINE",
"293 143 LINE",
"187 696 LINE",
"-30 696 LINE",
"157 0 LINE",
"423 0 LINE",
"599 696 LINE"
);
}
);
};
layerId = UUID0;
paths = (
{
closed = 1;
nodes = (
"418 -227 OFFCURVE",
"463 -169 OFFCURVE",
"463 -89 CURVE SMOOTH",
"463 -23 OFFCURVE",
"440 36 OFFCURVE",
"394 106 CURVE",
"293 237 LINE",
"192 696 LINE",
"-25 696 LINE",
"193 106 LINE",
"293 6 LINE",
"309 -28 OFFCURVE",
"320 -51 OFFCURVE",
"320 -76 CURVE SMOOTH",
"320 -95 OFFCURVE",
"311 -106 OFFCURVE",
"293 -106 CURVE SMOOTH",
"276 -106 OFFCURVE",
"266 -96 OFFCURVE",
"266 -77 CURVE SMOOTH",
"266 -54 OFFCURVE",
"277 -27 OFFCURVE",
"293 6 CURVE",
"394 106 LINE",
"604 696 LINE",
"393 696 LINE",
"293 237 LINE",
"193 106 LINE",
"144 23 OFFCURVE",
"123 -29 OFFCURVE",
"123 -89 CURVE SMOOTH",
"123 -170 OFFCURVE",
"172 -227 OFFCURVE",
"293 -227 CURVE SMOOTH"
);
}
);
width = 579;
}
);
leftKerningGroup = V;
leftMetricsKey = V;
rightKerningGroup = V;
rightMetricsKey = V;
unicode = 0194;
},
{
export = 0;
glyphname = Ghook;
lastChange = "2015-11-20 10:13:18 +0000";
layers = (
{
anchors = (
{
name = bottom;
position = "{278, 0}";
},
{
name = top;
position = "{278, 682}";
}
);
background = {
paths = (
{
closed = 1;
nodes = (
"215 692 OFFCURVE",
"75 583 OFFCURVE",
"75 345 CURVE SMOOTH",
"75 109 OFFCURVE",
"189 -10 OFFCURVE",
"353 -10 CURVE SMOOTH",
"416 -10 OFFCURVE",
"481 8 OFFCURVE",
"538 42 CURVE",
"538 359 LINE",
"360 359 LINE",
"364 330 LINE",
"507 330 LINE",
"507 58 LINE",
"462 33 OFFCURVE",
"418 19 OFFCURVE",
"353 19 CURVE SMOOTH",
"207 19 OFFCURVE",
"107 125 OFFCURVE",
"107 345 CURVE SMOOTH",
"107 574 OFFCURVE",
"233 663 OFFCURVE",
"348 663 CURVE SMOOTH",
"411 663 OFFCURVE",
"456 647 OFFCURVE",
"504 610 CURVE",
"523 631 LINE",
"470 672 OFFCURVE",
"422 692 OFFCURVE",
"348 692 CURVE SMOOTH"
);
}
);
};
layerId = "BCC09A48-EAE1-493E-95CB-92D2C26BC05D";
paths = (
{
closed = 1;
nodes = (
"416 -10 OFFCURVE",
"481 8 OFFCURVE",
"538 42 CURVE",
"538 359 LINE",
"360 359 LINE",
"364 330 LINE",
"507 330 LINE",
"507 58 LINE",
"462 33 OFFCURVE",
"418 19 OFFCURVE",
"353 19 CURVE SMOOTH",
"207 19 OFFCURVE",
"107 125 OFFCURVE",
"107 345 CURVE SMOOTH",
"107 574 OFFCURVE",
"233 663 OFFCURVE",
"348 663 CURVE SMOOTH",
"411 663 OFFCURVE",
"457 648 OFFCURVE",
"507 613 CURVE",
"523 631 LINE",
"515 638 OFFCURVE",
"506 644 OFFCURVE",
"498 649 CURVE SMOOTH",
"454 678 OFFCURVE",
"410 692 OFFCURVE",
"348 692 CURVE SMOOTH",
"215 692 OFFCURVE",
"75 583 OFFCURVE",
"75 345 CURVE SMOOTH",
"75 109 OFFCURVE",
"189 -10 OFFCURVE",
"353 -10 CURVE SMOOTH"
);
},
{
closed = 1;
nodes = (
"523 631 LINE",
"523 700 LINE SMOOTH",
"523 769 OFFCURVE",
"556 791 OFFCURVE",
"596 791 CURVE SMOOTH",
"631 791 OFFCURVE",
"653 780 OFFCURVE",
"673 767 CURVE",
"688 787 LINE",
"668 802 OFFCURVE",
"639 818 OFFCURVE",
"596 818 CURVE SMOOTH",
"535 818 OFFCURVE",
"493 780 OFFCURVE",
"493 701 CURVE SMOOTH",
"493 638 LINE"
);
}
);
width = 556;
},
{
anchors = (
{
name = bottom;
position = "{294.5, 0}";
},
{
name = top;
position = "{294.5, 689}";
}
);
background = {
paths = (
{
closed = 1;
nodes = (
"197 701 OFFCURVE",
"55 577 OFFCURVE",
"55 345 CURVE SMOOTH",
"55 107 OFFCURVE",
"166 -12 OFFCURVE",
"337 -12 CURVE SMOOTH",
"434 -12 OFFCURVE",
"506 12 OFFCURVE",
"569 49 CURVE",
"569 382 LINE",
"342 382 LINE",
"353 305 LINE",
"475 305 LINE",
"475 98 LINE",
"436 75 OFFCURVE",
"390 66 OFFCURVE",
"344 66 CURVE SMOOTH",
"223 66 OFFCURVE",
"156 147 OFFCURVE",
"156 345 CURVE SMOOTH",
"156 548 OFFCURVE",
"255 623 OFFCURVE",
"354 623 CURVE SMOOTH",
"416 623 OFFCURVE",
"457 606 OFFCURVE",
"505 567 CURVE",
"561 625 LINE",
"502 674 OFFCURVE",
"445 701 OFFCURVE",
"352 701 CURVE SMOOTH"
);
}
);
};
layerId = "A11F629A-ECF3-413E-B2EC-6C6F8C33A243";
paths = (
{
closed = 1;
nodes = (
"434 -12 OFFCURVE",
"506 12 OFFCURVE",
"569 49 CURVE",
"569 382 LINE",
"342 382 LINE",
"353 305 LINE",
"475 305 LINE",
"475 98 LINE",
"436 75 OFFCURVE",
"390 66 OFFCURVE",
"344 66 CURVE SMOOTH",
"223 66 OFFCURVE",
"156 147 OFFCURVE",
"156 345 CURVE SMOOTH",
"156 548 OFFCURVE",
"255 623 OFFCURVE",
"354 623 CURVE SMOOTH",
"414 623 OFFCURVE",
"462 605 OFFCURVE",
"512 573 CURVE",
"561 625 LINE",
"537 645 OFFCURVE",
"513 662 OFFCURVE",
"486 664 CURVE",
"446 690 OFFCURVE",
"404 701 OFFCURVE",
"342 701 CURVE SMOOTH",
"198 701 OFFCURVE",
"55 577 OFFCURVE",
"55 345 CURVE SMOOTH",
"55 107 OFFCURVE",
"166 -12 OFFCURVE",
"337 -12 CURVE SMOOTH"
);
},
{
closed = 1;
nodes = (
"561 625 LINE",
"561 684 LINE SMOOTH",
"561 737 OFFCURVE",
"586 758 OFFCURVE",
"625 758 CURVE SMOOTH",
"658 758 OFFCURVE",
"676 749 OFFCURVE",
"699 735 CURVE",
"735 794 LINE",
"710 813 OFFCURVE",
"673 832 OFFCURVE",
"620 832 CURVE SMOOTH",
"524 832 OFFCURVE",
"469 776 OFFCURVE",
"469 676 CURVE SMOOTH",
"469 665 LINE"
);
}
);
width = 589;
},
{
anchors = (
{
name = bottom;
position = "{313, 0}";
},
{
name = top;
position = "{293, 744}";
}
);
background = {
paths = (
{
closed = 1;
nodes = (
"170 716 OFFCURVE",
"20 585 OFFCURVE",
"20 349 CURVE SMOOTH",
"20 112 OFFCURVE",
"122 -20 OFFCURVE",
"355 -20 CURVE SMOOTH",
"442 -20 OFFCURVE",
"543 9 OFFCURVE",
"618 60 CURVE",
"618 409 LINE",
"331 409 LINE",
"350 270 LINE",
"420 270 LINE",
"420 143 LINE",
"398 132 OFFCURVE",
"376 126 OFFCURVE",
"349 126 CURVE SMOOTH",
"268 126 OFFCURVE",
"232 176 OFFCURVE",
"232 348 CURVE SMOOTH",
"232 501 OFFCURVE",
"287 572 OFFCURVE",
"383 572 CURVE SMOOTH",
"436 572 OFFCURVE",
"472 554 OFFCURVE",
"514 518 CURVE",
"618 625 LINE",
"562 676 OFFCURVE",
"476 716 OFFCURVE",
"371 716 CURVE SMOOTH"
);
}
);
};
layerId = UUID0;
paths = (
{
closed = 1;
nodes = (
"442 -20 OFFCURVE",
"543 9 OFFCURVE",
"618 60 CURVE",
"618 409 LINE",
"331 409 LINE",
"350 270 LINE",
"420 270 LINE",
"420 143 LINE",
"398 132 OFFCURVE",
"376 126 OFFCURVE",
"349 126 CURVE SMOOTH",
"268 126 OFFCURVE",
"232 176 OFFCURVE",
"232 348 CURVE SMOOTH",
"232 501 OFFCURVE",
"287 572 OFFCURVE",
"383 572 CURVE SMOOTH",
"436 572 OFFCURVE",
"478 554 OFFCURVE",
"524 528 CURVE",
"618 625 LINE",
"586 654 OFFCURVE",
"545 675 OFFCURVE",
"497 671 CURVE",
"467 695 OFFCURVE",
"412 716 OFFCURVE",
"348 716 CURVE SMOOTH",
"174 716 OFFCURVE",
"20 585 OFFCURVE",
"20 349 CURVE SMOOTH",
"20 112 OFFCURVE",
"122 -20 OFFCURVE",
"355 -20 CURVE SMOOTH"
);
},
{
closed = 1;
nodes = (
"618 625 LINE",
"618 667 LINE SMOOTH",
"618 704 OFFCURVE",
"631 721 OFFCURVE",
"662 721 CURVE SMOOTH",
"684 721 OFFCURVE",
"703 715 OFFCURVE",
"726 704 CURVE",
"778 826 LINE",
"743 846 OFFCURVE",
"696 863 OFFCURVE",
"631 863 CURVE SMOOTH",
"505 863 OFFCURVE",
"450 794 OFFCURVE",
"450 684 CURVE SMOOTH",
"450 632 LINE"
);
}
);
width = 626;
}
);
leftKerningGroup = O;
rightKerningGroup = G;
rightMetricsKey = Chook;
unicode = 0193;
},
{
export = 0;
glyphname = Glottalstop;
lastChange = "2015-11-20 10:13:18 +0000";
layers = (
{
anchors = (
{
name = bottom;
position = "{228.5, 0}";
},
{
name = top;
position = "{228.5, 682}";
}
);
layerId = "BCC09A48-EAE1-493E-95CB-92D2C26BC05D";
paths = (
{
closed = 1;
nodes = (
"194 0 LINE",
"194 271 LINE",
"239 282 LINE SMOOTH",
"335 304 OFFCURVE",
"417 350 OFFCURVE",
"417 492 CURVE SMOOTH",
"417 607 OFFCURVE",
"342 692 OFFCURVE",
"218 692 CURVE SMOOTH",
"139 692 OFFCURVE",
"79 663 OFFCURVE",
"20 609 CURVE",
"40 589 LINE",
"91 634 OFFCURVE",
"146 663 OFFCURVE",
"217 663 CURVE SMOOTH",
"323 663 OFFCURVE",
"385 593 OFFCURVE",
"385 492 CURVE SMOOTH",
"385 375 OFFCURVE",
"325 333 OFFCURVE",
"236 311 CURVE SMOOTH",
"163 293 LINE",
"163 0 LINE"
);
}
);
width = 457;
},
{
anchors = (
{
name = bottom;
position = "{233, 0}";
},
{
name = top;
position = "{233, 689}";
}
);
background = {
paths = (
{
closed = 1;
nodes = (
"137 0 LINE",
"235 0 LINE",
"235 278 LINE",
"257 283 LINE SMOOTH",
"379 308 OFFCURVE",
"444 382 OFFCURVE",
"444 496 CURVE SMOOTH",
"444 619 OFFCURVE",
"353 701 OFFCURVE",
"215 701 CURVE SMOOTH",
"128 701 OFFCURVE",
"62 675 OFFCURVE",
"2 631 CURVE",
"44 563 LINE",
"99 602 OFFCURVE",
"143 622 OFFCURVE",
"203 622 CURVE SMOOTH",
"281 622 OFFCURVE",
"337 573 OFFCURVE",
"337 491 CURVE SMOOTH",
"337 405 OFFCURVE",
"288 355 OFFCURVE",
"212 337 CURVE SMOOTH",
"137 319 LINE"
);
},
{
closed = 1;
nodes = (
"153 701 OFFCURVE",
"82 672 OFFCURVE",
"19 616 CURVE",
"71 559 LINE",
"120 601 OFFCURVE",
"172 623 OFFCURVE",
"229 623 CURVE SMOOTH",
"312 623 OFFCURVE",
"346 575 OFFCURVE",
"346 517 CURVE SMOOTH",
"346 446 OFFCURVE",
"294 403 OFFCURVE",
"215 403 CURVE SMOOTH",
"161 403 LINE",
"148 325 LINE",
"214 325 LINE SMOOTH",
"315 325 OFFCURVE",
"366 279 OFFCURVE",
"366 199 CURVE SMOOTH",
"366 118 OFFCURVE",
"312 68 OFFCURVE",
"217 68 CURVE SMOOTH",
"149 68 OFFCURVE",
"98 93 OFFCURVE",
"58 135 CURVE",
"2 81 LINE",
"58 18 OFFCURVE",
"137 -12 OFFCURVE",
"222 -12 CURVE SMOOTH",
"364 -12 OFFCURVE",
"468 72 OFFCURVE",
"468 198 CURVE SMOOTH",
"468 305 OFFCURVE",
"394 360 OFFCURVE",
"310 369 CURVE",
"390 387 OFFCURVE",
"445 438 OFFCURVE",
"445 525 CURVE SMOOTH",
"445 623 OFFCURVE",
"376 701 OFFCURVE",
"237 701 CURVE SMOOTH"
);
}
);
};
layerId = "A11F629A-ECF3-413E-B2EC-6C6F8C33A243";
paths = (
{
closed = 1;
nodes = (
"245 0 LINE",
"245 273 LINE",
"267 279 LINE SMOOTH",
"356 306 OFFCURVE",
"446 352 OFFCURVE",
"446 492 CURVE SMOOTH",
"446 614 OFFCURVE",
"361 701 OFFCURVE",
"224 701 CURVE SMOOTH",
"139 701 OFFCURVE",
"74 672 OFFCURVE",
"10 616 CURVE",
"62 559 LINE",
"111 601 OFFCURVE",
"160 623 OFFCURVE",
"220 623 CURVE SMOOTH",
"302 623 OFFCURVE",
"346 569 OFFCURVE",
"346 487 CURVE SMOOTH",
"346 395 OFFCURVE",
"298 359 OFFCURVE",
"222 338 CURVE SMOOTH",
"150 319 LINE",
"150 0 LINE"
);
}
);
width = 466;
},
{
anchors = (
{
name = bottom;
position = "{267.5, 0}";
},
{
name = top;
position = "{267.5, 696}";
}
);
layerId = UUID0;
paths = (
{
closed = 1;
nodes = (
"351 0 LINE",
"351 282 LINE",
"378 293 LINE SMOOTH",
"473 333 OFFCURVE",
"515 391 OFFCURVE",
"515 493 CURVE SMOOTH",
"515 627 OFFCURVE",
"415 716 OFFCURVE",
"251 716 CURVE SMOOTH",
"150 716 OFFCURVE",
"66 683 OFFCURVE",
"0 620 CURVE",
"95 520 LINE",
"140 556 OFFCURVE",
"176 572 OFFCURVE",
"219 572 CURVE SMOOTH",
"272 572 OFFCURVE",
"303 538 OFFCURVE",
"303 483 CURVE SMOOTH",
"303 410 OFFCURVE",
"273 374 OFFCURVE",
"190 350 CURVE SMOOTH",
"145 337 LINE",
"145 0 LINE"
);
}
);
width = 535;
}
);
leftKerningGroup = Glottalstop;
rightKerningGroup = Glottalstop;
unicode = 0241;
},
{
export = 0;
glyphname = Gstroke;
lastChange = "2015-11-20 10:13:18 +0000";
layers = (
{
anchors = (
{
name = bottom;
position = "{320.5, 0}";
},
{
name = top;
position = "{320.5, 689}";
}
);
background = {
paths = (
{
closed = 1;
nodes = (
"197 701 OFFCURVE",
"55 577 OFFCURVE",
"55 345 CURVE SMOOTH",
"55 107 OFFCURVE",
"166 -12 OFFCURVE",
"337 -12 CURVE SMOOTH",
"434 -12 OFFCURVE",
"506 12 OFFCURVE",
"569 49 CURVE",
"569 382 LINE",
"342 382 LINE",
"353 305 LINE",
"475 305 LINE",
"475 98 LINE",
"436 75 OFFCURVE",
"390 66 OFFCURVE",
"344 66 CURVE SMOOTH",
"223 66 OFFCURVE",
"156 147 OFFCURVE",
"156 345 CURVE SMOOTH",
"156 548 OFFCURVE",
"255 623 OFFCURVE",
"354 623 CURVE SMOOTH",
"416 623 OFFCURVE",
"457 606 OFFCURVE",
"505 567 CURVE",
"561 625 LINE",
"502 674 OFFCURVE",
"445 701 OFFCURVE",
"352 701 CURVE SMOOTH"
);
}
);
};
components = (
{
alignment = -1;
name = hyphen;
transform = "{1, 0, 0, 1, 293, -105}";
}
);
layerId = "A11F629A-ECF3-413E-B2EC-6C6F8C33A243";
paths = (
{
closed = 1;
nodes = (
"197 701 OFFCURVE",
"55 577 OFFCURVE",
"55 345 CURVE SMOOTH",
"55 107 OFFCURVE",
"166 -12 OFFCURVE",
"337 -12 CURVE SMOOTH",
"434 -12 OFFCURVE",
"506 12 OFFCURVE",
"569 49 CURVE",
"569 382 LINE",
"342 382 LINE",
"353 305 LINE",
"475 305 LINE",
"475 98 LINE",
"436 75 OFFCURVE",
"390 66 OFFCURVE",
"344 66 CURVE SMOOTH",
"223 66 OFFCURVE",
"156 147 OFFCURVE",
"156 345 CURVE SMOOTH",
"156 548 OFFCURVE",
"255 623 OFFCURVE",
"354 623 CURVE SMOOTH",
"416 623 OFFCURVE",
"457 606 OFFCURVE",
"505 567 CURVE",
"561 625 LINE",
"502 674 OFFCURVE",
"445 701 OFFCURVE",
"352 701 CURVE SMOOTH"
);
}
);
width = 641;
},
{
anchors = (
{
name = bottom;
position = "{340, 0}";
},
{
name = top;
position = "{340, 696}";
}
);
background = {
paths = (
{
closed = 1;
nodes = (
"170 716 OFFCURVE",
"20 585 OFFCURVE",
"20 349 CURVE SMOOTH",
"20 112 OFFCURVE",
"122 -20 OFFCURVE",
"355 -20 CURVE SMOOTH",
"442 -20 OFFCURVE",
"543 9 OFFCURVE",
"618 60 CURVE",
"618 409 LINE",
"331 409 LINE",
"350 270 LINE",
"420 270 LINE",
"420 143 LINE",
"398 132 OFFCURVE",
"376 126 OFFCURVE",
"349 126 CURVE SMOOTH",
"268 126 OFFCURVE",
"232 176 OFFCURVE",
"232 348 CURVE SMOOTH",
"232 501 OFFCURVE",
"287 572 OFFCURVE",
"383 572 CURVE SMOOTH",
"436 572 OFFCURVE",
"472 554 OFFCURVE",
"514 518 CURVE",
"618 625 LINE",
"562 676 OFFCURVE",
"476 716 OFFCURVE",
"371 716 CURVE SMOOTH"
);
}
);
};
components = (
{
alignment = -1;
name = hyphen;
transform = "{1, 0, 0, 0.7, 305, 14}";
}
);
layerId = UUID0;
paths = (
{
closed = 1;
nodes = (
"170 716 OFFCURVE",
"20 585 OFFCURVE",
"20 349 CURVE SMOOTH",
"20 112 OFFCURVE",
"122 -20 OFFCURVE",
"355 -20 CURVE SMOOTH",
"442 -20 OFFCURVE",
"543 9 OFFCURVE",
"618 60 CURVE",
"618 434 LINE",
"331 434 LINE",
"347 320 LINE",
"440 320 LINE",
"440 143 LINE",
"398 132 OFFCURVE",
"376 126 OFFCURVE",
"349 126 CURVE SMOOTH",
"268 126 OFFCURVE",
"232 176 OFFCURVE",
"232 348 CURVE SMOOTH",
"232 501 OFFCURVE",
"287 572 OFFCURVE",
"383 572 CURVE SMOOTH",
"436 572 OFFCURVE",
"472 554 OFFCURVE",
"514 518 CURVE",
"618 625 LINE",
"562 676 OFFCURVE",
"476 716 OFFCURVE",
"371 716 CURVE SMOOTH"
);
}
);
width = 680;
},
{
anchors = (
{
name = bottom;
position = "{311.5, 0}";
},
{
name = top;
position = "{311.5, 682}";
}
);
background = {
paths = (
{
closed = 1;
nodes = (
"215 692 OFFCURVE",
"75 583 OFFCURVE",
"75 345 CURVE SMOOTH",
"75 109 OFFCURVE",
"189 -10 OFFCURVE",
"353 -10 CURVE SMOOTH",
"416 -10 OFFCURVE",
"481 8 OFFCURVE",
"538 42 CURVE",
"538 359 LINE",
"360 359 LINE",
"364 330 LINE",
"507 330 LINE",
"507 58 LINE",
"462 33 OFFCURVE",
"418 19 OFFCURVE",
"353 19 CURVE SMOOTH",
"207 19 OFFCURVE",
"107 125 OFFCURVE",
"107 345 CURVE SMOOTH",
"107 574 OFFCURVE",
"233 663 OFFCURVE",
"348 663 CURVE SMOOTH",
"411 663 OFFCURVE",
"456 647 OFFCURVE",
"504 610 CURVE",
"523 631 LINE",
"470 672 OFFCURVE",
"422 692 OFFCURVE",
"348 692 CURVE SMOOTH"
);
}
);
};
components = (
{
alignment = -1;
name = hyphen;
transform = "{1, 0, 0, 1, 289, -90}";
}
);
layerId = "BCC09A48-EAE1-493E-95CB-92D2C26BC05D";
paths = (
{
closed = 1;
nodes = (
"215 692 OFFCURVE",
"75 583 OFFCURVE",
"75 345 CURVE SMOOTH",
"75 109 OFFCURVE",
"189 -10 OFFCURVE",
"353 -10 CURVE SMOOTH",
"416 -10 OFFCURVE",
"481 8 OFFCURVE",
"538 42 CURVE",
"538 359 LINE",
"360 359 LINE",
"364 330 LINE",
"507 330 LINE",
"507 58 LINE",
"462 33 OFFCURVE",
"418 19 OFFCURVE",
"353 19 CURVE SMOOTH",
"207 19 OFFCURVE",
"107 125 OFFCURVE",
"107 345 CURVE SMOOTH",
"107 574 OFFCURVE",
"233 663 OFFCURVE",
"348 663 CURVE SMOOTH",
"411 663 OFFCURVE",
"456 647 OFFCURVE",
"504 610 CURVE",
"523 631 LINE",
"470 672 OFFCURVE",
"422 692 OFFCURVE",
"348 692 CURVE SMOOTH"
);
}
);
width = 623;
}
);
leftKerningGroup = O;
leftMetricsKey = G;
rightKerningGroup = G;
unicode = 01E4;
},
{
color = 6;
export = 0;
glyphname = Hturned.ss02;
lastChange = "2015-11-20 10:13:18 +0000";
layers = (
{
anchors = (
{
name = bottom;
position = "{300.5, 0}";
},
{
name = top;
position = "{300.5, 689}";
}
);
background = {
paths = (
{
closed = 1;
nodes = (
"29 689 LINE",
"29 424 LINE SMOOTH",
"29 297 OFFCURVE",
"109 217 OFFCURVE",
"231 217 CURVE SMOOTH",
"310 217 OFFCURVE",
"359 240 OFFCURVE",
"425 292 CURVE",
"415 365 LINE",
"382 329 OFFCURVE",
"332 298 OFFCURVE",
"255 298 CURVE SMOOTH",
"171 298 OFFCURVE",
"124 339 OFFCURVE",
"124 431 CURVE SMOOTH",
"124 689 LINE"
);
},
{
closed = 1;
nodes = (
"406 689 LINE",
"406 0 LINE",
"501 0 LINE",
"501 689 LINE"
);
},
{
closed = 1;
nodes = (
"501 0 LINE",
"501 689 LINE",
"406 689 LINE",
"406 401 LINE",
"116 401 LINE",
"116 689 LINE",
"21 689 LINE",
"21 0 LINE",
"116 0 LINE",
"116 323 LINE",
"406 323 LINE",
"406 0 LINE"
);
}
);
};
layerId = "A11F629A-ECF3-413E-B2EC-6C6F8C33A243";
paths = (
{
closed = 1;
nodes = (
"501 0 LINE",
"501 689 LINE",
"406 689 LINE",
"406 346 LINE",
"143 346 LINE",
"143 689 LINE",
"48 689 LINE",
"48 268 LINE",
"406 268 LINE",
"406 0 LINE"
);
}
);
width = 601;
},
{
anchors = (
{
name = bottom;
position = "{286.5, 0}";
},
{
name = top;
position = "{286.5, 682}";
}
);
background = {
paths = (
{
closed = 1;
nodes = (
"44 682 LINE",
"44 415 LINE SMOOTH",
"44 297 OFFCURVE",
"121 228 OFFCURVE",
"233 228 CURVE SMOOTH",
"319 228 OFFCURVE",
"381 265 OFFCURVE",
"428 317 CURVE",
"427 353 LINE",
"387 296 OFFCURVE",
"316 257 OFFCURVE",
"237 257 CURVE SMOOTH",
"137 257 OFFCURVE",
"75 315 OFFCURVE",
"75 417 CURVE SMOOTH",
"75 682 LINE"
);
},
{
closed = 1;
nodes = (
"422 682 LINE",
"422 0 LINE",
"453 0 LINE",
"453 682 LINE"
);
},
{
closed = 1;
nodes = (
"453 0 LINE",
"453 682 LINE",
"422 682 LINE",
"422 374 LINE",
"62 374 LINE",
"62 682 LINE",
"31 682 LINE",
"31 0 LINE",
"62 0 LINE",
"62 345 LINE",
"422 345 LINE",
"422 0 LINE"
);
}
);
};
layerId = "BCC09A48-EAE1-493E-95CB-92D2C26BC05D";
paths = (
{
closed = 1;
nodes = (
"453 0 LINE",
"453 682 LINE",
"422 682 LINE",
"422 294 LINE",
"91 294 LINE",
"91 682 LINE",
"60 682 LINE",
"60 265 LINE",
"422 265 LINE",
"422 0 LINE"
);
}
);
width = 573;
},
{
anchors = (
{
name = bottom;
position = "{298, 0}";
},
{
name = top;
position = "{298, 696}";
}
);
background = {
paths = (
{
closed = 1;
nodes = (
"-17 696 LINE",
"-17 451 LINE SMOOTH",
"-17 293 OFFCURVE",
"62 195 OFFCURVE",
"205 195 CURVE SMOOTH",
"269 195 OFFCURVE",
"317 215 OFFCURVE",
"359 254 CURVE",
"358 379 LINE",
"336 355 OFFCURVE",
"311 341 OFFCURVE",
"266 341 CURVE SMOOTH",
"207 341 OFFCURVE",
"185 374 OFFCURVE",
"185 451 CURVE SMOOTH",
"185 696 LINE"
);
},
{
closed = 1;
nodes = (
"347 696 LINE",
"347 0 LINE",
"549 0 LINE",
"549 696 LINE"
);
},
{
closed = 1;
nodes = (
"553 0 LINE",
"553 696 LINE",
"347 696 LINE",
"347 439 LINE",
"188 439 LINE",
"188 696 LINE",
"-18 696 LINE",
"-18 0 LINE",
"188 0 LINE",
"188 281 LINE",
"347 281 LINE",
"347 0 LINE"
);
}
);
};
layerId = UUID0;
paths = (
{
closed = 1;
nodes = (
"553 0 LINE",
"553 696 LINE",
"347 696 LINE",
"347 389 LINE",
"218 389 LINE",
"218 696 LINE",
"12 696 LINE",
"12 230 LINE",
"347 231 LINE",
"347 0 LINE"
);
}
);
width = 596;
}
);
leftKerningGroup = "Che-cy";
leftMetricsKey = "=Che-cy*1.2";
rightKerningGroup = H;
rightMetricsKey = H;
},
{
export = 0;
glyphname = Hwair;
lastChange = "2015-11-20 10:13:18 +0000";
layers = (
{
anchors = (
{
name = bottom;
position = "{484.5, 0}";
},
{
name = top;
position = "{484.5, 689}";
}
);
background = {
paths = (
{
closed = 1;
nodes = (
"780 527 LINE",
"799 428 OFFCURVE",
"806 338 OFFCURVE",
"806 263 CURVE SMOOTH",
"806 106 OFFCURVE",
"730 62 OFFCURVE",
"671 62 CURVE SMOOTH",
"613 62 OFFCURVE",
"580 97 OFFCURVE",
"580 171 CURVE SMOOTH",
"580 527 LINE",
"488 527 LINE",
"488 163 LINE SMOOTH",
"488 48 OFFCURVE",
"569 -12 OFFCURVE",
"667 -12 CURVE SMOOTH",
"779 -12 OFFCURVE",
"899 66 OFFCURVE",
"899 255 CURVE SMOOTH",
"899 358 OFFCURVE",
"889 440 OFFCURVE",
"873 527 CURVE"
);
},
{
closed = 1;
nodes = (
"580 0 LINE",
"580 689 LINE",
"485 689 LINE",
"485 401 LINE",
"195 401 LINE",
"195 689 LINE",
"100 689 LINE",
"100 0 LINE",
"195 0 LINE",
"195 323 LINE",
"485 323 LINE",
"485 0 LINE"
);
}
);
};
layerId = "A11F629A-ECF3-413E-B2EC-6C6F8C33A243";
paths = (
{
closed = 1;
nodes = (
"195 0 LINE",
"195 323 LINE",
"485 323 LINE",
"485 252 LINE",
"580 252 LINE",
"580 689 LINE",
"485 689 LINE",
"485 401 LINE",
"195 401 LINE",
"195 689 LINE",
"100 689 LINE",
"100 0 LINE"
);
},
{
closed = 1;
nodes = (
"779 -12 OFFCURVE",
"899 66 OFFCURVE",
"899 255 CURVE SMOOTH",
"899 358 OFFCURVE",
"889 440 OFFCURVE",
"873 527 CURVE",
"780 527 LINE",
"799 428 OFFCURVE",
"806 338 OFFCURVE",
"806 263 CURVE SMOOTH",
"806 106 OFFCURVE",
"730 62 OFFCURVE",
"671 62 CURVE SMOOTH",
"613 62 OFFCURVE",
"580 97 OFFCURVE",
"580 171 CURVE SMOOTH",
"580 527 LINE",
"485 527 LINE",
"485 163 LINE SMOOTH",
"485 50 OFFCURVE",
"569 -12 OFFCURVE",
"667 -12 CURVE SMOOTH"
);
}
);
width = 969;
},
{
anchors = (
{
name = bottom;
position = "{470, 0}";
},
{
name = top;
position = "{470, 696}";
}
);
background = {
paths = (
{
closed = 1;
nodes = (
"690 534 LINE",
"705 444 OFFCURVE",
"717 346 OFFCURVE",
"717 259 CURVE SMOOTH",
"717 158 OFFCURVE",
"689 122 OFFCURVE",
"655 122 CURVE SMOOTH",
"630 122 OFFCURVE",
"614 137 OFFCURVE",
"614 190 CURVE SMOOTH",
"614 534 LINE",
"416 534 LINE",
"416 191 LINE SMOOTH",
"416 39 OFFCURVE",
"520 -20 OFFCURVE",
"639 -20 CURVE SMOOTH",
"776 -20 OFFCURVE",
"915 54 OFFCURVE",
"915 244 CURVE SMOOTH",
"915 359 OFFCURVE",
"899 456 OFFCURVE",
"884 534 CURVE"
);
},
{
closed = 1;
nodes = (
"614 0 LINE",
"614 696 LINE",
"408 696 LINE",
"408 439 LINE",
"249 439 LINE",
"249 696 LINE",
"43 696 LINE",
"43 0 LINE",
"249 0 LINE",
"249 281 LINE",
"408 281 LINE",
"408 0 LINE"
);
}
);
};
layerId = UUID0;
paths = (
{
closed = 1;
nodes = (
"249 0 LINE",
"249 281 LINE",
"408 281 LINE",
"408 234 LINE",
"614 234 LINE",
"614 696 LINE",
"408 696 LINE",
"408 439 LINE",
"249 439 LINE",
"249 696 LINE",
"43 696 LINE",
"43 0 LINE"
);
},
{
closed = 1;
nodes = (
"776 -20 OFFCURVE",
"915 54 OFFCURVE",
"915 244 CURVE SMOOTH",
"915 359 OFFCURVE",
"899 456 OFFCURVE",
"884 534 CURVE",
"690 534 LINE",
"705 444 OFFCURVE",
"717 346 OFFCURVE",
"717 259 CURVE SMOOTH",
"717 158 OFFCURVE",
"689 122 OFFCURVE",
"655 122 CURVE SMOOTH",
"630 122 OFFCURVE",
"614 137 OFFCURVE",
"614 190 CURVE SMOOTH",
"614 534 LINE",
"408 534 LINE",
"408 191 LINE SMOOTH",
"408 39 OFFCURVE",
"512 -20 OFFCURVE",
"639 -20 CURVE SMOOTH"
);
}
);
width = 940;
},
{
anchors = (
{
name = bottom;
position = "{480, 0}";
},
{
name = top;
position = "{480, 682}";
}
);
background = {
paths = (
{
closed = 1;
nodes = (
"813 520 LINE",
"826 444 OFFCURVE",
"839 356 OFFCURVE",
"839 265 CURVE SMOOTH",
"839 76 OFFCURVE",
"755 18 OFFCURVE",
"673 18 CURVE SMOOTH",
"600 18 OFFCURVE",
"542 58 OFFCURVE",
"542 157 CURVE SMOOTH",
"542 520 LINE",
"512 520 LINE",
"512 156 LINE SMOOTH",
"512 45 OFFCURVE",
"582 -10 OFFCURVE",
"673 -10 CURVE SMOOTH",
"781 -10 OFFCURVE",
"870 73 OFFCURVE",
"870 265 CURVE SMOOTH",
"870 357 OFFCURVE",
"857 444 OFFCURVE",
"844 520 CURVE"
);
},
{
closed = 1;
nodes = (
"542 0 LINE",
"542 682 LINE",
"511 682 LINE",
"511 374 LINE",
"151 374 LINE",
"151 682 LINE",
"120 682 LINE",
"120 0 LINE",
"151 0 LINE",
"151 345 LINE",
"511 345 LINE",
"511 0 LINE"
);
}
);
};
layerId = "BCC09A48-EAE1-493E-95CB-92D2C26BC05D";
paths = (
{
closed = 1;
nodes = (
"151 0 LINE",
"151 345 LINE",
"511 345 LINE",
"511 233 LINE",
"542 233 LINE",
"542 682 LINE",
"511 682 LINE",
"511 374 LINE",
"151 374 LINE",
"151 682 LINE",
"120 682 LINE",
"120 0 LINE"
);
},
{
closed = 1;
nodes = (
"781 -10 OFFCURVE",
"870 73 OFFCURVE",
"870 265 CURVE SMOOTH",
"870 357 OFFCURVE",
"857 444 OFFCURVE",
"844 520 CURVE",
"813 520 LINE",
"826 444 OFFCURVE",
"839 356 OFFCURVE",
"839 265 CURVE SMOOTH",
"839 76 OFFCURVE",
"755 18 OFFCURVE",
"673 18 CURVE SMOOTH",
"600 18 OFFCURVE",
"542 58 OFFCURVE",
"542 157 CURVE SMOOTH",
"542 520 LINE",
"511 520 LINE",
"511 156 LINE SMOOTH",
"511 45 OFFCURVE",
"582 -10 OFFCURVE",
"673 -10 CURVE SMOOTH"
);
}
);
width = 960;
}
);
leftKerningGroup = H;
leftMetricsKey = H;
rightKerningGroup = n;
rightMetricsKey = upsilon;
unicode = 01F6;
},
{
export = 0;
glyphname = Iotaafrican;
lastChange = "2015-11-20 10:13:18 +0000";
layers = (
{
anchors = (
{
name = bottom;
position = "{193, 0}";
},
{
name = top;
position = "{126, 682}";
}
);
background = {
paths = (
{
closed = 1;
nodes = (
"110 682 LINE",
"110 0 LINE",
"141 0 LINE",
"141 682 LINE"
);
}
);
};
components = (
{
name = hookHELPER.case;
transform = "{-1, 0, 0, 1, 344, 189}";
}
);
layerId = "BCC09A48-EAE1-493E-95CB-92D2C26BC05D";
paths = (
{
closed = 1;
nodes = (
"110 682 LINE",
"110 189 LINE",
"141 189 LINE",
"141 682 LINE"
);
}
);
width = 325;
},
{
anchors = (
{
name = bottom;
position = "{203, 0}";
},
{
name = top;
position = "{138, 689}";
}
);
components = (
{
name = hookHELPER.case;
transform = "{-1, 0, 0, 1, 386, 201}";
}
);
layerId = "A11F629A-ECF3-413E-B2EC-6C6F8C33A243";
paths = (
{
closed = 1;
nodes = (
"90 689 LINE",
"90 201 LINE",
"185 201 LINE",
"185 689 LINE"
);
}
);
width = 366;
},
{
anchors = (
{
name = bottom;
position = "{213, 0}";
},
{
name = top;
position = "{136, 696}";
}
);
background = {
paths = (
{
closed = 1;
nodes = (
"33 696 LINE",
"33 0 LINE",
"239 0 LINE",
"239 696 LINE"
);
}
);
};
components = (
{
name = hookHELPER.case;
transform = "{-1, 0, 0, 1, 451, 207}";
}
);
layerId = UUID0;
paths = (
{
closed = 1;
nodes = (
"33 696 LINE",
"33 207 LINE",
"239 207 LINE",
"239 696 LINE"
);
}
);
width = 406;
}
);
leftKerningGroup = U;
leftMetricsKey = U;
rightKerningGroup = L;
unicode = 0196;
},
{
color = 7;
export = 0;
glyphname = Istroke;
lastChange = "2015-11-20 10:13:18 +0000";
layers = (
{
background = {
paths = (
{
closed = 1;
nodes = (
"525 0 LINE",
"525 682 LINE",
"494 682 LINE",
"494 374 LINE",
"134 374 LINE",
"134 682 LINE",
"103 682 LINE",
"103 0 LINE",
"134 0 LINE",
"134 345 LINE",
"494 345 LINE",
"494 0 LINE"
);
}
);
};
components = (
{
alignment = -1;
name = I;
transform = "{1, 0, 0, 1, 24, 0}";
},
{
name = hyphen;
transform = "{1, 0, 0, 1, -40, 47}";
}
);
layerId = "BCC09A48-EAE1-493E-95CB-92D2C26BC05D";
width = 319;
},
{
background = {
paths = (
{
closed = 1;
nodes = (
"560 0 LINE",
"560 689 LINE",
"465 689 LINE",
"465 401 LINE",
"175 401 LINE",
"175 689 LINE",
"80 689 LINE",
"80 0 LINE",
"175 0 LINE",
"175 323 LINE",
"465 323 LINE",
"465 0 LINE"
);
}
);
};
components = (
{
alignment = -1;
name = I;
transform = "{1, 0, 0, 1, 9, 0}";
},
{
name = hyphen;
transform = "{1, 0, 0, 0.95, -45, 62}";
}
);
layerId = "A11F629A-ECF3-413E-B2EC-6C6F8C33A243";
width = 313;
},
{
background = {
paths = (
{
closed = 1;
nodes = (
"614 0 LINE",
"614 696 LINE",
"408 696 LINE",
"408 439 LINE",
"249 439 LINE",
"249 696 LINE",
"43 696 LINE",
"43 0 LINE",
"249 0 LINE",
"249 281 LINE",
"408 281 LINE",
"408 0 LINE"
);
}
);
};
components = (
{
alignment = -1;
name = I;
transform = "{1, 0, 0, 1, 24, 0}";
},
{
name = hyphen;
transform = "{1, 0, 0, 1, -35, 47}";
}
);
layerId = UUID0;
width = 340;
}
);
leftKerningGroup = H;
rightKerningGroup = H;
unicode = 0197;
},
{
export = 0;
glyphname = Khook;
lastChange = "2015-11-20 10:13:18 +0000";
layers = (
{
anchors = (
{
name = bottom;
position = "{272.5, 0}";
},
{
name = top;
position = "{272.5, 682}";
}
);
background = {
paths = (
{
closed = 1;
nodes = (
"120 682 LINE",
"120 0 LINE",
"151 0 LINE",
"151 682 LINE"
);
},
{
closed = 1;
nodes = (
"413 659 OFFCURVE",
"430 664 OFFCURVE",
"456 664 CURVE SMOOTH",
"479 664 OFFCURVE",
"495 656 OFFCURVE",
"514 642 CURVE",
"530 662 LINE",
"510 679 OFFCURVE",
"485 692 OFFCURVE",
"456 692 CURVE SMOOTH",
"415 692 OFFCURVE",
"391 675 OFFCURVE",
"349 620 CURVE SMOOTH",
"154 367 LINE",
"475 0 LINE",
"513 0 LINE",
"194 367 LINE",
"369 600 LINE SMOOTH"
);
}
);
};
layerId = "BCC09A48-EAE1-493E-95CB-92D2C26BC05D";
paths = (
{
closed = 1;
nodes = (
"120 682 LINE",
"120 0 LINE",
"151 0 LINE",
"151 682 LINE"
);
},
{
closed = 1;
nodes = (
"408 660 OFFCURVE",
"430 664 OFFCURVE",
"461 664 CURVE SMOOTH",
"489 664 OFFCURVE",
"510 651 OFFCURVE",
"528 636 CURVE",
"545 654 LINE",
"525 674 OFFCURVE",
"495 692 OFFCURVE",
"461 692 CURVE SMOOTH",
"414 692 OFFCURVE",
"386 676 OFFCURVE",
"344 620 CURVE SMOOTH",
"154 367 LINE",
"475 0 LINE",
"513 0 LINE",
"194 367 LINE",
"364 600 LINE SMOOTH"
);
}
);
width = 545;
},
{
anchors = (
{
name = bottom;
position = "{308.5, 0}";
},
{
name = top;
position = "{308.5, 689}";
}
);
background = {
paths = (
{
closed = 1;
nodes = (
"100 689 LINE",
"100 0 LINE",
"195 0 LINE",
"195 689 LINE"
);
},
{
closed = 1;
nodes = (
"477 615 OFFCURVE",
"497 624 OFFCURVE",
"523 624 CURVE SMOOTH",
"541 624 OFFCURVE",
"553 620 OFFCURVE",
"568 612 CURVE",
"602 673 LINE",
"578 690 OFFCURVE",
"554 701 OFFCURVE",
"513 701 CURVE SMOOTH",
"452 701 OFFCURVE",
"419 672 OFFCURVE",
"374 610 CURVE SMOOTH",
"200 368 LINE",
"472 0 LINE",
"589 0 LINE",
"308 374 LINE",
"443 566 LINE SMOOTH"
);
}
);
};
layerId = "A11F629A-ECF3-413E-B2EC-6C6F8C33A243";
paths = (
{
closed = 1;
nodes = (
"100 689 LINE",
"100 0 LINE",
"195 0 LINE",
"195 689 LINE"
);
},
{
closed = 1;
nodes = (
"472 616 OFFCURVE",
"492 624 OFFCURVE",
"523 624 CURVE SMOOTH",
"552 624 OFFCURVE",
"568 615 OFFCURVE",
"583 605 CURVE",
"617 666 LINE",
"593 685 OFFCURVE",
"564 701 OFFCURVE",
"517 701 CURVE SMOOTH",
"450 701 OFFCURVE",
"413 673 OFFCURVE",
"369 610 CURVE SMOOTH",
"200 368 LINE",
"472 0 LINE",
"589 0 LINE",
"308 374 LINE",
"438 566 LINE SMOOTH"
);
}
);
width = 617;
},
{
anchors = (
{
name = bottom;
position = "{337.5, 0}";
},
{
name = top;
position = "{337.5, 696}";
}
);
background = {
paths = (
{
closed = 1;
nodes = (
"43 696 LINE",
"43 0 LINE",
"249 0 LINE",
"249 696 LINE"
);
},
{
closed = 1;
nodes = (
"571 566 OFFCURVE",
"583 574 OFFCURVE",
"602 574 CURVE SMOOTH",
"615 574 OFFCURVE",
"625 571 OFFCURVE",
"634 567 CURVE",
"683 681 LINE",
"651 701 OFFCURVE",
"619 716 OFFCURVE",
"565 716 CURVE SMOOTH",
"476 716 OFFCURVE",
"431 679 OFFCURVE",
"374 580 CURVE SMOOTH",
"255 371 LINE",
"445 0 LINE",
"679 0 LINE",
"464 387 LINE",
"547 526 LINE SMOOTH"
);
}
);
};
layerId = UUID0;
paths = (
{
closed = 1;
nodes = (
"43 696 LINE",
"43 0 LINE",
"249 0 LINE",
"249 696 LINE"
);
},
{
closed = 1;
nodes = (
"571 566 OFFCURVE",
"584 574 OFFCURVE",
"608 574 CURVE SMOOTH",
"626 574 OFFCURVE",
"637 568 OFFCURVE",
"646 564 CURVE",
"695 677 LINE",
"669 697 OFFCURVE",
"629 716 OFFCURVE",
"575 716 CURVE SMOOTH",
"479 716 OFFCURVE",
"432 679 OFFCURVE",
"375 580 CURVE SMOOTH",
"255 371 LINE",
"445 0 LINE",
"679 0 LINE",
"464 387 LINE",
"547 526 LINE SMOOTH"
);
}
);
width = 675;
}
);
leftKerningGroup = H;
leftMetricsKey = H;
rightKerningGroup = K;
rightMetricsKey = K;
unicode = 0198;
},
{
export = 0;
glyphname = Mturned;
lastChange = "2015-11-20 10:13:18 +0000";
layers = (
{
anchors = (
{
name = bottom;
position = "{466.5, 0}";
},
{
name = top;
position = "{466.5, 689}";
}
);
layerId = "A11F629A-ECF3-413E-B2EC-6C6F8C33A243";
paths = (
{
closed = 1;
nodes = (
"653 -12 OFFCURVE",
"708 22 OFFCURVE",
"754 95 CURVE",
"738 159 LINE",
"693 93 OFFCURVE",
"658 66 OFFCURVE",
"599 66 CURVE SMOOTH",
"541 66 OFFCURVE",
"509 112 OFFCURVE",
"509 191 CURVE SMOOTH",
"509 689 LINE",
"414 689 LINE",
"414 189 LINE SMOOTH",
"414 72 OFFCURVE",
"474 -12 OFFCURVE",
"582 -12 CURVE SMOOTH"
);
},
{
closed = 1;
nodes = (
"833 0 LINE",
"833 689 LINE",
"738 689 LINE",
"738 129 LINE",
"751 0 LINE"
);
},
{
closed = 1;
nodes = (
"329 -12 OFFCURVE",
"384 22 OFFCURVE",
"439 96 CURVE",
"417 161 LINE",
"369 93 OFFCURVE",
"334 66 OFFCURVE",
"275 66 CURVE SMOOTH",
"217 66 OFFCURVE",
"185 112 OFFCURVE",
"185 191 CURVE SMOOTH",
"185 689 LINE",
"90 689 LINE",
"90 189 LINE SMOOTH",
"90 72 OFFCURVE",
"150 -12 OFFCURVE",
"258 -12 CURVE SMOOTH"
);
}
);
width = 933;
},
{
anchors = (
{
name = bottom;
position = "{452, 0}";
},
{
name = top;
position = "{452, 696}";
}
);
layerId = UUID0;
paths = (
{
closed = 1;
nodes = (
"579 -20 OFFCURVE",
"625 7 OFFCURVE",
"679 70 CURVE",
"655 182 LINE",
"632 146 OFFCURVE",
"613 129 OFFCURVE",
"588 129 CURVE SMOOTH",
"564 129 OFFCURVE",
"550 149 OFFCURVE",
"550 181 CURVE SMOOTH",
"550 696 LINE",
"344 696 LINE",
"344 170 LINE SMOOTH",
"344 58 OFFCURVE",
"406 -20 OFFCURVE",
"511 -20 CURVE SMOOTH"
);
},
{
closed = 1;
nodes = (
"861 0 LINE",
"861 696 LINE",
"655 696 LINE",
"655 99 LINE",
"680 0 LINE"
);
},
{
closed = 1;
nodes = (
"268 -20 OFFCURVE",
"314 7 OFFCURVE",
"368 70 CURVE",
"344 182 LINE",
"321 156 OFFCURVE",
"301 129 OFFCURVE",
"278 129 CURVE SMOOTH",
"253 129 OFFCURVE",
"239 149 OFFCURVE",
"239 181 CURVE SMOOTH",
"239 696 LINE",
"33 696 LINE",
"33 170 LINE SMOOTH",
"33 58 OFFCURVE",
"95 -20 OFFCURVE",
"200 -20 CURVE SMOOTH"
);
}
);
width = 904;
},
{
anchors = (
{
name = bottom;
position = "{462.5, 0}";
},
{
name = top;
position = "{462.5, 682}";
}
);
layerId = "BCC09A48-EAE1-493E-95CB-92D2C26BC05D";
paths = (
{
closed = 1;
nodes = (
"682 -10 OFFCURVE",
"748 50 OFFCURVE",
"783 121 CURVE",
"774 149 LINE",
"737 79 OFFCURVE",
"679 19 OFFCURVE",
"596 19 CURVE SMOOTH",
"517 19 OFFCURVE",
"473 73 OFFCURVE",
"473 175 CURVE SMOOTH",
"473 682 LINE",
"442 682 LINE",
"442 180 LINE SMOOTH",
"442 58 OFFCURVE",
"497 -10 OFFCURVE",
"595 -10 CURVE SMOOTH"
);
},
{
closed = 1;
nodes = (
"805 0 LINE",
"805 682 LINE",
"774 682 LINE",
"774 141 LINE",
"778 0 LINE"
);
},
{
closed = 1;
nodes = (
"350 -10 OFFCURVE",
"416 50 OFFCURVE",
"456 122 CURVE",
"446 153 LINE",
"405 79 OFFCURVE",
"347 19 OFFCURVE",
"264 19 CURVE SMOOTH",
"185 19 OFFCURVE",
"141 73 OFFCURVE",
"141 175 CURVE SMOOTH",
"141 682 LINE",
"110 682 LINE",
"110 180 LINE SMOOTH",
"110 58 OFFCURVE",
"165 -10 OFFCURVE",
"263 -10 CURVE SMOOTH"
);
}
);
width = 925;
}
);
leftKerningGroup = U;
leftMetricsKey = U;
rightKerningGroup = H;
rightMetricsKey = H;
unicode = 019C;
},
{
color = 9;
export = 0;
glyphname = Eng.ss01;
lastChange = "2015-11-20 10:13:18 +0000";
layers = (
{
anchors = (
{
name = bottom;
position = "{321.5, -215}";
},
{
name = top;
position = "{321.5, 696}";
}
);
background = {
paths = (
{
closed = 1;
nodes = (
"419 534 LINE",
"419 65 LINE SMOOTH",
"419 -22 OFFCURVE",
"374 -52 OFFCURVE",
"307 -83 CURVE",
"375 -227 LINE",
"507 -184 OFFCURVE",
"617 -111 OFFCURVE",
"617 77 CURVE SMOOTH",
"617 534 LINE"
);
},
{
closed = 1;
nodes = (
"435 696 LINE",
"435 473 LINE SMOOTH",
"435 347 OFFCURVE",
"450 267 OFFCURVE",
"467 198 CURVE",
"463 198 LINE",
"305 696 LINE",
"52 696 LINE",
"52 0 LINE",
"234 0 LINE",
"234 216 LINE SMOOTH",
"234 345 OFFCURVE",
"216 441 OFFCURVE",
"202 498 CURVE",
"206 498 LINE",
"359 0 LINE",
"617 0 LINE",
"617 696 LINE"
);
},
{
closed = 1;
nodes = (
"435 696 LINE",
"435 473 LINE SMOOTH",
"435 347 OFFCURVE",
"450 267 OFFCURVE",
"467 198 CURVE",
"463 198 LINE",
"305 696 LINE",
"52 696 LINE",
"52 0 LINE",
"234 0 LINE",
"234 216 LINE SMOOTH",
"234 345 OFFCURVE",
"216 441 OFFCURVE",
"202 498 CURVE",
"206 498 LINE",
"359 0 LINE",
"431 0 LINE",
"617 77 LINE",
"617 696 LINE"
);
},
{
closed = 1;
nodes = (
"434 65 LINE",
"434 -32 OFFCURVE",
"399 -60 OFFCURVE",
"314 -95 CURVE",
"375 -227 LINE",
"507 -184 OFFCURVE",
"617 -111 OFFCURVE",
"617 77 CURVE"
);
}
);
};
components = (
{
name = hookHELPER.case;
transform = "{1, 0, 0, 1, 187, 0}";
}
);
layerId = UUID0;
paths = (
{
closed = 1;
nodes = (
"340 716 OFFCURVE",
"289 689 OFFCURVE",
"225 626 CURVE",
"249 514 LINE",
"282 550 OFFCURVE",
"310 567 OFFCURVE",
"349 567 CURVE SMOOTH",
"385 567 OFFCURVE",
"399 547 OFFCURVE",
"399 505 CURVE SMOOTH",
"399 0 LINE",
"605 0 LINE",
"605 536 LINE SMOOTH",
"605 638 OFFCURVE",
"547 716 OFFCURVE",
"428 716 CURVE SMOOTH"
);
},
{
closed = 1;
nodes = (
"43 696 LINE",
"43 0 LINE",
"249 0 LINE",
"249 597 LINE",
"224 696 LINE"
);
}
);
width = 643;
},
{
anchors = (
{
name = bottom;
position = "{327.5, -193}";
},
{
name = top;
position = "{327.5, 682}";
}
);
background = {
paths = (
{
closed = 1;
nodes = (
"520 682 LINE",
"520 232 LINE",
"520 140 OFFCURVE",
"522 75 OFFCURVE",
"524 35 CURVE",
"523 35 LINE",
"167 682 LINE",
"126 682 LINE",
"126 0 LINE",
"156 0 LINE",
"156 438 LINE",
"156 557 OFFCURVE",
"155 608 OFFCURVE",
"152 647 CURVE",
"153 647 LINE",
"510 0 LINE",
"550 0 LINE",
"550 682 LINE"
);
},
{
closed = 1;
nodes = (
"520 682 LINE",
"520 232 LINE",
"520 140 OFFCURVE",
"522 75 OFFCURVE",
"524 35 CURVE",
"523 35 LINE",
"167 682 LINE",
"126 682 LINE",
"126 0 LINE",
"156 0 LINE",
"156 438 LINE",
"156 557 OFFCURVE",
"155 608 OFFCURVE",
"152 647 CURVE",
"153 647 LINE",
"510 0 LINE",
"522 0 LINE",
"550 8 LINE",
"550 682 LINE"
);
},
{
closed = 1;
nodes = (
"520 9 LINE SMOOTH",
"520 -108 OFFCURVE",
"492 -138 OFFCURVE",
"423 -174 CURVE",
"432 -196 LINE",
"512 -156 OFFCURVE",
"550 -124 OFFCURVE",
"550 8 CURVE SMOOTH"
);
},
{
closed = 1;
nodes = (
"520 682 LINE",
"520 232 LINE",
"520 140 OFFCURVE",
"522 75 OFFCURVE",
"524 35 CURVE",
"523 35 LINE",
"167 682 LINE",
"126 682 LINE",
"126 0 LINE",
"156 0 LINE",
"156 438 LINE",
"156 557 OFFCURVE",
"155 608 OFFCURVE",
"152 647 CURVE",
"153 647 LINE",
"510 0 LINE",
"526 0 LINE",
"550 8 LINE",
"550 682 LINE"
);
},
{
closed = 1;
nodes = (
"523 9 LINE",
"523 -108 OFFCURVE",
"493 -138 OFFCURVE",
"423 -175 CURVE",
"432 -196 LINE",
"512 -156 OFFCURVE",
"550 -124 OFFCURVE",
"550 8 CURVE"
);
},
{
closed = 1;
nodes = (
"512 682 LINE",
"512 211 LINE SMOOTH",
"512 100 OFFCURVE",
"461 19 OFFCURVE",
"332 19 CURVE SMOOTH",
"204 19 OFFCURVE",
"151 97 OFFCURVE",
"151 211 CURVE SMOOTH",
"151 682 LINE",
"120 682 LINE",
"120 208 LINE SMOOTH",
"120 81 OFFCURVE",
"184 -10 OFFCURVE",
"332 -10 CURVE SMOOTH",
"479 -10 OFFCURVE",
"543 81 OFFCURVE",
"543 208 CURVE SMOOTH",
"543 682 LINE"
);
}
);
};
components = (
{
name = hookHELPER.case;
transform = "{1, 0, 0, 1, 309, 0}";
}
);
layerId = "BCC09A48-EAE1-493E-95CB-92D2C26BC05D";
paths = (
{
closed = 1;
nodes = (
"265 692 OFFCURVE",
"189 632 OFFCURVE",
"142 561 CURVE",
"151 533 LINE",
"200 603 OFFCURVE",
"268 663 OFFCURVE",
"369 663 CURVE SMOOTH",
"458 663 OFFCURVE",
"512 609 OFFCURVE",
"512 487 CURVE SMOOTH",
"512 0 LINE",
"543 0 LINE",
"543 492 LINE SMOOTH",
"543 624 OFFCURVE",
"478 692 OFFCURVE",
"370 692 CURVE SMOOTH"
);
},
{
closed = 1;
nodes = (
"120 682 LINE",
"120 0 LINE",
"151 0 LINE",
"151 541 LINE",
"147 682 LINE"
);
}
);
width = 655;
},
{
anchors = (
{
name = bottom;
position = "{336, -202}";
},
{
name = top;
position = "{336, 689}";
}
);
background = {
paths = (
{
closed = 1;
nodes = (
"502 689 LINE",
"502 313 LINE SMOOTH",
"502 229 OFFCURVE",
"513 119 OFFCURVE",
"515 103 CURVE",
"511 103 LINE",
"234 689 LINE",
"108 689 LINE",
"108 0 LINE",
"197 0 LINE",
"197 316 LINE SMOOTH",
"197 444 OFFCURVE",
"189 526 OFFCURVE",
"184 583 CURVE",
"188 583 LINE",
"462 0 LINE",
"510 0 LINE",
"591 32 LINE",
"591 689 LINE"
);
},
{
closed = 1;
nodes = (
"499 26 LINE SMOOTH",
"499 -87 OFFCURVE",
"466 -113 OFFCURVE",
"397 -145 CURVE",
"424 -212 LINE",
"536 -162 OFFCURVE",
"591 -117 OFFCURVE",
"591 32 CURVE SMOOTH"
);
},
{
closed = 1;
nodes = (
"502 689 LINE",
"502 313 LINE SMOOTH",
"502 229 OFFCURVE",
"513 119 OFFCURVE",
"515 103 CURVE",
"511 103 LINE",
"234 689 LINE",
"108 689 LINE",
"108 0 LINE",
"197 0 LINE",
"197 316 LINE SMOOTH",
"197 444 OFFCURVE",
"189 526 OFFCURVE",
"184 583 CURVE",
"188 583 LINE",
"462 0 LINE",
"520 0 LINE",
"591 32 LINE",
"591 689 LINE"
);
},
{
closed = 1;
nodes = (
"511 26 LINE",
"511 -90 OFFCURVE",
"473 -115 OFFCURVE",
"399 -150 CURVE",
"424 -212 LINE",
"536 -162 OFFCURVE",
"591 -117 OFFCURVE",
"591 32 CURVE"
);
},
{
closed = 1;
nodes = (
"486 689 LINE",
"486 228 LINE SMOOTH",
"486 121 OFFCURVE",
"439 68 OFFCURVE",
"340 68 CURVE SMOOTH",
"242 68 OFFCURVE",
"195 121 OFFCURVE",
"195 228 CURVE SMOOTH",
"195 689 LINE",
"100 689 LINE",
"100 221 LINE SMOOTH",
"100 84 OFFCURVE",
"183 -12 OFFCURVE",
"340 -12 CURVE SMOOTH",
"495 -12 OFFCURVE",
"582 84 OFFCURVE",
"582 221 CURVE SMOOTH",
"582 689 LINE"
);
}
);
};
components = (
{
name = hookHELPER.case;
transform = "{1, 0, 0, 1, 283, 0}";
}
);
layerId = "A11F629A-ECF3-413E-B2EC-6C6F8C33A243";
paths = (
{
closed = 1;
nodes = (
"300 701 OFFCURVE",
"235 657 OFFCURVE",
"179 594 CURVE",
"195 530 LINE",
"250 586 OFFCURVE",
"295 623 OFFCURVE",
"374 623 CURVE SMOOTH",
"452 623 OFFCURVE",
"484 577 OFFCURVE",
"484 488 CURVE SMOOTH",
"484 0 LINE",
"579 0 LINE",
"579 507 LINE SMOOTH",
"579 617 OFFCURVE",
"522 701 OFFCURVE",
"394 701 CURVE SMOOTH"
);
},
{
closed = 1;
nodes = (
"100 689 LINE",
"100 0 LINE",
"195 0 LINE",
"195 560 LINE",
"182 689 LINE"
);
}
);
width = 672;
}
);
leftKerningGroup = H;
leftMetricsKey = H;
rightKerningGroup = H;
},
{
color = 7;
export = 0;
glyphname = Nhookleft;
lastChange = "2015-11-20 10:13:18 +0000";
layers = (
{
components = (
{
name = N;
}
);
layerId = "BCC09A48-EAE1-493E-95CB-92D2C26BC05D";
paths = (
{
closed = 1;
nodes = (
"106 -199 OFFCURVE",
"150 -161 OFFCURVE",
"150 -82 CURVE SMOOTH",
"150 1 LINE",
"120 1 LINE",
"120 -81 LINE SMOOTH",
"120 -150 OFFCURVE",
"86 -172 OFFCURVE",
"46 -172 CURVE SMOOTH",
"11 -172 OFFCURVE",
"-11 -161 OFFCURVE",
"-30 -148 CURVE",
"-45 -168 LINE",
"-25 -183 OFFCURVE",
"5 -199 OFFCURVE",
"46 -199 CURVE SMOOTH"
);
}
);
width = 664;
},
{
components = (
{
name = N;
}
);
layerId = "A11F629A-ECF3-413E-B2EC-6C6F8C33A243";
paths = (
{
closed = 1;
nodes = (
"130 -213 OFFCURVE",
"189 -161 OFFCURVE",
"189 -59 CURVE SMOOTH",
"189 1 LINE",
"100 1 LINE",
"100 -65 LINE SMOOTH",
"100 -118 OFFCURVE",
"75 -139 OFFCURVE",
"36 -139 CURVE SMOOTH",
"3 -139 OFFCURVE",
"-15 -130 OFFCURVE",
"-38 -116 CURVE",
"-74 -175 LINE",
"-49 -194 OFFCURVE",
"-12 -213 OFFCURVE",
"41 -213 CURVE SMOOTH"
);
}
);
width = 683;
},
{
components = (
{
name = N;
}
);
layerId = UUID0;
paths = (
{
closed = 1;
nodes = (
"140 -227 OFFCURVE",
"225 -157 OFFCURVE",
"225 -16 CURVE SMOOTH",
"225 1 LINE",
"43 1 LINE",
"43 -34 LINE SMOOTH",
"43 -69 OFFCURVE",
"24 -87 OFFCURVE",
"-9 -87 CURVE SMOOTH",
"-37 -87 OFFCURVE",
"-53 -79 OFFCURVE",
"-77 -67 CURVE",
"-141 -182 LINE",
"-105 -208 OFFCURVE",
"-56 -227 OFFCURVE",
"16 -227 CURVE SMOOTH"
);
}
);
width = 651;
}
);
leftKerningGroup = H;
rightKerningGroup = H;
unicode = 019D;
},
{
color = 9;
export = 0;
glyphname = Nhookleft.ss01;
lastChange = "2015-11-20 10:13:18 +0000";
layers = (
{
anchors = (
{
name = bottom;
position = "{327.5, -193}";
},
{
name = top;
position = "{327.5, 682}";
}
);
components = (
{
name = hookHELPER.case;
transform = "{1, 0, 0, 1, -83, 0}";
}
);
layerId = "BCC09A48-EAE1-493E-95CB-92D2C26BC05D";
paths = (
{
closed = 1;
nodes = (
"265 692 OFFCURVE",
"189 632 OFFCURVE",
"142 561 CURVE",
"151 533 LINE",
"200 603 OFFCURVE",
"268 663 OFFCURVE",
"369 663 CURVE SMOOTH",
"458 663 OFFCURVE",
"512 609 OFFCURVE",
"512 487 CURVE SMOOTH",
"512 0 LINE",
"543 0 LINE",
"543 492 LINE SMOOTH",
"543 624 OFFCURVE",
"479 692 OFFCURVE",
"370 692 CURVE SMOOTH"
);
},
{
closed = 1;
nodes = (
"120 682 LINE",
"120 0 LINE",
"151 0 LINE",
"151 541 LINE",
"147 682 LINE"
);
}
);
width = 655;
},
{
anchors = (
{
name = bottom;
position = "{336, -202}";
},
{
name = top;
position = "{336, 689}";
}
);
components = (
{
name = hookHELPER.case;
transform = "{1, 0, 0, 1, -101, 0}";
}
);
layerId = "A11F629A-ECF3-413E-B2EC-6C6F8C33A243";
paths = (
{
closed = 1;
nodes = (
"300 701 OFFCURVE",
"235 657 OFFCURVE",
"179 594 CURVE",
"195 530 LINE",
"250 586 OFFCURVE",
"295 623 OFFCURVE",
"374 623 CURVE SMOOTH",
"452 623 OFFCURVE",
"484 577 OFFCURVE",
"484 488 CURVE SMOOTH",
"484 0 LINE",
"579 0 LINE",
"579 507 LINE SMOOTH",
"579 617 OFFCURVE",
"522 701 OFFCURVE",
"394 701 CURVE SMOOTH"
);
},
{
closed = 1;
nodes = (
"100 689 LINE",
"100 0 LINE",
"195 0 LINE",
"195 560 LINE",
"182 689 LINE"
);
}
);
width = 672;
},
{
anchors = (
{
name = bottom;
position = "{321.5, -215}";
},
{
name = top;
position = "{321.5, 696}";
}
);
components = (
{
name = hookHELPER.case;
transform = "{1, 0, 0, 1, -169, 0}";
}
);
layerId = UUID0;
paths = (
{
closed = 1;
nodes = (
"340 716 OFFCURVE",
"289 689 OFFCURVE",
"225 626 CURVE",
"249 514 LINE",
"282 550 OFFCURVE",
"310 567 OFFCURVE",
"349 567 CURVE SMOOTH",
"385 567 OFFCURVE",
"399 547 OFFCURVE",
"399 505 CURVE SMOOTH",
"399 0 LINE",
"605 0 LINE",
"605 536 LINE SMOOTH",
"605 638 OFFCURVE",
"547 716 OFFCURVE",
"428 716 CURVE SMOOTH"
);
},
{
closed = 1;
nodes = (
"43 696 LINE",
"43 0 LINE",
"249 0 LINE",
"249 597 LINE",
"224 696 LINE"
);
}
);
width = 643;
}
);
leftKerningGroup = H;
rightKerningGroup = H;
rightMetricsKey = Eng.ss01;
},
{
export = 0;
glyphname = Nlongrightleg;
lastChange = "2015-11-20 10:13:18 +0000";
layers = (
{
anchors = (
{
name = bottom;
position = "{336, -202}";
},
{
name = top;
position = "{336, 689}";
}
);
background = {
paths = (
{
closed = 1;
nodes = (
"300 701 OFFCURVE",
"235 657 OFFCURVE",
"179 594 CURVE",
"195 530 LINE",
"250 586 OFFCURVE",
"295 623 OFFCURVE",
"374 623 CURVE SMOOTH",
"452 623 OFFCURVE",
"484 577 OFFCURVE",
"484 488 CURVE SMOOTH",
"484 0 LINE",
"579 0 LINE",
"579 507 LINE SMOOTH",
"579 617 OFFCURVE",
"522 701 OFFCURVE",
"394 701 CURVE SMOOTH"
);
},
{
closed = 1;
nodes = (
"100 689 LINE",
"100 0 LINE",
"195 0 LINE",
"195 560 LINE",
"182 689 LINE"
);
}
);
};
layerId = "A11F629A-ECF3-413E-B2EC-6C6F8C33A243";
paths = (
{
closed = 1;
nodes = (
"300 701 OFFCURVE",
"235 657 OFFCURVE",
"179 594 CURVE",
"195 530 LINE",
"250 586 OFFCURVE",
"295 623 OFFCURVE",
"374 623 CURVE SMOOTH",
"452 623 OFFCURVE",
"484 577 OFFCURVE",
"484 488 CURVE SMOOTH",
"484 -202 LINE",
"579 -202 LINE",
"579 507 LINE SMOOTH",
"579 617 OFFCURVE",
"522 701 OFFCURVE",
"394 701 CURVE SMOOTH"
);
},
{
closed = 1;
nodes = (
"100 689 LINE",
"100 0 LINE",
"195 0 LINE",
"195 560 LINE",
"182 689 LINE"
);
}
);
width = 672;
},
{
anchors = (
{
name = bottom;
position = "{321.5, -215}";
},
{
name = top;
position = "{321.5, 696}";
}
);
layerId = UUID0;
paths = (
{
closed = 1;
nodes = (
"340 716 OFFCURVE",
"289 689 OFFCURVE",
"225 626 CURVE",
"249 514 LINE",
"282 550 OFFCURVE",
"310 567 OFFCURVE",
"349 567 CURVE SMOOTH",
"385 567 OFFCURVE",
"399 547 OFFCURVE",
"399 505 CURVE SMOOTH",
"399 -215 LINE",
"605 -215 LINE",
"605 536 LINE SMOOTH",
"605 638 OFFCURVE",
"547 716 OFFCURVE",
"428 716 CURVE SMOOTH"
);
},
{
closed = 1;
nodes = (
"43 696 LINE",
"43 0 LINE",
"249 0 LINE",
"249 597 LINE",
"224 696 LINE"
);
}
);
width = 643;
},
{
anchors = (
{
name = bottom;
position = "{327.5, -193}";
},
{
name = top;
position = "{327.5, 682}";
}
);
background = {
paths = (
{
closed = 1;
nodes = (
"265 692 OFFCURVE",
"189 632 OFFCURVE",
"142 561 CURVE",
"151 533 LINE",
"200 603 OFFCURVE",
"268 663 OFFCURVE",
"369 663 CURVE SMOOTH",
"458 663 OFFCURVE",
"512 609 OFFCURVE",
"512 487 CURVE SMOOTH",
"512 0 LINE",
"543 0 LINE",
"543 492 LINE SMOOTH",
"543 624 OFFCURVE",
"479 692 OFFCURVE",
"370 692 CURVE SMOOTH"
);
},
{
closed = 1;
nodes = (
"120 682 LINE",
"120 0 LINE",
"151 0 LINE",
"151 541 LINE",
"147 682 LINE"
);
}
);
};
layerId = "BCC09A48-EAE1-493E-95CB-92D2C26BC05D";
paths = (
{
closed = 1;
nodes = (
"265 692 OFFCURVE",
"189 632 OFFCURVE",
"142 561 CURVE",
"151 533 LINE",
"200 603 OFFCURVE",
"268 663 OFFCURVE",
"369 663 CURVE SMOOTH",
"458 663 OFFCURVE",
"512 609 OFFCURVE",
"512 487 CURVE SMOOTH",
"512 -193 LINE",
"543 -193 LINE",
"543 492 LINE SMOOTH",
"543 624 OFFCURVE",
"479 692 OFFCURVE",
"370 692 CURVE SMOOTH"
);
},
{
closed = 1;
nodes = (
"120 682 LINE",
"120 0 LINE",
"151 0 LINE",
"151 541 LINE",
"147 682 LINE"
);
}
);
width = 655;
}
);
leftKerningGroup = H;
leftMetricsKey = H;
rightKerningGroup = H;
unicode = 0220;
},
{
export = 0;
glyphname = OU;
lastChange = "2015-11-20 10:13:18 +0000";
layers = (
{
anchors = (
{
name = bottom;
position = "{326, 0}";
},
{
name = top;
position = "{326, 689}";
}
);
layerId = "A11F629A-ECF3-413E-B2EC-6C6F8C33A243";
paths = (
{
closed = 1;
nodes = (
"154 411 OFFCURVE",
"55 325 OFFCURVE",
"55 208 CURVE SMOOTH",
"55 92 OFFCURVE",
"154 -12 OFFCURVE",
"326 -12 CURVE SMOOTH",
"499 -12 OFFCURVE",
"597 96 OFFCURVE",
"597 209 CURVE SMOOTH",
"597 331 OFFCURVE",
"499 411 OFFCURVE",
"326 411 CURVE SMOOTH"
);
},
{
closed = 1;
nodes = (
"444 343 OFFCURVE",
"496 293 OFFCURVE",
"496 209 CURVE SMOOTH",
"496 114 OFFCURVE",
"442 66 OFFCURVE",
"326 66 CURVE SMOOTH",
"214 66 OFFCURVE",
"156 114 OFFCURVE",
"156 208 CURVE SMOOTH",
"156 293 OFFCURVE",
"211 343 OFFCURVE",
"326 343 CURVE SMOOTH"
);
},
{
closed = 1;
nodes = (
"459 689 LINE",
"459 551 LINE SMOOTH",
"459 484 OFFCURVE",
"426 421 OFFCURVE",
"327 421 CURVE SMOOTH",
"229 421 OFFCURVE",
"195 474 OFFCURVE",
"195 551 CURVE SMOOTH",
"195 689 LINE",
"100 689 LINE",
"100 546 LINE SMOOTH",
"100 439 OFFCURVE",
"170 363 OFFCURVE",
"327 353 CURVE",
"472 363 OFFCURVE",
"555 439 OFFCURVE",
"555 546 CURVE SMOOTH",
"555 689 LINE"
);
}
);
width = 652;
},
{
anchors = (
{
name = bottom;
position = "{325, 0}";
},
{
name = top;
position = "{325, 696}";
}
);
layerId = UUID0;
paths = (
{
closed = 1;
nodes = (
"136 434 OFFCURVE",
"20 361 OFFCURVE",
"20 223 CURVE SMOOTH",
"20 86 OFFCURVE",
"136 -20 OFFCURVE",
"325 -20 CURVE SMOOTH",
"514 -20 OFFCURVE",
"630 91 OFFCURVE",
"630 223 CURVE SMOOTH",
"630 366 OFFCURVE",
"514 434 OFFCURVE",
"325 434 CURVE"
);
},
{
closed = 1;
nodes = (
"383 328 OFFCURVE",
"416 286 OFFCURVE",
"416 226 CURVE SMOOTH",
"416 166 OFFCURVE",
"385 126 OFFCURVE",
"325 126 CURVE SMOOTH",
"267 126 OFFCURVE",
"234 166 OFFCURVE",
"234 226 CURVE SMOOTH",
"234 286 OFFCURVE",
"267 328 OFFCURVE",
"325 328 CURVE SMOOTH"
);
},
{
closed = 1;
nodes = (
"386 696 LINE",
"386 540 LINE SMOOTH",
"386 494 OFFCURVE",
"375 466 OFFCURVE",
"325 466 CURVE SMOOTH",
"275 466 OFFCURVE",
"264 493 OFFCURVE",
"264 540 CURVE SMOOTH",
"264 696 LINE",
"58 696 LINE",
"58 554 LINE SMOOTH",
"58 427 OFFCURVE",
"159 368 OFFCURVE",
"325 368 CURVE",
"491 368 OFFCURVE",
"592 436 OFFCURVE",
"592 554 CURVE SMOOTH",
"592 696 LINE"
);
}
);
width = 650;
},
{
anchors = (
{
name = bottom;
position = "{315, 0}";
},
{
name = top;
position = "{315, 682}";
}
);
layerId = "BCC09A48-EAE1-493E-95CB-92D2C26BC05D";
paths = (
{
closed = 1;
nodes = (
"156 395 OFFCURVE",
"75 309 OFFCURVE",
"75 191 CURVE SMOOTH",
"75 74 OFFCURVE",
"155 -10 OFFCURVE",
"315 -10 CURVE SMOOTH",
"481 -10 OFFCURVE",
"555 78 OFFCURVE",
"555 192 CURVE SMOOTH",
"555 315 OFFCURVE",
"475 395 OFFCURVE",
"315 395 CURVE"
);
},
{
closed = 1;
nodes = (
"460 367 OFFCURVE",
"523 300 OFFCURVE",
"523 192 CURVE SMOOTH",
"523 89 OFFCURVE",
"463 19 OFFCURVE",
"315 19 CURVE SMOOTH",
"172 19 OFFCURVE",
"107 89 OFFCURVE",
"107 191 CURVE SMOOTH",
"107 298 OFFCURVE",
"174 367 OFFCURVE",
"315 367 CURVE"
);
},
{
closed = 1;
nodes = (
"480 682 LINE",
"480 558 LINE SMOOTH",
"480 462 OFFCURVE",
"444 396 OFFCURVE",
"315 396 CURVE SMOOTH",
"187 396 OFFCURVE",
"154 464 OFFCURVE",
"154 558 CURVE SMOOTH",
"154 682 LINE",
"123 682 LINE",
"123 558 LINE SMOOTH",
"123 448 OFFCURVE",
"167 370 OFFCURVE",
"315 370 CURVE SMOOTH",
"460 370 OFFCURVE",
"511 450 OFFCURVE",
"511 558 CURVE SMOOTH",
"511 682 LINE"
);
}
);
width = 630;
}
);
leftKerningGroup = O;
leftMetricsKey = O;
rightKerningGroup = O;
rightMetricsKey = O;
unicode = 0222;
},
{
export = 0;
glyphname = Oi;
lastChange = "2015-11-20 10:13:18 +0000";
layers = (
{
anchors = (
{
name = bottom;
position = "{463, -202}";
},
{
name = top;
position = "{463, 689}";
}
);
background = {
paths = (
{
closed = 1;
nodes = (
"194 701 OFFCURVE",
"75 570 OFFCURVE",
"75 343 CURVE SMOOTH",
"75 112 OFFCURVE",
"194 -12 OFFCURVE",
"356 -12 CURVE SMOOTH",
"519 -12 OFFCURVE",
"637 116 OFFCURVE",
"637 344 CURVE SMOOTH",
"637 576 OFFCURVE",
"519 701 OFFCURVE",
"356 701 CURVE SMOOTH"
);
},
{
closed = 1;
nodes = (
"464 623 OFFCURVE",
"536 542 OFFCURVE",
"536 344 CURVE SMOOTH",
"536 144 OFFCURVE",
"462 66 OFFCURVE",
"356 66 CURVE SMOOTH",
"254 66 OFFCURVE",
"176 144 OFFCURVE",
"176 343 CURVE SMOOTH",
"176 542 OFFCURVE",
"251 623 OFFCURVE",
"356 623 CURVE SMOOTH"
);
},
{
closed = 1;
nodes = (
"604 703 OFFCURVE",
"557 684 OFFCURVE",
"507 649 CURVE",
"558 603 LINE",
"591 620 OFFCURVE",
"619 629 OFFCURVE",
"656 629 CURVE SMOOTH",
"704 629 OFFCURVE",
"731 603 OFFCURVE",
"731 546 CURVE SMOOTH",
"731 -202 LINE",
"826 -202 LINE",
"826 543 LINE SMOOTH",
"826 646 OFFCURVE",
"773 703 OFFCURVE",
"663 703 CURVE SMOOTH"
);
}
);
};
layerId = "A11F629A-ECF3-413E-B2EC-6C6F8C33A243";
paths = (
{
closed = 1;
nodes = (
"602 703 OFFCURVE",
"557 684 OFFCURVE",
"505 647 CURVE",
"556 601 LINE",
"591 620 OFFCURVE",
"619 629 OFFCURVE",
"656 629 CURVE SMOOTH",
"704 629 OFFCURVE",
"731 603 OFFCURVE",
"731 546 CURVE SMOOTH",
"731 -202 LINE",
"826 -202 LINE",
"826 543 LINE SMOOTH",
"826 646 OFFCURVE",
"771 703 OFFCURVE",
"663 703 CURVE SMOOTH"
);
},
{
closed = 1;
nodes = (
"174 701 OFFCURVE",
"55 570 OFFCURVE",
"55 343 CURVE SMOOTH",
"55 112 OFFCURVE",
"174 -12 OFFCURVE",
"346 -12 CURVE SMOOTH",
"519 -12 OFFCURVE",
"637 116 OFFCURVE",
"637 344 CURVE SMOOTH",
"637 576 OFFCURVE",
"514 701 OFFCURVE",
"346 701 CURVE SMOOTH"
);
},
{
closed = 1;
nodes = (
"464 623 OFFCURVE",
"536 542 OFFCURVE",
"536 344 CURVE SMOOTH",
"536 144 OFFCURVE",
"462 66 OFFCURVE",
"346 66 CURVE SMOOTH",
"234 66 OFFCURVE",
"156 144 OFFCURVE",
"156 343 CURVE SMOOTH",
"156 542 OFFCURVE",
"231 623 OFFCURVE",
"346 623 CURVE SMOOTH"
);
}
);
width = 926;
},
{
anchors = (
{
name = bottom;
position = "{490.5, -215}";
},
{
name = top;
position = "{490.5, 696}";
}
);
background = {
paths = (
{
closed = 1;
nodes = (
"156 716 OFFCURVE",
"40 575 OFFCURVE",
"40 349 CURVE SMOOTH",
"40 118 OFFCURVE",
"156 -20 OFFCURVE",
"355 -20 CURVE SMOOTH",
"554 -20 OFFCURVE",
"670 123 OFFCURVE",
"670 349 CURVE SMOOTH",
"670 580 OFFCURVE",
"554 716 OFFCURVE",
"355 716 CURVE SMOOTH"
);
},
{
closed = 1;
nodes = (
"423 570 OFFCURVE",
"456 510 OFFCURVE",
"456 349 CURVE SMOOTH",
"456 188 OFFCURVE",
"425 126 OFFCURVE",
"355 126 CURVE SMOOTH",
"287 126 OFFCURVE",
"254 188 OFFCURVE",
"254 349 CURVE SMOOTH",
"254 510 OFFCURVE",
"287 570 OFFCURVE",
"355 570 CURVE SMOOTH"
);
},
{
closed = 1;
nodes = (
"633 716 OFFCURVE",
"574 697 OFFCURVE",
"518 651 CURVE",
"612 559 LINE",
"636 571 OFFCURVE",
"652 576 OFFCURVE",
"680 576 CURVE SMOOTH",
"713 576 OFFCURVE",
"732 558 OFFCURVE",
"732 513 CURVE SMOOTH",
"732 -215 LINE",
"938 -215 LINE",
"938 505 LINE SMOOTH",
"938 646 OFFCURVE",
"847 716 OFFCURVE",
"705 716 CURVE SMOOTH"
);
}
);
};
layerId = UUID0;
paths = (
{
closed = 1;
nodes = (
"633 716 OFFCURVE",
"571 691 OFFCURVE",
"518 651 CURVE",
"612 559 LINE",
"636 571 OFFCURVE",
"652 576 OFFCURVE",
"680 576 CURVE SMOOTH",
"713 576 OFFCURVE",
"732 558 OFFCURVE",
"732 513 CURVE SMOOTH",
"732 -215 LINE",
"938 -215 LINE",
"938 505 LINE SMOOTH",
"938 646 OFFCURVE",
"845 716 OFFCURVE",
"710 716 CURVE SMOOTH"
);
},
{
closed = 1;
nodes = (
"136 716 OFFCURVE",
"20 575 OFFCURVE",
"20 349 CURVE SMOOTH",
"20 118 OFFCURVE",
"136 -20 OFFCURVE",
"345 -20 CURVE SMOOTH",
"554 -20 OFFCURVE",
"670 123 OFFCURVE",
"670 349 CURVE SMOOTH",
"670 580 OFFCURVE",
"541 716 OFFCURVE",
"345 716 CURVE SMOOTH"
);
},
{
closed = 1;
nodes = (
"423 570 OFFCURVE",
"456 510 OFFCURVE",
"456 349 CURVE SMOOTH",
"456 188 OFFCURVE",
"425 126 OFFCURVE",
"345 126 CURVE SMOOTH",
"267 126 OFFCURVE",
"234 188 OFFCURVE",
"234 349 CURVE SMOOTH",
"234 510 OFFCURVE",
"267 570 OFFCURVE",
"345 570 CURVE SMOOTH"
);
}
);
width = 981;
},
{
anchors = (
{
name = bottom;
position = "{442, -193}";
},
{
name = top;
position = "{442, 682}";
}
);
background = {
paths = (
{
closed = 1;
nodes = (
"206 692 OFFCURVE",
"95 565 OFFCURVE",
"95 339 CURVE SMOOTH",
"95 114 OFFCURVE",
"205 -10 OFFCURVE",
"355 -10 CURVE SMOOTH",
"511 -10 OFFCURVE",
"615 118 OFFCURVE",
"615 340 CURVE SMOOTH",
"615 571 OFFCURVE",
"506 692 OFFCURVE",
"355 692 CURVE SMOOTH"
);
},
{
closed = 1;
nodes = (
"488 663 OFFCURVE",
"583 556 OFFCURVE",
"583 340 CURVE SMOOTH",
"583 129 OFFCURVE",
"493 19 OFFCURVE",
"355 19 CURVE SMOOTH",
"225 19 OFFCURVE",
"127 129 OFFCURVE",
"127 339 CURVE SMOOTH",
"127 554 OFFCURVE",
"224 663 OFFCURVE",
"355 663 CURVE"
);
},
{
closed = 1;
nodes = (
"578 692 OFFCURVE",
"528 666 OFFCURVE",
"488 641 CURVE",
"503 621 LINE",
"542 644 OFFCURVE",
"584 665 OFFCURVE",
"639 665 CURVE SMOOTH",
"696 665 OFFCURVE",
"733 643 OFFCURVE",
"733 560 CURVE SMOOTH",
"733 -193 LINE",
"764 -193 LINE",
"764 561 LINE SMOOTH",
"764 654 OFFCURVE",
"716 692 OFFCURVE",
"639 692 CURVE SMOOTH"
);
}
);
};
layerId = "BCC09A48-EAE1-493E-95CB-92D2C26BC05D";
paths = (
{
closed = 1;
nodes = (
"578 692 OFFCURVE",
"528 666 OFFCURVE",
"488 641 CURVE",
"503 621 LINE",
"542 644 OFFCURVE",
"584 665 OFFCURVE",
"639 665 CURVE SMOOTH",
"696 665 OFFCURVE",
"733 643 OFFCURVE",
"733 560 CURVE SMOOTH",
"733 -193 LINE",
"764 -193 LINE",
"764 561 LINE SMOOTH",
"764 654 OFFCURVE",
"716 692 OFFCURVE",
"639 692 CURVE SMOOTH"
);
},
{
closed = 1;
nodes = (
"186 692 OFFCURVE",
"75 565 OFFCURVE",
"75 339 CURVE SMOOTH",
"75 114 OFFCURVE",
"185 -10 OFFCURVE",
"345 -10 CURVE SMOOTH",
"511 -10 OFFCURVE",
"615 118 OFFCURVE",
"615 340 CURVE SMOOTH",
"615 571 OFFCURVE",
"505 692 OFFCURVE",
"345 692 CURVE SMOOTH"
);
},
{
closed = 1;
nodes = (
"488 663 OFFCURVE",
"583 556 OFFCURVE",
"583 340 CURVE SMOOTH",
"583 129 OFFCURVE",
"493 19 OFFCURVE",
"345 19 CURVE SMOOTH",
"205 19 OFFCURVE",
"107 129 OFFCURVE",
"107 339 CURVE SMOOTH",
"107 554 OFFCURVE",
"204 663 OFFCURVE",
"345 663 CURVE"
);
}
);
width = 884;
}
);
leftKerningGroup = O;
leftMetricsKey = O;
rightKerningGroup = H;
rightMetricsKey = H;
unicode = 01A2;
},
{
export = 0;
glyphname = Oopen;
lastChange = "2015-11-20 10:13:18 +0000";
layers = (
{
anchors = (
{
name = bottom;
position = "{216, 0}";
},
{
name = center;
position = "{214, 344}";
},
{
name = top;
position = "{216, 682}";
}
);
background = {
paths = (
{
closed = 1;
nodes = (
"122 692 OFFCURVE",
"77 669 OFFCURVE",
"33 633 CURVE",
"50 611 LINE",
"97 647 OFFCURVE",
"133 663 OFFCURVE",
"195 663 CURVE SMOOTH",
"327 663 OFFCURVE",
"435 568 OFFCURVE",
"435 341 CURVE SMOOTH",
"435 126 OFFCURVE",
"330 20 OFFCURVE",
"199 20 CURVE SMOOTH",
"124 20 OFFCURVE",
"85 44 OFFCURVE",
"44 78 CURVE",
"25 55 LINE",
"69 17 OFFCURVE",
"122 -10 OFFCURVE",
"200 -10 CURVE SMOOTH",
"352 -10 OFFCURVE",
"467 112 OFFCURVE",
"467 341 CURVE SMOOTH",
"467 577 OFFCURVE",
"346 692 OFFCURVE",
"197 692 CURVE SMOOTH"
);
}
);
};
layerId = "BCC09A48-EAE1-493E-95CB-92D2C26BC05D";
paths = (
{
closed = 1;
nodes = (
"138 692 OFFCURVE",
"80 668 OFFCURVE",
"33 633 CURVE",
"50 611 LINE",
"100 646 OFFCURVE",
"149 663 OFFCURVE",
"213 663 CURVE SMOOTH",
"341 663 OFFCURVE",
"435 568 OFFCURVE",
"435 341 CURVE SMOOTH",
"435 126 OFFCURVE",
"330 20 OFFCURVE",
"203 20 CURVE SMOOTH",
"131 20 OFFCURVE",
"89 44 OFFCURVE",
"44 77 CURVE",
"25 55 LINE",
"68 19 OFFCURVE",
"122 -10 OFFCURVE",
"203 -10 CURVE SMOOTH",
"352 -10 OFFCURVE",
"467 112 OFFCURVE",
"467 341 CURVE SMOOTH",
"467 577 OFFCURVE",
"361 692 OFFCURVE",
"215 692 CURVE SMOOTH"
);
}
);
width = 542;
},
{
anchors = (
{
name = bottom;
position = "{230, 0}";
},
{
name = center;
position = "{219, 346}";
},
{
name = top;
position = "{230, 689}";
}
);
background = {
paths = (
{
closed = 1;
nodes = (
"132 701 OFFCURVE",
"83 677 OFFCURVE",
"28 633 CURVE",
"80 572 LINE",
"123 607 OFFCURVE",
"165 623 OFFCURVE",
"213 623 CURVE SMOOTH",
"317 623 OFFCURVE",
"404 553 OFFCURVE",
"404 345 CURVE SMOOTH",
"404 146 OFFCURVE",
"321 68 OFFCURVE",
"214 68 CURVE SMOOTH",
"149 68 OFFCURVE",
"107 97 OFFCURVE",
"68 126 CURVE",
"20 65 LINE",
"57 26 OFFCURVE",
"124 -12 OFFCURVE",
"217 -12 CURVE SMOOTH",
"384 -12 OFFCURVE",
"505 113 OFFCURVE",
"505 345 CURVE SMOOTH",
"505 578 OFFCURVE",
"375 701 OFFCURVE",
"219 701 CURVE SMOOTH"
);
}
);
};
layerId = "A11F629A-ECF3-413E-B2EC-6C6F8C33A243";
paths = (
{
closed = 1;
nodes = (
"151 701 OFFCURVE",
"87 677 OFFCURVE",
"28 633 CURVE",
"77 573 LINE",
"123 605 OFFCURVE",
"174 623 OFFCURVE",
"233 623 CURVE SMOOTH",
"327 623 OFFCURVE",
"404 553 OFFCURVE",
"404 345 CURVE SMOOTH",
"404 146 OFFCURVE",
"321 68 OFFCURVE",
"214 68 CURVE SMOOTH",
"149 68 OFFCURVE",
"107 96 OFFCURVE",
"67 124 CURVE",
"20 65 LINE",
"62 26 OFFCURVE",
"124 -12 OFFCURVE",
"217 -12 CURVE SMOOTH",
"384 -12 OFFCURVE",
"505 113 OFFCURVE",
"505 346 CURVE SMOOTH",
"505 578 OFFCURVE",
"402 701 OFFCURVE",
"239 701 CURVE SMOOTH"
);
}
);
width = 560;
},
{
anchors = (
{
name = bottom;
position = "{252, 0}";
},
{
name = center;
position = "{209, 354}";
},
{
name = top;
position = "{252, 696}";
}
);
background = {
paths = (
{
closed = 1;
nodes = (
"139 716 OFFCURVE",
"67 685 OFFCURVE",
"8 634 CURVE",
"106 519 LINE",
"139 549 OFFCURVE",
"176 568 OFFCURVE",
"224 568 CURVE SMOOTH",
"302 568 OFFCURVE",
"350 497 OFFCURVE",
"350 350 CURVE SMOOTH",
"350 203 OFFCURVE",
"301 135 OFFCURVE",
"218 135 CURVE SMOOTH",
"169 135 OFFCURVE",
"131 161 OFFCURVE",
"90 193 CURVE",
"0 77 LINE",
"51 26 OFFCURVE",
"132 -20 OFFCURVE",
"230 -20 CURVE SMOOTH",
"433 -20 OFFCURVE",
"564 109 OFFCURVE",
"564 350 CURVE SMOOTH",
"564 582 OFFCURVE",
"428 716 OFFCURVE",
"236 716 CURVE SMOOTH"
);
}
);
};
layerId = UUID0;
paths = (
{
closed = 1;
nodes = (
"141 716 OFFCURVE",
"69 685 OFFCURVE",
"8 634 CURVE",
"106 519 LINE",
"144 549 OFFCURVE",
"181 568 OFFCURVE",
"232 568 CURVE SMOOTH",
"307 568 OFFCURVE",
"350 497 OFFCURVE",
"350 350 CURVE SMOOTH",
"350 203 OFFCURVE",
"301 135 OFFCURVE",
"223 135 CURVE SMOOTH",
"169 135 OFFCURVE",
"131 161 OFFCURVE",
"90 193 CURVE",
"0 77 LINE",
"52 26 OFFCURVE",
"132 -20 OFFCURVE",
"234 -20 CURVE SMOOTH",
"433 -20 OFFCURVE",
"564 109 OFFCURVE",
"564 350 CURVE SMOOTH",
"564 582 OFFCURVE",
"433 716 OFFCURVE",
"244 716 CURVE SMOOTH"
);
}
);
width = 584;
}
);
leftKerningGroup = Oopen;
leftMetricsKey = "=|C";
rightKerningGroup = O;
rightMetricsKey = "=|C";
unicode = 0186;
},
{
export = 0;
glyphname = Qhooktail;
lastChange = "2015-11-20 10:13:18 +0000";
layers = (
{
anchors = (
{
name = bottom;
position = "{334.5, -202}";
},
{
name = top;
position = "{334.5, 689}";
}
);
background = {
paths = (
{
closed = 1;
nodes = (
"409 -12 OFFCURVE",
"477 37 OFFCURVE",
"514 111 CURVE",
"487 147 LINE",
"440 91 OFFCURVE",
"394 66 OFFCURVE",
"328 66 CURVE SMOOTH",
"229 66 OFFCURVE",
"156 135 OFFCURVE",
"156 323 CURVE SMOOTH",
"156 538 OFFCURVE",
"231 623 OFFCURVE",
"337 623 CURVE SMOOTH",
"401 623 OFFCURVE",
"450 596 OFFCURVE",
"488 544 CURVE",
"514 585 LINE",
"477 655 OFFCURVE",
"409 701 OFFCURVE",
"324 701 CURVE SMOOTH",
"177 701 OFFCURVE",
"55 567 OFFCURVE",
"55 323 CURVE SMOOTH",
"55 99 OFFCURVE",
"171 -12 OFFCURVE",
"319 -12 CURVE SMOOTH"
);
},
{
closed = 1;
nodes = (
"569 0 LINE",
"569 689 LINE",
"485 689 LINE",
"474 620 LINE",
"474 69 LINE",
"485 0 LINE"
);
}
);
};
components = (
{
name = hookHELPER.case;
transform = "{-1, 0, 0, 1, 770, 0}";
}
);
layerId = "A11F629A-ECF3-413E-B2EC-6C6F8C33A243";
paths = (
{
closed = 1;
nodes = (
"408 -12 OFFCURVE",
"477 37 OFFCURVE",
"514 121 CURVE",
"487 147 LINE",
"440 91 OFFCURVE",
"394 66 OFFCURVE",
"328 66 CURVE SMOOTH",
"229 66 OFFCURVE",
"156 135 OFFCURVE",
"156 323 CURVE SMOOTH",
"156 538 OFFCURVE",
"231 623 OFFCURVE",
"337 623 CURVE SMOOTH",
"401 623 OFFCURVE",
"450 596 OFFCURVE",
"488 544 CURVE",
"514 585 LINE",
"477 655 OFFCURVE",
"409 701 OFFCURVE",
"324 701 CURVE SMOOTH",
"177 701 OFFCURVE",
"55 567 OFFCURVE",
"55 323 CURVE SMOOTH",
"55 99 OFFCURVE",
"174 -12 OFFCURVE",
"316 -12 CURVE SMOOTH"
);
},
{
closed = 1;
nodes = (
"569 0 LINE",
"569 689 LINE",
"485 689 LINE",
"474 620 LINE",
"474 69 LINE",
"474 0 LINE"
);
}
);
width = 669;
},
{
anchors = (
{
name = bottom;
position = "{326, -193}";
},
{
name = top;
position = "{326, 682}";
}
);
background = {
paths = (
{
closed = 1;
nodes = (
"405 -10 OFFCURVE",
"471 20 OFFCURVE",
"517 85 CURVE",
"510 116 LINE",
"469 52 OFFCURVE",
"406 19 OFFCURVE",
"325 19 CURVE SMOOTH",
"205 19 OFFCURVE",
"107 122 OFFCURVE",
"107 329 CURVE SMOOTH",
"107 554 OFFCURVE",
"204 663 OFFCURVE",
"325 663 CURVE",
"403 663 OFFCURVE",
"467 631 OFFCURVE",
"509 567 CURVE",
"517 597 LINE",
"470 663 OFFCURVE",
"404 692 OFFCURVE",
"325 692 CURVE SMOOTH",
"186 692 OFFCURVE",
"75 565 OFFCURVE",
"75 329 CURVE SMOOTH",
"75 107 OFFCURVE",
"185 -10 OFFCURVE",
"325 -10 CURVE SMOOTH"
);
},
{
closed = 1;
nodes = (
"532 0 LINE",
"532 682 LINE",
"505 682 LINE",
"501 586 LINE",
"501 96 LINE",
"505 0 LINE"
);
}
);
};
components = (
{
name = hookHELPER.case;
transform = "{-1, 0, 0, 1, 735, 0}";
}
);
layerId = "BCC09A48-EAE1-493E-95CB-92D2C26BC05D";
paths = (
{
closed = 1;
nodes = (
"405 -10 OFFCURVE",
"471 20 OFFCURVE",
"517 85 CURVE",
"510 116 LINE",
"469 52 OFFCURVE",
"406 19 OFFCURVE",
"325 19 CURVE SMOOTH",
"205 19 OFFCURVE",
"107 122 OFFCURVE",
"107 329 CURVE SMOOTH",
"107 554 OFFCURVE",
"204 663 OFFCURVE",
"325 663 CURVE",
"403 663 OFFCURVE",
"467 631 OFFCURVE",
"509 567 CURVE",
"517 597 LINE",
"470 663 OFFCURVE",
"404 692 OFFCURVE",
"325 692 CURVE SMOOTH",
"186 692 OFFCURVE",
"75 565 OFFCURVE",
"75 329 CURVE SMOOTH",
"75 107 OFFCURVE",
"185 -10 OFFCURVE",
"325 -10 CURVE SMOOTH"
);
},
{
closed = 1;
nodes = (
"532 0 LINE",
"532 682 LINE",
"505 682 LINE",
"501 586 LINE",
"501 96 LINE",
"501 0 LINE"
);
}
);
width = 652;
},
{
anchors = (
{
name = bottom;
position = "{337.5, -215}";
},
{
name = top;
position = "{337.5, 696}";
}
);
background = {
paths = (
{
closed = 1;
nodes = (
"439 -20 OFFCURVE",
"484 89 OFFCURVE",
"538 211 CURVE",
"464 209 LINE",
"436 148 OFFCURVE",
"387 121 OFFCURVE",
"340 121 CURVE SMOOTH",
"272 121 OFFCURVE",
"234 173 OFFCURVE",
"234 329 CURVE SMOOTH",
"234 510 OFFCURVE",
"270 570 OFFCURVE",
"339 570 CURVE SMOOTH",
"382 570 OFFCURVE",
"410 551 OFFCURVE",
"431 527 CURVE",
"491 608 LINE",
"442 661 OFFCURVE",
"392 716 OFFCURVE",
"290 716 CURVE SMOOTH",
"136 716 OFFCURVE",
"20 575 OFFCURVE",
"20 329 CURVE SMOOTH",
"20 118 OFFCURVE",
"126 -20 OFFCURVE",
"290 -20 CURVE SMOOTH"
);
},
{
closed = 1;
nodes = (
"632 0 LINE",
"632 696 LINE",
"448 696 LINE",
"426 544 LINE",
"426 152 LINE",
"448 0 LINE"
);
}
);
};
components = (
{
name = hookHELPER.case;
transform = "{-1, 0, 0, 1, 844, 0}";
}
);
layerId = UUID0;
paths = (
{
closed = 1;
nodes = (
"359 -20 OFFCURVE",
"410 5 OFFCURVE",
"446 65 CURVE",
"464 209 LINE",
"436 148 OFFCURVE",
"387 121 OFFCURVE",
"340 121 CURVE SMOOTH",
"272 121 OFFCURVE",
"234 173 OFFCURVE",
"234 329 CURVE SMOOTH",
"234 510 OFFCURVE",
"270 570 OFFCURVE",
"339 570 CURVE SMOOTH",
"382 570 OFFCURVE",
"410 551 OFFCURVE",
"431 527 CURVE",
"491 608 LINE",
"442 661 OFFCURVE",
"392 716 OFFCURVE",
"290 716 CURVE SMOOTH",
"136 716 OFFCURVE",
"20 575 OFFCURVE",
"20 329 CURVE SMOOTH",
"20 118 OFFCURVE",
"126 -20 OFFCURVE",
"287 -20 CURVE SMOOTH"
);
},
{
closed = 1;
nodes = (
"632 0 LINE",
"632 696 LINE",
"448 696 LINE",
"426 544 LINE",
"426 152 LINE",
"426 0 LINE"
);
}
);
width = 675;
}
);
leftKerningGroup = O;
rightKerningGroup = H;
unicode = 024A;
},
{
export = 0;
glyphname = Rstroke;
lastChange = "2015-11-20 10:13:18 +0000";
layers = (
{
background = {
paths = (
{
closed = 1;
nodes = (
"116 682 LINE",
"116 0 LINE",
"147 0 LINE",
"147 653 LINE",
"266 653 LINE SMOOTH",
"413 653 OFFCURVE",
"466 599 OFFCURVE",
"466 503 CURVE SMOOTH",
"466 397 OFFCURVE",
"396 349 OFFCURVE",
"276 349 CURVE SMOOTH",
"140 349 LINE",
"140 320 LINE",
"312 320 LINE",
"422 336 OFFCURVE",
"498 385 OFFCURVE",
"498 503 CURVE SMOOTH",
"498 618 OFFCURVE",
"429 682 OFFCURVE",
"270 682 CURVE SMOOTH"
);
},
{
closed = 1;
nodes = (
"305 327 LINE",
"494 0 LINE",
"533 0 LINE",
"339 332 LINE"
);
}
);
};
components = (
{
name = R;
transform = "{1, 0, 0, 1, -4, 0}";
}
);
layerId = "BCC09A48-EAE1-493E-95CB-92D2C26BC05D";
paths = (
{
closed = 1;
nodes = (
"276 349 LINE",
"116 349 LINE",
"25 349 LINE",
"25 320 LINE",
"312 320 LINE"
);
}
);
width = 573;
},
{
background = {
paths = (
{
closed = 1;
nodes = (
"112 689 LINE",
"112 0 LINE",
"207 0 LINE",
"207 615 LINE",
"292 615 LINE SMOOTH",
"405 615 OFFCURVE",
"454 580 OFFCURVE",
"454 494 CURVE SMOOTH",
"454 401 OFFCURVE",
"399 365 OFFCURVE",
"303 365 CURVE SMOOTH",
"191 365 LINE",
"191 292 LINE",
"321 292 LINE",
"476 312 OFFCURVE",
"555 372 OFFCURVE",
"555 494 CURVE SMOOTH",
"555 623 OFFCURVE",
"465 689 OFFCURVE",
"293 689 CURVE SMOOTH"
);
},
{
closed = 1;
nodes = (
"306 306 LINE",
"479 0 LINE",
"592 0 LINE",
"401 317 LINE"
);
}
);
};
components = (
{
name = R;
transform = "{1, 0, 0, 1, 11, 0}";
}
);
layerId = "A11F629A-ECF3-413E-B2EC-6C6F8C33A243";
paths = (
{
closed = 1;
nodes = (
"233 365 LINE",
"112 365 LINE",
"20 365 LINE",
"20 292 LINE",
"251 292 LINE"
);
}
);
width = 616;
},
{
background = {
paths = (
{
closed = 1;
nodes = (
"59 696 LINE",
"59 0 LINE",
"265 0 LINE",
"265 555 LINE",
"309 555 LINE SMOOTH",
"370 555 OFFCURVE",
"403 530 OFFCURVE",
"403 475 CURVE SMOOTH",
"403 414 OFFCURVE",
"375 386 OFFCURVE",
"319 386 CURVE SMOOTH",
"249 386 LINE",
"249 248 LINE",
"417 248 LINE",
"553 311 OFFCURVE",
"613 365 OFFCURVE",
"613 475 CURVE SMOOTH",
"613 628 OFFCURVE",
"513 696 OFFCURVE",
"314 696 CURVE SMOOTH"
);
},
{
closed = 1;
nodes = (
"296 262 LINE",
"432 0 LINE",
"660 0 LINE",
"482 300 LINE"
);
}
);
};
components = (
{
name = R;
transform = "{1, 0, 0, 1, 16, 0}";
}
);
layerId = UUID0;
paths = (
{
closed = 1;
nodes = (
"219 386 LINE",
"59 386 LINE",
"10 386 LINE",
"10 248 LINE",
"317 248 LINE"
);
}
);
width = 640;
}
);
leftKerningGroup = H;
leftMetricsKey = Eth;
rightKerningGroup = R;
rightMetricsKey = R;
unicode = 024C;
},
{
color = 9;
export = 0;
glyphname = Rtail.ss01;
lastChange = "2015-11-20 10:13:18 +0000";
layers = (
{
anchors = (
{
name = bottom;
position = "{199, -193}";
},
{
name = top;
position = "{199, 682}";
}
);
components = (
{
name = hookHELPER.case;
transform = "{-1, 0, 0, 1, 354, 0}";
}
);
layerId = "BCC09A48-EAE1-493E-95CB-92D2C26BC05D";
paths = (
{
closed = 1;
nodes = (
"237 692 OFFCURVE",
"171 643 OFFCURVE",
"142 540 CURVE",
"145 472 LINE",
"177 606 OFFCURVE",
"238 662 OFFCURVE",
"322 662 CURVE SMOOTH",
"348 662 OFFCURVE",
"368 659 OFFCURVE",
"381 655 CURVE",
"388 683 LINE",
"377 686 OFFCURVE",
"359 692 OFFCURVE",
"322 692 CURVE SMOOTH"
);
},
{
closed = 1;
nodes = (
"120 682 LINE",
"120 0 LINE",
"151 0 LINE",
"151 508 LINE",
"148 546 LINE",
"147 682 LINE"
);
}
);
width = 398;
},
{
anchors = (
{
name = bottom;
position = "{210, -202}";
},
{
name = top;
position = "{210, 689}";
}
);
components = (
{
name = hookHELPER.case;
transform = "{-1, 0, 0, 1, 396, 0}";
}
);
layerId = "A11F629A-ECF3-413E-B2EC-6C6F8C33A243";
paths = (
{
closed = 1;
nodes = (
"265 701 OFFCURVE",
"214 657 OFFCURVE",
"182 571 CURVE",
"190 434 LINE",
"211 553 OFFCURVE",
"260 608 OFFCURVE",
"344 608 CURVE SMOOTH",
"371 608 OFFCURVE",
"387 604 OFFCURVE",
"398 601 CURVE",
"420 691 LINE",
"404 697 OFFCURVE",
"385 701 OFFCURVE",
"353 701 CURVE SMOOTH"
);
},
{
closed = 1;
nodes = (
"100 689 LINE",
"100 0 LINE",
"195 0 LINE",
"195 474 LINE",
"192 572 LINE",
"182 689 LINE"
);
}
);
width = 420;
},
{
anchors = (
{
name = bottom;
position = "{226, -215}";
},
{
name = top;
position = "{226, 696}";
}
);
components = (
{
name = hookHELPER.case;
transform = "{-1, 0, 0, 1, 461, 0}";
}
);
layerId = UUID0;
paths = (
{
closed = 1;
nodes = (
"311 713 OFFCURVE",
"253 658 OFFCURVE",
"236 579 CURVE",
"245 380 LINE",
"260 458 OFFCURVE",
"289 516 OFFCURVE",
"369 516 CURVE SMOOTH",
"396 516 OFFCURVE",
"414 513 OFFCURVE",
"431 508 CURVE",
"462 704 LINE",
"443 710 OFFCURVE",
"427 713 OFFCURVE",
"395 713 CURVE SMOOTH"
);
},
{
closed = 1;
nodes = (
"43 696 LINE",
"43 0 LINE",
"249 0 LINE",
"249 416 LINE",
"243 581 LINE",
"224 696 LINE"
);
}
);
width = 452;
}
);
leftKerningGroup = H;
leftMetricsKey = H;
rightKerningGroup = R;
},
{
export = 0;
glyphname = Saltillo;
lastChange = "2015-11-20 10:13:18 +0000";
layers = (
{
background = {
paths = (
{
closed = 1;
nodes = (
"145 387 LINE",
"159 689 LINE",
"60 689 LINE",
"74 387 LINE"
);
}
);
};
layerId = "A11F629A-ECF3-413E-B2EC-6C6F8C33A243";
paths = (
{
closed = 1;
nodes = (
"150 347 LINE",
"165 689 LINE",
"60 689 LINE",
"74 347 LINE"
);
}
);
width = 225;
},
{
background = {
paths = (
{
closed = 1;
nodes = (
"108 399 LINE",
"112 682 LINE",
"80 682 LINE",
"84 399 LINE"
);
}
);
};
layerId = "BCC09A48-EAE1-493E-95CB-92D2C26BC05D";
paths = (
{
closed = 1;
nodes = (
"109 359 LINE",
"113 682 LINE",
"80 682 LINE",
"84 359 LINE"
);
}
);
width = 193;
},
{
background = {
paths = (
{
closed = 1;
nodes = (
"188 366 LINE",
"210 696 LINE",
"40 696 LINE",
"62 366 LINE"
);
}
);
};
layerId = UUID0;
paths = (
{
closed = 1;
nodes = (
"203 326 LINE",
"225 696 LINE",
"40 696 LINE",
"62 326 LINE"
);
}
);
width = 265;
}
);
leftKerningGroup = quotedblleft;
leftMetricsKey = quotesingle;
rightKerningGroup = quotedblleft;
rightMetricsKey = quotesingle;
unicode = A78B;
},
{
export = 0;
glyphname = Germandbls;
lastChange = "2015-11-20 10:13:18 +0000";
layers = (
{
layerId = "A11F629A-ECF3-413E-B2EC-6C6F8C33A243";
paths = (
{
closed = 1;
nodes = (
"177 701 OFFCURVE",
"100 623 OFFCURVE",
"100 489 CURVE SMOOTH",
"100 0 LINE",
"195 0 LINE",
"195 489 LINE SMOOTH",
"195 579 OFFCURVE",
"237 623 OFFCURVE",
"317 623 CURVE SMOOTH",
"375 623 OFFCURVE",
"428 610 OFFCURVE",
"478 589 CURVE",
"302 400 LINE",
"302 325 LINE",
"436 325 OFFCURVE",
"512 287 OFFCURVE",
"512 193 CURVE SMOOTH",
"512 109 OFFCURVE",
"466 66 OFFCURVE",
"379 66 CURVE SMOOTH",
"340 66 OFFCURVE",
"316 72 OFFCURVE",
"298 79 CURVE",
"268 11 LINE",
"294 -3 OFFCURVE",
"335 -12 OFFCURVE",
"385 -12 CURVE SMOOTH",
"522 -12 OFFCURVE",
"612 64 OFFCURVE",
"612 194 CURVE SMOOTH",
"612 306 OFFCURVE",
"537 374 OFFCURVE",
"392 388 CURVE",
"564 568 LINE",
"564 630 LINE",
"494 669 OFFCURVE",
"406 701 OFFCURVE",
"315 701 CURVE SMOOTH"
);
}
);
width = 657;
},
{
layerId = "BCC09A48-EAE1-493E-95CB-92D2C26BC05D";
paths = (
{
closed = 1;
nodes = (
"197 692 OFFCURVE",
"120 622 OFFCURVE",
"120 495 CURVE SMOOTH",
"120 0 LINE",
"151 0 LINE",
"151 491 LINE SMOOTH",
"151 612 OFFCURVE",
"217 663 OFFCURVE",
"324 663 CURVE SMOOTH",
"401 663 OFFCURVE",
"459 639 OFFCURVE",
"512 612 CURVE",
"308 386 LINE",
"308 357 LINE",
"473 343 OFFCURVE",
"550 292 OFFCURVE",
"550 180 CURVE SMOOTH",
"550 74 OFFCURVE",
"486 19 OFFCURVE",
"390 19 CURVE SMOOTH",
"348 19 OFFCURVE",
"317 26 OFFCURVE",
"289 36 CURVE",
"277 12 LINE",
"305 -1 OFFCURVE",
"342 -10 OFFCURVE",
"390 -10 CURVE SMOOTH",
"508 -10 OFFCURVE",
"582 63 OFFCURVE",
"582 180 CURVE SMOOTH",
"582 301 OFFCURVE",
"500 365 OFFCURVE",
"341 382 CURVE",
"544 603 LINE",
"544 627 LINE",
"476 666 OFFCURVE",
"408 692 OFFCURVE",
"324 692 CURVE SMOOTH"
);
}
);
width = 642;
},
{
layerId = UUID0;
paths = (
{
closed = 1;
nodes = (
"131 716 OFFCURVE",
"43 626 OFFCURVE",
"43 482 CURVE SMOOTH",
"43 0 LINE",
"249 0 LINE",
"249 489 LINE SMOOTH",
"249 547 OFFCURVE",
"270 570 OFFCURVE",
"320 570 CURVE SMOOTH",
"359 570 OFFCURVE",
"393 564 OFFCURVE",
"425 554 CURVE",
"310 401 LINE",
"310 308 LINE",
"414 294 OFFCURVE",
"448 259 OFFCURVE",
"448 202 CURVE SMOOTH",
"448 148 OFFCURVE",
"413 131 OFFCURVE",
"383 131 CURVE SMOOTH",
"363 131 OFFCURVE",
"347 134 OFFCURVE",
"331 141 CURVE",
"273 9 LINE",
"307 -8 OFFCURVE",
"355 -20 OFFCURVE",
"412 -20 CURVE SMOOTH",
"541 -20 OFFCURVE",
"662 49 OFFCURVE",
"662 198 CURVE SMOOTH",
"662 327 OFFCURVE",
"580 376 OFFCURVE",
"483 396 CURVE",
"616 562 LINE",
"616 645 LINE",
"526 683 OFFCURVE",
"441 716 OFFCURVE",
"305 716 CURVE SMOOTH"
);
}
);
width = 677;
}
);
leftKerningGroup = H;
leftMetricsKey = H;
rightKerningGroup = B;
rightMetricsKey = B;
unicode = 1E9E;
},
{
export = 0;
glyphname = Tdiagonalstroke;
lastChange = "2015-11-20 10:13:18 +0000";
layers = (
{
anchors = (
{
name = bottom;
position = "{258.5, 0}";
},
{
name = top;
position = "{258.5, 689}";
}
);
background = {
paths = (
{
closed = 1;
nodes = (
"89 -53 LINE",
"133 -70 LINE",
"447 739 LINE",
"403 756 LINE"
);
},
{
closed = 1;
nodes = (
"15 689 LINE",
"15 608 LINE",
"211 608 LINE",
"211 0 LINE",
"306 0 LINE",
"306 608 LINE",
"497 608 LINE",
"507 689 LINE"
);
},
{
closed = 1;
nodes = (
"15 689 LINE",
"15 608 LINE",
"211 608 LINE",
"211 0 LINE",
"306 0 LINE",
"306 608 LINE",
"497 608 LINE",
"507 689 LINE"
);
}
);
};
layerId = "A11F629A-ECF3-413E-B2EC-6C6F8C33A243";
paths = (
{
closed = 1;
nodes = (
"305 0 LINE",
"305 608 LINE",
"497 608 LINE",
"507 689 LINE",
"15 689 LINE",
"15 608 LINE",
"212 608 LINE",
"212 0 LINE"
);
},
{
closed = 1;
nodes = (
"447 739 LINE",
"403 756 LINE",
"89 -53 LINE",
"133 -70 LINE"
);
}
);
width = 517;
},
{
anchors = (
{
name = bottom;
position = "{277, 0}";
},
{
name = top;
position = "{277, 696}";
}
);
background = {
paths = (
{
closed = 1;
nodes = (
"86 -54 LINE",
"144 -77 LINE",
"453 736 LINE",
"395 759 LINE"
);
},
{
closed = 1;
nodes = (
"5 696 LINE",
"5 542 LINE",
"174 542 LINE",
"174 0 LINE",
"380 0 LINE",
"380 542 LINE",
"538 542 LINE",
"559 696 LINE"
);
}
);
};
layerId = UUID0;
paths = (
{
closed = 1;
nodes = (
"365 0 LINE",
"365 552 LINE",
"538 552 LINE",
"559 696 LINE",
"5 696 LINE",
"5 552 LINE",
"189 552 LINE",
"189 0 LINE"
);
},
{
closed = 1;
nodes = (
"548 731 LINE",
"495 759 LINE",
"81 -49 LINE",
"134 -77 LINE"
);
}
);
width = 554;
},
{
anchors = (
{
name = bottom;
position = "{238.5, 0}";
},
{
name = top;
position = "{238.5, 682}";
}
);
background = {
paths = (
{
closed = 1;
nodes = (
"122 -64 LINE",
"145 -70 LINE",
"355 734 LINE",
"333 740 LINE"
);
},
{
closed = 1;
nodes = (
"15 682 LINE",
"15 652 LINE",
"223 652 LINE",
"223 0 LINE",
"254 0 LINE",
"254 652 LINE",
"462 652 LINE",
"467 682 LINE"
);
}
);
};
layerId = "BCC09A48-EAE1-493E-95CB-92D2C26BC05D";
paths = (
{
closed = 1;
nodes = (
"254 0 LINE",
"254 652 LINE",
"462 652 LINE",
"467 682 LINE",
"15 682 LINE",
"15 652 LINE",
"223 652 LINE",
"223 0 LINE"
);
},
{
closed = 1;
nodes = (
"365 734 LINE",
"343 740 LINE",
"112 -64 LINE",
"135 -70 LINE"
);
}
);
width = 477;
}
);
leftKerningGroup = T;
leftMetricsKey = T;
rightKerningGroup = T;
rightMetricsKey = T;
unicode = 023E;
},
